{"glyphs":{"0":{"ha":524,"x_min":43,"x_max":481,"o":"m 262 11 l 262 11 q 190 11 142 -28 q 93 -68 68 -149 q 43 -231 43 -357 l 43 -357 q 43 -480 66 -561 q 89 -643 138 -684 q 186 -725 261 -725 l 261 -725 q 335 -725 384 -683 q 432 -641 457 -559 q 481 -478 481 -357 l 481 -357 q 481 -268 469 -199 q 456 -131 430 -84 q 403 -37 362 -13 q 320 11 262 11 z m 261 -78 l 261 -78 q 297 -78 320 -98 q 342 -119 355 -156 q 368 -194 373 -245 q 377 -296 377 -357 l 377 -357 q 377 -417 372 -468 q 367 -519 355 -557 q 342 -595 319 -615 q 296 -636 261 -636 l 261 -636 q 226 -636 204 -615 q 181 -595 169 -557 q 157 -520 152 -469 q 147 -418 147 -357 l 147 -357 q 147 -293 152 -241 q 157 -190 170 -153 q 182 -116 205 -97 q 227 -78 261 -78 z"},"1":{"ha":524,"x_min":72,"x_max":350,"o":"m 350 -714 l 350 0 l 248 0 l 248 -470 q 248 -503 249 -537 q 250 -572 251 -599 l 251 -599 q 246 -593 235 -581 q 223 -569 209 -557 l 209 -557 l 127 -486 l 72 -550 l 264 -714 l 350 -714 z"},"2":{"ha":524,"x_min":41,"x_max":479,"o":"m 479 0 l 41 0 l 41 -78 l 210 -271 q 260 -328 291 -369 q 322 -411 338 -448 q 353 -485 353 -529 l 353 -529 q 353 -562 340 -586 q 327 -610 304 -622 q 281 -635 249 -635 l 249 -635 q 206 -635 171 -619 q 136 -604 99 -575 l 99 -575 l 46 -646 q 75 -669 107 -687 q 139 -705 176 -715 q 212 -725 253 -725 l 253 -725 q 315 -725 361 -702 q 406 -679 432 -636 q 457 -594 457 -536 l 457 -536 q 457 -480 437 -432 q 417 -384 380 -336 q 342 -288 292 -233 l 292 -233 l 169 -97 l 169 -92 l 479 -92 l 479 0 z"},"3":{"ha":524,"x_min":39,"x_max":474,"o":"m 222 11 l 222 11 q 168 11 123 3 q 77 -6 39 -22 l 39 -22 l 39 -117 q 81 -97 126 -86 q 171 -76 215 -76 l 215 -76 q 293 -76 330 -110 q 366 -144 366 -207 l 366 -207 q 366 -246 348 -272 q 329 -298 291 -311 q 252 -325 192 -325 l 192 -325 l 137 -325 l 137 -411 l 194 -411 q 248 -411 283 -426 q 318 -442 335 -470 q 352 -498 352 -535 l 352 -535 q 352 -583 324 -610 q 295 -637 241 -637 l 241 -637 q 196 -637 161 -623 q 126 -609 91 -585 l 91 -585 l 41 -658 q 86 -690 136 -707 q 185 -725 247 -725 l 247 -725 q 308 -725 355 -705 q 402 -685 429 -646 q 455 -608 455 -550 l 455 -550 q 455 -505 439 -470 q 422 -435 391 -411 q 360 -387 316 -376 l 316 -376 l 316 -372 q 393 -361 434 -317 q 474 -273 474 -202 l 474 -202 q 474 -133 444 -85 q 413 -38 356 -13 q 299 11 222 11 z"},"4":{"ha":524,"x_min":19,"x_max":507,"o":"m 418 0 l 317 0 l 317 -156 l 19 -156 l 19 -237 l 314 -717 l 418 -717 l 418 -243 l 507 -243 l 507 -156 l 418 -156 l 418 0 z m 278 -516 l 113 -243 l 317 -243 l 317 -455 q 317 -474 318 -500 q 318 -526 319 -551 q 320 -577 321 -596 l 321 -596 l 318 -596 q 310 -575 300 -555 q 290 -535 278 -516 l 278 -516 z"},"5":{"ha":524,"x_min":55,"x_max":474,"o":"m 223 11 l 223 11 q 173 11 129 3 q 85 -6 55 -22 l 55 -22 l 55 -118 q 89 -99 134 -88 q 179 -77 221 -77 l 221 -77 q 269 -77 302 -94 q 335 -112 352 -145 q 369 -178 369 -223 l 369 -223 q 369 -289 332 -322 q 294 -356 220 -356 l 220 -356 q 195 -356 167 -352 q 139 -348 112 -341 l 112 -341 l 67 -372 l 92 -714 l 428 -714 l 428 -621 l 181 -621 l 166 -434 q 189 -439 212 -441 q 235 -444 258 -444 l 258 -444 q 322 -444 371 -419 q 420 -394 447 -346 q 474 -299 474 -232 l 474 -232 q 474 -155 445 -100 q 415 -46 359 -17 q 303 11 223 11 z"},"6":{"ha":524,"x_min":46,"x_max":483,"o":"m 272 11 l 272 11 q 217 11 175 -11 q 133 -33 105 -74 q 76 -116 61 -174 q 46 -232 46 -304 l 46 -304 q 46 -380 57 -445 q 67 -510 89 -561 q 111 -613 147 -649 q 183 -686 234 -705 q 284 -724 350 -724 l 350 -724 q 373 -724 396 -722 q 418 -720 436 -715 l 436 -715 l 436 -627 q 419 -632 399 -635 q 378 -638 356 -638 l 356 -638 q 285 -638 240 -608 q 195 -578 172 -519 q 149 -460 146 -371 l 146 -371 l 151 -371 q 166 -397 187 -415 q 208 -434 236 -444 q 264 -454 297 -454 l 297 -454 q 357 -454 399 -426 q 440 -398 462 -347 q 483 -297 483 -231 l 483 -231 q 483 -159 459 -104 q 434 -50 387 -19 q 340 11 272 11 z m 270 -77 l 270 -77 q 322 -77 352 -115 q 381 -154 381 -230 l 381 -230 q 381 -297 354 -333 q 327 -369 272 -369 l 272 -369 q 236 -369 209 -352 q 181 -335 166 -307 q 151 -280 151 -250 l 151 -250 q 151 -219 159 -188 q 166 -157 181 -132 q 196 -107 219 -92 q 241 -77 270 -77 z"},"7":{"ha":524,"x_min":35,"x_max":483,"o":"m 226 0 l 116 0 l 376 -621 l 35 -621 l 35 -714 l 483 -714 l 483 -639 l 226 0 z"},"8":{"ha":524,"x_min":41,"x_max":483,"o":"m 264 11 l 264 11 q 197 11 147 -10 q 97 -32 69 -74 q 41 -117 41 -179 l 41 -179 q 41 -223 57 -258 q 72 -293 102 -322 q 132 -351 175 -373 l 175 -373 q 138 -397 113 -424 q 87 -452 75 -484 q 62 -517 62 -554 l 62 -554 q 62 -611 89 -648 q 116 -686 162 -705 q 208 -724 262 -724 l 262 -724 q 318 -724 364 -705 q 409 -686 436 -648 q 463 -611 463 -554 l 463 -554 q 463 -516 449 -483 q 435 -451 408 -424 q 380 -398 339 -376 l 339 -376 q 380 -353 413 -326 q 445 -299 464 -264 q 483 -229 483 -183 l 483 -183 q 483 -122 455 -78 q 426 -35 377 -12 q 327 11 264 11 z m 262 -71 l 262 -71 q 318 -71 351 -100 q 384 -129 384 -184 l 384 -184 q 384 -212 371 -235 q 358 -259 333 -280 q 307 -301 269 -319 l 269 -319 l 252 -328 q 214 -309 189 -287 q 164 -265 152 -239 q 140 -214 140 -181 l 140 -181 q 140 -132 172 -101 q 203 -71 262 -71 z m 263 -421 l 263 -421 q 297 -438 319 -456 q 341 -475 352 -497 q 363 -520 363 -549 l 363 -549 q 363 -596 334 -619 q 305 -642 262 -642 l 262 -642 q 216 -642 189 -617 q 161 -592 161 -548 l 161 -548 q 161 -517 174 -494 q 187 -471 210 -454 q 233 -437 263 -421 z"},"9":{"ha":524,"x_min":41,"x_max":478,"o":"m 173 11 l 173 11 q 155 11 129 9 q 102 6 85 2 l 85 2 l 85 -87 q 104 -81 125 -78 q 145 -75 168 -75 l 168 -75 q 223 -75 262 -93 q 301 -112 326 -147 q 350 -182 363 -231 q 375 -280 378 -342 l 378 -342 l 372 -342 q 358 -317 337 -298 q 316 -280 289 -270 q 261 -260 225 -260 l 225 -260 q 166 -260 125 -288 q 84 -316 63 -366 q 41 -416 41 -482 l 41 -482 q 41 -554 66 -608 q 90 -663 138 -693 q 186 -724 254 -724 l 254 -724 q 308 -724 350 -702 q 391 -680 420 -639 q 448 -598 463 -541 q 478 -484 478 -415 l 478 -415 q 478 -337 468 -271 q 457 -205 434 -152 q 411 -100 376 -63 q 340 -27 290 -8 q 239 11 173 11 z m 251 -345 l 251 -345 q 289 -345 316 -362 q 343 -380 359 -407 q 374 -435 374 -466 l 374 -466 q 374 -494 367 -524 q 360 -554 345 -579 q 330 -605 308 -620 q 285 -636 254 -636 l 254 -636 q 202 -636 173 -597 q 143 -559 143 -483 l 143 -483 q 143 -416 171 -380 q 198 -345 251 -345 z"},"\r":{"ha":277,"x_min":0,"x_max":0,"o":""}," ":{"ha":277,"x_min":0,"x_max":0,"o":""},"ഀ":{"ha":0,"x_min":-424,"x_max":-131,"o":"m -424 -719 l -424 -719 q -424 -783 -384 -823 q -345 -864 -278 -864 l -278 -864 q -211 -864 -171 -823 q -131 -783 -131 -719 l -131 -719 q -131 -655 -170 -614 q -210 -573 -278 -573 l -278 -573 q -346 -573 -385 -614 q -424 -655 -424 -719 z m -345 -719 l -345 -719 q -345 -689 -329 -666 q -313 -643 -278 -643 l -278 -643 q -243 -643 -227 -666 q -211 -689 -211 -720 l -211 -720 q -211 -750 -227 -772 q -244 -794 -278 -794 l -278 -794 q -312 -794 -328 -772 q -345 -750 -345 -719 z"},"ഁ":{"ha":0,"x_min":-446,"x_max":-110,"o":"m -278 -648 l -278 -648 q -358 -648 -402 -689 q -446 -731 -446 -807 l -446 -807 q -446 -823 -444 -837 q -442 -851 -438 -863 l -438 -863 l -365 -850 q -368 -840 -369 -829 q -370 -818 -370 -809 l -370 -809 q -370 -775 -357 -755 q -345 -736 -324 -727 q -303 -719 -278 -719 l -278 -719 q -254 -719 -233 -727 q -212 -736 -199 -756 q -186 -776 -186 -811 l -186 -811 q -186 -819 -187 -829 q -188 -840 -191 -850 l -191 -850 l -117 -862 q -114 -850 -112 -835 q -110 -821 -110 -808 l -110 -808 q -110 -732 -154 -690 q -199 -648 -278 -648 z m -279 -757 l -279 -757 q -303 -757 -316 -771 q -329 -785 -329 -809 l -329 -809 q -329 -831 -316 -845 q -303 -860 -279 -860 l -279 -860 q -255 -860 -241 -845 q -228 -831 -228 -809 l -228 -809 q -228 -785 -241 -771 q -255 -757 -279 -757 z"},"ം":{"ha":434,"x_min":31,"x_max":403,"o":"m 217 12 l 217 12 q 159 12 118 -11 q 76 -35 54 -78 q 31 -121 31 -177 l 31 -177 q 31 -235 55 -277 q 78 -320 120 -343 q 162 -366 216 -366 l 216 -366 q 272 -366 314 -343 q 355 -320 379 -278 q 403 -237 403 -177 l 403 -177 q 403 -119 379 -76 q 355 -34 314 -11 q 272 12 217 12 z m 217 -289 l 217 -289 q 177 -289 152 -262 q 127 -236 127 -176 l 127 -176 q 127 -118 153 -91 q 178 -65 217 -65 l 217 -65 q 255 -65 281 -91 q 307 -118 307 -177 l 307 -177 q 307 -235 282 -262 q 256 -289 217 -289 z"},"ഃ":{"ha":323,"x_min":31,"x_max":293,"o":"m 31 -437 l 31 -437 q 31 -495 67 -531 q 103 -568 161 -568 l 161 -568 q 221 -568 257 -531 q 293 -495 293 -437 l 293 -437 q 293 -379 257 -342 q 221 -305 161 -305 l 161 -305 q 102 -305 67 -342 q 31 -379 31 -437 z m 107 -438 l 107 -438 q 107 -410 121 -392 q 135 -374 161 -374 l 161 -374 q 189 -374 203 -392 q 216 -410 216 -438 l 216 -438 q 216 -465 202 -482 q 188 -499 161 -499 l 161 -499 q 135 -499 121 -482 q 107 -465 107 -438 z m 31 -120 l 31 -120 q 31 -178 67 -215 q 103 -252 161 -252 l 161 -252 q 221 -252 257 -215 q 293 -179 293 -120 l 293 -120 q 293 -61 257 -24 q 221 12 161 12 l 161 12 q 102 12 67 -25 q 31 -62 31 -120 z m 107 -120 l 107 -120 q 107 -92 121 -74 q 135 -57 161 -57 l 161 -57 q 189 -57 203 -74 q 216 -92 216 -120 l 216 -120 q 216 -148 202 -165 q 188 -182 161 -182 l 161 -182 q 135 -182 121 -165 q 107 -148 107 -120 z"},"ഄ":{"ha":563,"x_min":34,"x_max":528,"o":"m 49 -325 l 49 -325 l 144 -307 q 138 -286 135 -263 q 132 -240 132 -217 l 132 -217 q 132 -151 166 -111 q 200 -72 281 -72 l 281 -72 q 363 -72 397 -111 q 430 -151 430 -217 l 430 -217 q 430 -240 428 -263 q 425 -286 419 -307 l 419 -307 l 513 -325 q 519 -305 524 -275 q 528 -246 528 -214 l 528 -214 q 528 -150 504 -99 q 480 -49 426 -20 q 372 9 281 9 l 281 9 q 191 9 137 -20 q 82 -49 58 -99 q 34 -150 34 -214 l 34 -214 q 34 -246 39 -275 q 43 -305 49 -325 z m 239 -175 l 239 -407 l 325 -407 l 325 -175 l 239 -175 z"},"അ":{"ha":1409,"x_min":37,"x_max":1371,"o":"m 351 -568 l 351 -568 q 394 -568 442 -560 q 489 -552 531 -533 l 531 -533 q 537 -530 544 -524 q 550 -519 556 -516 l 556 -516 q 596 -502 622 -480 q 648 -459 661 -431 q 674 -404 674 -370 l 674 -370 q 674 -344 666 -322 q 658 -301 639 -283 q 620 -266 588 -252 l 588 -252 l 588 -259 q 632 -245 658 -213 q 684 -182 684 -136 l 684 -136 q 684 -96 666 -62 q 648 -29 608 -8 q 568 12 502 12 l 502 12 q 428 12 380 -20 q 332 -52 309 -108 q 286 -164 286 -236 l 286 -236 q 286 -292 302 -343 q 317 -395 351 -438 q 384 -482 436 -514 l 436 -514 q 442 -518 447 -521 q 451 -525 456 -528 l 456 -528 q 491 -547 534 -557 q 577 -568 629 -568 l 629 -568 q 692 -568 735 -553 q 777 -538 807 -512 q 836 -487 858 -454 l 858 -454 l 891 -244 l 891 0 l 790 0 l 790 -283 q 790 -355 780 -392 q 769 -430 743 -455 l 743 -455 q 723 -473 695 -483 q 667 -493 622 -493 l 622 -493 q 596 -493 573 -488 q 549 -484 530 -478 l 530 -478 q 490 -465 462 -439 q 433 -414 416 -380 q 398 -346 390 -309 q 382 -273 382 -237 l 382 -237 q 382 -149 413 -106 q 443 -64 501 -64 l 501 -64 q 544 -64 566 -82 q 587 -101 587 -139 l 587 -139 q 587 -174 562 -194 q 536 -215 486 -215 l 486 -215 l 470 -215 l 470 -293 l 482 -293 q 531 -293 554 -314 q 577 -335 577 -370 l 577 -370 q 577 -412 550 -439 q 522 -466 463 -479 l 463 -479 q 434 -487 408 -489 q 382 -492 359 -492 l 359 -492 q 285 -492 237 -464 q 188 -436 164 -388 q 140 -340 140 -278 l 140 -278 q 140 -226 153 -185 q 166 -145 190 -112 q 213 -80 245 -54 l 245 -54 l 180 10 q 140 -20 108 -61 q 76 -102 57 -157 q 37 -212 37 -282 l 37 -282 q 37 -340 55 -391 q 73 -443 111 -483 q 149 -523 209 -545 q 268 -568 351 -568 z m 1170 12 l 1170 12 q 1106 12 1066 -16 q 1025 -45 1006 -93 q 986 -142 986 -200 l 986 -200 q 986 -295 1032 -350 q 1078 -405 1159 -405 l 1159 -405 q 1209 -405 1246 -380 q 1282 -355 1305 -314 q 1328 -274 1336 -225 l 1336 -225 l 1302 -221 q 1296 -246 1280 -270 q 1264 -295 1239 -311 q 1214 -328 1182 -328 l 1182 -328 q 1130 -328 1107 -293 q 1084 -259 1084 -199 l 1084 -199 q 1084 -159 1093 -129 q 1102 -99 1122 -82 q 1141 -66 1172 -66 l 1172 -66 q 1205 -66 1228 -84 q 1250 -102 1262 -141 q 1274 -181 1274 -245 l 1274 -245 q 1274 -254 1273 -271 q 1271 -288 1269 -304 l 1269 -304 q 1268 -310 1269 -318 q 1269 -327 1267 -333 l 1267 -333 q 1260 -372 1236 -407 q 1211 -442 1168 -465 q 1124 -488 1059 -488 l 1059 -488 q 1021 -488 993 -480 q 964 -472 941 -452 l 941 -452 q 925 -438 914 -417 q 902 -397 897 -366 q 891 -335 891 -286 l 891 -286 l 891 -207 l 828 -460 q 852 -491 883 -515 q 913 -540 956 -554 q 998 -568 1060 -568 l 1060 -568 q 1137 -568 1195 -544 q 1253 -520 1293 -475 q 1332 -431 1352 -371 q 1371 -312 1371 -241 l 1371 -241 q 1371 -150 1346 -94 q 1320 -38 1275 -13 q 1229 12 1170 12 z"},"ആ":{"ha":1550,"x_min":37,"x_max":1525,"o":"m 351 -568 l 351 -568 q 394 -568 442 -560 q 489 -552 531 -533 l 531 -533 q 537 -530 544 -524 q 550 -519 556 -516 l 556 -516 q 596 -502 622 -480 q 648 -459 661 -431 q 674 -404 674 -370 l 674 -370 q 674 -344 666 -322 q 658 -301 639 -283 q 620 -266 588 -252 l 588 -252 l 588 -259 q 632 -245 658 -213 q 684 -182 684 -136 l 684 -136 q 684 -96 666 -62 q 648 -29 608 -8 q 568 12 502 12 l 502 12 q 428 12 380 -20 q 332 -52 309 -108 q 286 -164 286 -236 l 286 -236 q 286 -292 302 -343 q 317 -395 351 -438 q 384 -482 436 -514 l 436 -514 q 442 -518 447 -521 q 451 -525 456 -528 l 456 -528 q 491 -547 534 -557 q 577 -568 629 -568 l 629 -568 q 692 -568 735 -553 q 777 -538 807 -512 q 836 -487 858 -454 l 858 -454 l 891 -242 l 891 0 l 790 0 l 790 -283 q 790 -355 780 -392 q 769 -430 743 -455 l 743 -455 q 723 -473 695 -483 q 667 -493 622 -493 l 622 -493 q 596 -493 573 -488 q 549 -484 530 -478 l 530 -478 q 490 -465 462 -439 q 433 -414 416 -380 q 398 -346 390 -309 q 382 -273 382 -237 l 382 -237 q 382 -149 413 -106 q 443 -64 501 -64 l 501 -64 q 544 -64 566 -82 q 587 -101 587 -139 l 587 -139 q 587 -174 562 -194 q 536 -215 486 -215 l 486 -215 l 470 -215 l 470 -293 l 482 -293 q 531 -293 554 -314 q 577 -335 577 -370 l 577 -370 q 577 -412 550 -439 q 522 -466 463 -479 l 463 -479 q 434 -487 408 -489 q 382 -492 359 -492 l 359 -492 q 285 -492 237 -464 q 188 -436 164 -388 q 140 -340 140 -278 l 140 -278 q 140 -226 153 -185 q 166 -145 190 -112 q 213 -80 245 -54 l 245 -54 l 180 10 q 140 -20 108 -61 q 76 -102 57 -157 q 37 -212 37 -282 l 37 -282 q 37 -340 55 -391 q 73 -443 111 -483 q 149 -523 209 -545 q 268 -568 351 -568 z m 1050 -568 l 1050 -568 q 1135 -568 1195 -537 q 1255 -507 1291 -454 q 1327 -402 1340 -333 l 1340 -333 q 1346 -308 1348 -281 q 1350 -255 1350 -227 l 1350 -227 q 1350 -143 1326 -90 q 1302 -37 1258 -12 q 1214 12 1151 12 l 1151 12 q 1090 12 1050 -14 q 1010 -40 991 -82 q 972 -124 972 -173 l 972 -173 q 972 -275 1039 -331 q 1106 -387 1223 -387 l 1223 -387 q 1236 -387 1249 -386 q 1261 -386 1272 -384 l 1272 -384 l 1298 -382 q 1369 -370 1420 -330 q 1470 -290 1498 -229 q 1525 -169 1525 -93 l 1525 -93 q 1525 -28 1507 26 q 1489 80 1452 119 q 1415 158 1359 180 q 1303 201 1227 201 l 1227 201 q 1183 201 1146 194 q 1109 187 1078 177 l 1078 177 l 1108 99 q 1135 109 1164 114 q 1192 119 1228 119 l 1228 119 q 1285 119 1323 102 q 1361 85 1384 55 q 1407 25 1417 -13 q 1427 -52 1427 -95 l 1427 -95 q 1427 -146 1416 -184 q 1404 -222 1381 -249 q 1358 -277 1324 -294 l 1324 -294 l 1290 -300 q 1274 -305 1257 -307 q 1240 -310 1225 -310 l 1225 -310 q 1176 -310 1142 -294 q 1107 -279 1089 -249 q 1071 -220 1071 -174 l 1071 -174 q 1071 -145 1079 -120 q 1087 -96 1106 -81 q 1125 -67 1155 -67 l 1155 -67 q 1204 -67 1230 -105 q 1255 -143 1255 -229 l 1255 -229 q 1255 -259 1251 -288 q 1247 -317 1240 -343 l 1240 -343 l 1235 -365 q 1222 -401 1198 -428 q 1174 -456 1138 -472 q 1101 -488 1050 -488 l 1050 -488 q 1019 -488 991 -480 q 963 -472 940 -452 l 940 -452 q 924 -438 913 -417 q 902 -397 897 -365 q 891 -334 891 -285 l 891 -285 l 891 -207 l 826 -458 q 851 -491 882 -516 q 913 -541 955 -554 q 996 -568 1050 -568 z"},"ഇ":{"ha":917,"x_min":37,"x_max":880,"o":"m 310 -568 l 310 -568 q 366 -568 405 -556 q 444 -544 471 -522 q 498 -501 519 -473 l 519 -473 l 493 -478 q 525 -528 567 -548 q 609 -568 660 -568 l 660 -568 q 716 -568 758 -547 q 799 -527 826 -490 q 853 -453 867 -406 q 880 -360 880 -308 l 880 -308 q 880 -219 857 -159 q 834 -100 786 -62 l 786 -62 q 759 -41 725 -27 q 691 -13 644 -6 q 596 0 529 0 l 529 0 l 267 0 q 225 0 206 3 q 186 5 174 12 l 174 12 q 159 19 152 31 q 145 43 145 58 l 145 58 q 145 72 151 84 q 156 95 167 103 l 167 103 q 180 111 202 116 q 224 120 265 120 l 265 120 l 861 120 l 861 201 l 258 201 q 204 201 166 193 q 128 185 102 169 l 102 169 q 74 152 60 125 q 45 98 45 63 l 45 63 q 45 28 59 0 q 72 -29 101 -48 l 101 -48 q 116 -58 136 -65 q 155 -72 182 -75 q 209 -79 248 -79 l 248 -79 l 505 -79 q 574 -79 617 -86 q 659 -93 685 -106 q 710 -119 728 -137 l 728 -137 q 758 -167 768 -210 q 778 -253 778 -304 l 778 -304 q 778 -350 765 -392 q 752 -434 725 -461 q 697 -488 652 -488 l 652 -488 q 629 -488 612 -481 q 594 -474 582 -459 l 582 -459 q 566 -439 560 -408 q 553 -377 553 -318 l 553 -318 l 553 -132 l 453 -132 l 453 -317 q 453 -374 443 -405 q 433 -436 414 -455 l 414 -455 q 396 -472 371 -481 q 346 -490 305 -490 l 305 -490 q 270 -490 242 -481 q 214 -473 192 -458 q 170 -443 155 -421 q 139 -400 129 -374 l 129 -374 q 128 -369 129 -363 q 129 -357 128 -352 l 128 -352 q 126 -342 125 -331 q 123 -320 123 -307 l 123 -307 q 123 -251 142 -221 q 160 -192 199 -192 l 199 -192 q 233 -192 249 -215 q 265 -239 265 -272 l 265 -272 q 265 -295 258 -312 q 251 -329 237 -338 q 222 -348 199 -348 l 199 -348 q 162 -348 139 -330 q 115 -312 96 -292 l 96 -292 l 56 -331 q 72 -352 97 -372 q 122 -393 153 -406 q 184 -420 219 -420 l 219 -420 q 268 -420 299 -399 q 330 -379 345 -346 q 360 -313 360 -273 l 360 -273 q 360 -231 343 -195 q 326 -160 291 -139 q 255 -118 200 -118 l 200 -118 q 151 -118 115 -140 q 78 -163 58 -207 q 37 -251 37 -316 l 37 -316 q 37 -389 71 -446 q 104 -503 165 -535 q 226 -568 310 -568 z"},"ഈ":{"ha":1631,"x_min":37,"x_max":1594,"o":"m 310 -568 l 310 -568 q 366 -568 405 -556 q 444 -544 471 -522 q 498 -501 519 -473 l 519 -473 l 493 -478 q 525 -528 567 -548 q 609 -568 660 -568 l 660 -568 q 716 -568 758 -547 q 799 -527 826 -490 q 853 -453 867 -406 q 880 -360 880 -308 l 880 -308 q 880 -219 857 -159 q 834 -100 786 -62 l 786 -62 q 759 -41 725 -27 q 691 -13 644 -6 q 596 0 529 0 l 529 0 l 267 0 q 225 0 206 3 q 186 5 174 12 l 174 12 q 159 19 152 31 q 145 43 145 58 l 145 58 q 145 72 151 84 q 156 95 167 103 l 167 103 q 180 111 202 116 q 224 120 265 120 l 265 120 l 861 120 l 861 201 l 258 201 q 204 201 166 193 q 128 185 102 169 l 102 169 q 74 152 60 125 q 45 98 45 63 l 45 63 q 45 28 59 0 q 72 -29 101 -48 l 101 -48 q 116 -58 136 -65 q 155 -72 182 -75 q 209 -79 248 -79 l 248 -79 l 505 -79 q 574 -79 617 -86 q 659 -93 685 -106 q 710 -119 728 -137 l 728 -137 q 758 -167 768 -210 q 778 -253 778 -304 l 778 -304 q 778 -350 765 -392 q 752 -434 725 -461 q 697 -488 652 -488 l 652 -488 q 629 -488 612 -481 q 594 -474 582 -459 l 582 -459 q 566 -439 560 -408 q 553 -377 553 -318 l 553 -318 l 553 -132 l 453 -132 l 453 -317 q 453 -374 443 -405 q 433 -436 414 -455 l 414 -455 q 396 -472 371 -481 q 346 -490 305 -490 l 305 -490 q 270 -490 242 -481 q 214 -473 192 -458 q 170 -443 155 -421 q 139 -400 129 -374 l 129 -374 q 128 -369 129 -363 q 129 -357 128 -352 l 128 -352 q 126 -342 125 -331 q 123 -320 123 -307 l 123 -307 q 123 -251 142 -221 q 160 -192 199 -192 l 199 -192 q 233 -192 249 -215 q 265 -239 265 -272 l 265 -272 q 265 -295 258 -312 q 251 -329 237 -338 q 222 -348 199 -348 l 199 -348 q 162 -348 139 -330 q 115 -312 96 -292 l 96 -292 l 56 -331 q 72 -352 97 -372 q 122 -393 153 -406 q 184 -420 219 -420 l 219 -420 q 268 -420 299 -399 q 330 -379 345 -346 q 360 -313 360 -273 l 360 -273 q 360 -231 343 -195 q 326 -160 291 -139 q 255 -118 200 -118 l 200 -118 q 151 -118 115 -140 q 78 -163 58 -207 q 37 -251 37 -316 l 37 -316 q 37 -389 71 -446 q 104 -503 165 -535 q 226 -568 310 -568 z m 1399 -568 l 1399 -568 q 1461 -568 1505 -536 q 1548 -505 1571 -446 q 1594 -388 1594 -307 l 1594 -307 q 1594 -202 1563 -131 q 1532 -60 1472 -24 q 1412 12 1325 12 l 1325 12 q 1263 12 1213 0 q 1163 -12 1116 -36 l 1116 -36 l 1161 -112 q 1196 -93 1233 -81 q 1270 -70 1318 -70 l 1318 -70 q 1384 -70 1422 -99 q 1460 -128 1476 -180 q 1492 -233 1492 -305 l 1492 -305 q 1492 -399 1465 -443 q 1438 -488 1393 -488 l 1393 -488 q 1371 -488 1356 -480 q 1341 -472 1332 -457 l 1332 -457 q 1322 -442 1319 -419 q 1316 -396 1316 -351 l 1316 -351 l 1316 -260 l 1216 -260 l 1216 -341 q 1216 -385 1213 -412 q 1209 -439 1199 -454 l 1199 -454 q 1189 -472 1173 -480 q 1157 -488 1137 -488 l 1137 -488 q 1094 -488 1073 -457 q 1051 -426 1051 -381 l 1051 -381 q 1051 -348 1055 -323 q 1059 -298 1065 -277 l 1065 -277 l 970 -256 q 961 -285 956 -319 q 950 -354 950 -385 l 950 -385 q 950 -434 970 -475 q 989 -517 1029 -542 q 1068 -568 1130 -568 l 1130 -568 q 1180 -568 1214 -548 q 1247 -529 1270 -492 l 1270 -492 l 1257 -493 q 1283 -534 1318 -551 q 1353 -568 1399 -568 z"},"ഉ":{"ha":652,"x_min":37,"x_max":615,"o":"m 326 -568 l 326 -568 q 407 -568 462 -544 q 517 -521 551 -481 q 585 -441 600 -392 q 615 -343 615 -292 l 615 -292 q 615 -217 596 -161 q 576 -106 535 -71 l 535 -71 q 504 -44 466 -28 q 428 -13 379 -6 q 330 0 267 0 l 267 0 l 258 0 q 223 0 205 3 q 186 5 174 12 l 174 12 q 159 18 152 31 q 145 43 145 58 l 145 58 q 145 72 151 84 q 156 95 167 103 l 167 103 q 180 111 202 116 q 224 120 265 120 l 265 120 l 597 120 l 597 201 l 258 201 q 204 201 166 193 q 128 185 102 169 l 102 169 q 74 152 60 125 q 45 98 45 63 l 45 63 q 45 28 59 -1 q 72 -30 101 -48 l 101 -48 q 124 -63 157 -71 q 189 -79 241 -79 l 241 -79 l 246 -79 q 311 -79 354 -85 q 397 -91 424 -104 q 451 -118 470 -138 l 470 -138 q 495 -165 504 -204 q 513 -243 513 -291 l 513 -291 q 513 -327 503 -362 q 493 -397 471 -426 q 448 -455 411 -472 q 373 -489 317 -489 l 317 -489 q 277 -489 246 -480 q 215 -472 192 -456 q 168 -440 152 -417 q 136 -395 127 -368 l 127 -368 q 126 -364 128 -360 q 129 -356 128 -353 l 128 -353 q 126 -343 125 -332 q 123 -321 123 -307 l 123 -307 q 123 -251 142 -221 q 160 -192 199 -192 l 199 -192 q 233 -192 249 -215 q 265 -239 265 -272 l 265 -272 q 265 -295 258 -312 q 251 -329 237 -338 q 222 -348 199 -348 l 199 -348 q 163 -348 139 -330 q 115 -312 96 -292 l 96 -292 l 56 -331 q 72 -352 97 -372 q 122 -393 153 -406 q 184 -420 219 -420 l 219 -420 q 268 -420 299 -399 q 330 -379 345 -346 q 360 -313 360 -273 l 360 -273 q 360 -231 343 -195 q 326 -160 291 -139 q 255 -118 200 -118 l 200 -118 q 151 -118 115 -140 q 78 -163 58 -207 q 37 -251 37 -315 l 37 -315 q 37 -370 56 -416 q 75 -462 113 -496 q 150 -530 204 -549 q 257 -568 326 -568 z"},"ഊ":{"ha":1366,"x_min":37,"x_max":1328,"o":"m 326 -568 l 326 -568 q 407 -568 462 -544 q 517 -521 551 -481 q 585 -441 600 -392 q 615 -343 615 -292 l 615 -292 q 615 -217 596 -161 q 576 -106 535 -71 l 535 -71 q 504 -44 466 -28 q 428 -13 379 -6 q 330 0 267 0 l 267 0 l 258 0 q 223 0 205 3 q 186 5 174 12 l 174 12 q 159 18 152 31 q 145 43 145 58 l 145 58 q 145 72 151 84 q 156 95 167 103 l 167 103 q 180 111 202 116 q 224 120 265 120 l 265 120 l 597 120 l 597 201 l 258 201 q 204 201 166 193 q 128 185 102 169 l 102 169 q 74 152 60 125 q 45 98 45 63 l 45 63 q 45 28 59 -1 q 72 -30 101 -48 l 101 -48 q 124 -63 157 -71 q 189 -79 241 -79 l 241 -79 l 246 -79 q 311 -79 354 -85 q 397 -91 424 -104 q 451 -118 470 -138 l 470 -138 q 495 -165 504 -204 q 513 -243 513 -291 l 513 -291 q 513 -327 503 -362 q 493 -397 471 -426 q 448 -455 411 -472 q 373 -489 317 -489 l 317 -489 q 277 -489 246 -480 q 215 -472 192 -456 q 168 -440 152 -417 q 136 -395 127 -368 l 127 -368 q 126 -364 128 -360 q 129 -356 128 -353 l 128 -353 q 126 -343 125 -332 q 123 -321 123 -307 l 123 -307 q 123 -251 142 -221 q 160 -192 199 -192 l 199 -192 q 233 -192 249 -215 q 265 -239 265 -272 l 265 -272 q 265 -295 258 -312 q 251 -329 237 -338 q 222 -348 199 -348 l 199 -348 q 163 -348 139 -330 q 115 -312 96 -292 l 96 -292 l 56 -331 q 72 -352 97 -372 q 122 -393 153 -406 q 184 -420 219 -420 l 219 -420 q 268 -420 299 -399 q 330 -379 345 -346 q 360 -313 360 -273 l 360 -273 q 360 -231 343 -195 q 326 -160 291 -139 q 255 -118 200 -118 l 200 -118 q 151 -118 115 -140 q 78 -163 58 -207 q 37 -251 37 -315 l 37 -315 q 37 -370 56 -416 q 75 -462 113 -496 q 150 -530 204 -549 q 257 -568 326 -568 z m 1134 -568 l 1134 -568 q 1196 -568 1240 -536 q 1283 -505 1306 -446 q 1329 -388 1329 -307 l 1329 -307 q 1329 -202 1298 -131 q 1267 -60 1207 -24 q 1147 12 1060 12 l 1060 12 q 998 12 948 0 q 898 -12 851 -36 l 851 -36 l 896 -112 q 931 -93 968 -81 q 1005 -70 1053 -70 l 1053 -70 q 1119 -70 1157 -99 q 1195 -128 1211 -180 q 1227 -233 1227 -305 l 1227 -305 q 1227 -399 1200 -443 q 1173 -488 1128 -488 l 1128 -488 q 1106 -488 1091 -480 q 1076 -472 1067 -457 l 1067 -457 q 1057 -442 1054 -419 q 1051 -396 1051 -351 l 1051 -351 l 1051 -260 l 951 -260 l 951 -341 q 951 -385 948 -412 q 944 -439 934 -454 l 934 -454 q 924 -472 908 -480 q 892 -488 872 -488 l 872 -488 q 829 -488 808 -457 q 786 -426 786 -381 l 786 -381 q 786 -348 790 -323 q 794 -298 800 -277 l 800 -277 l 705 -256 q 696 -285 691 -319 q 685 -354 685 -385 l 685 -385 q 685 -434 705 -475 q 724 -517 764 -542 q 803 -568 865 -568 l 865 -568 q 915 -568 949 -548 q 982 -529 1005 -492 l 1005 -492 l 992 -493 q 1018 -534 1053 -551 q 1088 -568 1134 -568 z"},"ഋ":{"ha":839,"x_min":35,"x_max":804,"o":"m 626 -568 l 626 -568 q 708 -568 756 -513 q 804 -458 804 -357 l 804 -357 q 804 -290 782 -239 q 759 -188 716 -152 l 716 -152 q 676 -117 617 -100 q 558 -83 469 -83 l 469 -83 l 371 -83 q 314 -83 271 -89 q 227 -95 195 -108 q 163 -122 137 -143 l 137 -143 q 87 -179 61 -232 q 35 -286 35 -355 l 35 -355 q 35 -420 58 -468 q 81 -516 123 -542 q 165 -568 224 -568 l 224 -568 q 279 -568 315 -545 q 351 -523 369 -486 q 387 -449 387 -404 l 387 -404 q 387 -356 369 -320 q 351 -284 317 -264 q 282 -244 231 -244 l 231 -244 q 192 -244 161 -257 q 130 -270 107 -289 q 83 -309 66 -328 l 66 -328 l 92 -398 q 108 -378 124 -360 q 139 -342 160 -331 q 181 -320 212 -320 l 212 -320 q 253 -320 272 -343 q 291 -366 291 -406 l 291 -406 q 291 -443 273 -467 q 254 -491 218 -491 l 218 -491 q 188 -491 168 -475 q 147 -460 137 -431 q 127 -403 127 -363 l 127 -363 q 127 -347 129 -332 q 131 -318 134 -304 l 134 -304 l 129 -287 q 143 -250 168 -225 q 192 -200 226 -185 q 260 -171 303 -164 q 346 -158 396 -158 l 396 -158 l 441 -158 q 493 -158 537 -164 q 580 -171 615 -185 q 650 -200 674 -225 q 698 -250 711 -288 l 711 -288 l 706 -305 q 709 -317 711 -332 q 713 -347 713 -358 l 713 -358 q 713 -403 703 -432 q 693 -462 674 -476 q 654 -491 626 -491 l 626 -491 q 588 -491 569 -467 q 549 -443 549 -404 l 549 -404 q 549 -365 568 -342 q 587 -320 627 -320 l 627 -320 q 657 -320 679 -330 q 700 -341 716 -358 q 732 -376 747 -395 l 747 -395 l 773 -327 q 757 -308 734 -289 q 710 -270 679 -257 q 648 -244 609 -244 l 609 -244 q 557 -244 523 -264 q 488 -285 471 -321 q 453 -357 453 -403 l 453 -403 q 453 -449 472 -486 q 491 -524 530 -546 q 568 -568 626 -568 z m 422 224 l 422 224 q 309 224 232 205 q 155 185 117 143 q 78 100 78 33 l 78 33 q 78 -12 101 -43 q 124 -75 164 -95 q 203 -115 255 -124 q 306 -133 362 -133 l 362 -133 l 474 -133 q 533 -133 585 -124 q 637 -115 677 -95 q 716 -75 739 -43 q 762 -11 762 35 l 762 35 q 762 95 727 138 q 692 180 617 202 q 541 224 422 224 z m 422 142 l 422 142 q 507 142 560 130 q 612 118 636 93 q 660 68 660 32 l 660 32 q 660 -2 642 -23 q 623 -45 591 -56 q 558 -68 516 -73 q 474 -78 427 -78 l 427 -78 l 411 -78 q 347 -78 295 -68 q 242 -59 211 -35 q 180 -11 180 31 l 180 31 q 180 69 204 94 q 228 119 282 131 q 335 142 422 142 z"},"ഌ":{"ha":1102,"x_min":39,"x_max":1065,"o":"m 340 -568 l 340 -568 q 418 -568 466 -542 q 514 -517 553 -468 l 553 -468 l 570 -400 l 584 -232 l 584 0 l 484 0 l 484 -303 q 484 -365 475 -399 q 465 -433 445 -453 l 445 -453 q 427 -470 403 -479 q 379 -488 339 -488 l 339 -488 q 277 -488 231 -457 q 184 -427 158 -371 q 132 -316 132 -243 l 132 -243 l 132 -228 q 132 -171 145 -135 q 157 -99 179 -82 q 200 -66 228 -66 l 228 -66 q 249 -66 264 -76 q 279 -87 288 -107 q 297 -128 297 -160 l 297 -160 q 297 -209 277 -232 q 256 -256 219 -256 l 219 -256 q 185 -256 156 -237 q 126 -219 98 -187 l 98 -187 l 81 -256 q 108 -287 150 -310 q 192 -333 241 -333 l 241 -333 q 288 -333 323 -313 q 357 -294 376 -257 q 394 -220 394 -166 l 394 -166 q 394 -109 374 -69 q 354 -29 317 -8 q 280 12 229 12 l 229 12 q 178 12 135 -13 q 92 -39 66 -95 q 39 -151 39 -241 l 39 -241 q 39 -350 79 -422 q 119 -495 188 -531 q 256 -568 340 -568 z m 863 12 l 863 12 q 800 12 760 -16 q 719 -45 700 -93 q 680 -142 680 -200 l 680 -200 q 680 -295 726 -350 q 772 -405 853 -405 l 853 -405 q 903 -405 940 -380 q 976 -355 999 -314 q 1022 -274 1030 -225 l 1030 -225 l 996 -221 q 990 -246 974 -270 q 958 -295 933 -311 q 908 -328 875 -328 l 875 -328 q 824 -328 801 -293 q 778 -259 778 -199 l 778 -199 q 778 -159 787 -129 q 796 -99 816 -82 q 835 -66 866 -66 l 866 -66 q 898 -66 921 -84 q 944 -102 956 -141 q 968 -181 968 -245 l 968 -245 q 968 -254 967 -271 q 965 -288 963 -304 l 963 -304 q 962 -310 962 -318 q 962 -327 960 -333 l 960 -333 q 954 -372 929 -407 q 904 -442 861 -465 q 818 -488 753 -488 l 753 -488 q 715 -488 686 -480 q 657 -472 634 -452 l 634 -452 q 618 -438 607 -417 q 596 -397 590 -366 q 584 -335 584 -286 l 584 -286 l 584 -207 l 522 -460 q 546 -491 577 -515 q 607 -540 650 -554 q 692 -568 754 -568 l 754 -568 q 831 -568 889 -544 q 947 -520 987 -475 q 1026 -431 1046 -371 q 1065 -312 1065 -241 l 1065 -241 q 1065 -150 1040 -94 q 1014 -38 969 -13 q 923 12 863 12 z"},"എ":{"ha":1194,"x_min":31,"x_max":1153,"o":"m 222 -351 l 222 -351 q 288 -351 330 -325 q 372 -299 393 -259 q 413 -219 413 -175 l 413 -175 q 413 -136 401 -106 q 388 -76 374 -61 l 374 -61 l 356 -79 l 810 -79 l 807 0 l 312 0 l 277 -54 q 293 -74 304 -99 q 315 -125 315 -163 l 315 -163 q 315 -212 292 -242 q 268 -272 223 -272 l 223 -272 q 193 -272 172 -258 q 151 -245 140 -221 q 129 -197 129 -168 l 129 -168 q 129 -128 143 -99 q 157 -70 181 -45 l 181 -45 l 113 8 q 77 -26 54 -70 q 31 -114 31 -170 l 31 -170 q 31 -224 55 -264 q 78 -305 122 -328 q 165 -351 222 -351 z m 846 -568 l 846 -568 q 920 -568 977 -543 q 1034 -518 1073 -468 q 1112 -419 1133 -346 q 1153 -273 1153 -177 l 1153 -177 q 1153 -105 1138 -33 q 1122 39 1092 106 q 1062 172 1016 228 l 1016 228 l 939 177 q 977 128 1002 73 q 1026 17 1038 -45 q 1049 -108 1049 -178 l 1049 -178 q 1049 -239 1039 -295 q 1028 -351 1005 -394 q 981 -438 942 -463 q 902 -488 843 -488 l 843 -488 q 772 -488 725 -445 q 678 -403 655 -325 q 631 -247 631 -143 l 631 -143 q 631 -116 632 -93 q 633 -70 635 -50 l 635 -50 q 635 -44 635 -39 q 635 -34 635 -28 l 635 -28 q 640 38 656 78 q 671 117 693 134 q 715 151 739 151 l 739 151 q 762 151 773 136 l 773 136 q 779 129 782 116 q 784 102 784 79 l 784 79 l 784 -401 l 884 -401 l 884 54 q 884 102 877 134 q 869 165 850 187 l 850 187 q 834 206 808 217 q 782 228 744 228 l 744 228 q 680 228 632 189 q 583 150 557 67 q 530 -16 530 -145 l 530 -145 q 530 -241 550 -319 q 570 -397 610 -452 q 650 -508 709 -538 q 768 -568 846 -568 z"},"ഏ":{"ha":1200,"x_min":31,"x_max":1169,"o":"m 222 -351 l 222 -351 q 288 -351 330 -325 q 372 -299 393 -259 q 413 -219 413 -175 l 413 -175 q 413 -136 401 -106 q 388 -76 374 -61 l 374 -61 l 353 -79 l 808 -79 l 807 0 l 312 0 l 277 -54 q 293 -74 304 -99 q 315 -125 315 -163 l 315 -163 q 315 -212 292 -242 q 268 -272 222 -272 l 222 -272 q 193 -272 172 -258 q 151 -245 140 -221 q 129 -197 129 -168 l 129 -168 q 129 -128 143 -99 q 157 -70 181 -45 l 181 -45 l 113 8 q 77 -26 54 -70 q 31 -114 31 -170 l 31 -170 q 31 -224 55 -264 q 78 -305 122 -328 q 165 -351 222 -351 z m 886 -568 l 886 -568 q 961 -568 1014 -548 q 1066 -529 1099 -495 q 1131 -462 1146 -420 q 1161 -379 1161 -335 l 1161 -335 q 1161 -285 1145 -247 q 1129 -210 1103 -184 q 1077 -158 1046 -140 l 1046 -140 l 1047 -149 q 1103 -126 1136 -82 q 1169 -39 1169 33 l 1169 33 q 1169 100 1146 144 q 1122 187 1080 208 q 1038 228 983 228 l 983 228 q 965 228 943 226 q 921 224 907 220 l 907 220 l 924 143 q 935 146 948 147 q 961 148 970 148 l 970 148 q 1003 148 1025 135 q 1046 122 1057 96 q 1068 70 1068 30 l 1068 30 q 1068 -26 1037 -62 q 1006 -99 942 -100 l 942 -100 l 942 -178 q 978 -187 1004 -205 q 1030 -224 1045 -255 q 1059 -286 1059 -332 l 1059 -332 q 1059 -374 1041 -409 q 1023 -444 985 -465 q 947 -487 883 -487 l 883 -487 q 793 -487 738 -443 q 682 -399 657 -321 q 631 -244 631 -143 l 631 -143 q 631 -116 632 -92 q 633 -69 635 -50 l 635 -50 q 635 -44 635 -39 q 635 -34 635 -28 l 635 -28 q 640 38 656 78 q 671 117 693 134 q 715 151 739 151 l 739 151 q 762 151 773 136 l 773 136 q 779 129 782 116 q 784 102 784 79 l 784 79 l 784 -401 l 884 -401 l 884 54 q 884 102 877 134 q 869 165 850 187 l 850 187 q 834 206 808 217 q 782 228 744 228 l 744 228 q 680 228 632 189 q 583 150 557 67 q 530 -16 530 -146 l 530 -146 q 530 -242 552 -319 q 574 -397 619 -452 q 664 -508 731 -538 q 797 -568 886 -568 z"},"ഐ":{"ha":1869,"x_min":37,"x_max":1827,"o":"m 226 12 l 226 12 q 176 12 133 -13 q 89 -39 63 -93 q 36 -148 36 -235 l 36 -235 q 36 -313 60 -374 q 83 -436 126 -479 q 168 -523 226 -545 q 284 -568 353 -568 l 353 -568 q 426 -568 480 -546 q 533 -525 568 -486 q 603 -447 620 -395 q 637 -344 637 -284 l 637 -284 q 637 -214 619 -160 q 600 -106 568 -64 q 536 -23 494 10 l 494 10 l 429 -54 q 458 -77 482 -108 q 506 -139 520 -180 q 534 -222 534 -276 l 534 -276 q 534 -342 513 -389 q 491 -436 450 -462 q 408 -488 347 -488 l 347 -488 q 284 -488 235 -455 q 185 -422 158 -364 q 130 -306 130 -231 l 130 -231 q 130 -172 142 -135 q 154 -99 176 -82 q 197 -66 225 -66 l 225 -66 q 246 -66 262 -76 q 277 -87 286 -107 q 294 -128 294 -160 l 294 -160 q 294 -208 274 -232 q 253 -256 217 -256 l 217 -256 q 183 -256 153 -238 q 123 -220 95 -187 l 95 -187 l 79 -256 q 105 -287 147 -310 q 189 -333 237 -333 l 237 -333 q 285 -333 320 -313 q 354 -294 373 -257 q 391 -220 391 -166 l 391 -166 q 391 -109 371 -69 q 351 -30 315 -9 q 278 12 226 12 z m 897 -351 l 897 -351 q 963 -351 1005 -325 q 1047 -299 1068 -259 q 1088 -219 1088 -175 l 1088 -175 q 1088 -136 1076 -106 q 1063 -76 1049 -61 l 1049 -61 l 1031 -79 l 1485 -79 l 1482 0 l 987 0 l 952 -54 q 968 -74 979 -99 q 990 -125 990 -163 l 990 -163 q 990 -212 967 -242 q 943 -272 898 -272 l 898 -272 q 868 -272 847 -258 q 826 -245 815 -221 q 804 -197 804 -168 l 804 -168 q 804 -128 818 -99 q 832 -70 856 -45 l 856 -45 l 788 8 q 752 -26 729 -70 q 706 -114 706 -170 l 706 -170 q 706 -224 730 -264 q 753 -305 797 -328 q 840 -351 897 -351 z m 1521 -568 l 1521 -568 q 1595 -568 1652 -543 q 1709 -518 1748 -468 q 1787 -419 1808 -346 q 1828 -273 1828 -177 l 1828 -177 q 1828 -105 1813 -33 q 1797 39 1767 106 q 1737 172 1691 228 l 1691 228 l 1614 177 q 1652 128 1677 73 q 1701 17 1713 -45 q 1724 -108 1724 -178 l 1724 -178 q 1724 -239 1714 -295 q 1703 -351 1680 -394 q 1656 -438 1617 -463 q 1577 -488 1518 -488 l 1518 -488 q 1447 -488 1400 -445 q 1353 -403 1330 -325 q 1306 -247 1306 -143 l 1306 -143 q 1306 -116 1307 -93 q 1308 -70 1310 -50 l 1310 -50 q 1310 -44 1310 -39 q 1310 -34 1310 -28 l 1310 -28 q 1315 38 1331 78 q 1346 117 1368 134 q 1390 151 1414 151 l 1414 151 q 1437 151 1448 136 l 1448 136 q 1454 129 1457 116 q 1459 102 1459 79 l 1459 79 l 1459 -401 l 1559 -401 l 1559 54 q 1559 102 1552 134 q 1544 165 1525 187 l 1525 187 q 1509 206 1483 217 q 1457 228 1419 228 l 1419 228 q 1355 228 1307 189 q 1258 150 1232 67 q 1205 -16 1205 -145 l 1205 -145 q 1205 -241 1225 -319 q 1245 -397 1285 -452 q 1325 -508 1384 -538 q 1443 -568 1521 -568 z"},"ഒ":{"ha":718,"x_min":37,"x_max":683,"o":"m 426 -568 l 426 -568 q 517 -568 571 -546 q 625 -525 650 -488 q 674 -451 674 -405 l 674 -405 q 674 -377 664 -352 q 654 -328 633 -308 q 612 -289 577 -275 l 577 -275 l 574 -281 q 627 -265 655 -228 q 683 -191 683 -141 l 683 -141 q 683 -70 638 -29 q 593 11 511 11 l 511 11 q 483 11 459 8 q 434 4 416 0 l 416 0 l 433 -76 q 448 -72 463 -69 q 478 -67 495 -67 l 495 -67 q 540 -67 561 -86 q 582 -106 582 -146 l 582 -146 q 582 -165 576 -181 q 569 -198 555 -210 l 555 -210 q 540 -223 518 -230 q 496 -237 456 -237 l 456 -237 l 441 -237 l 441 -316 l 456 -316 q 490 -316 513 -322 q 536 -329 552 -343 l 552 -343 q 563 -353 568 -366 q 573 -380 573 -397 l 573 -397 q 573 -440 537 -464 q 500 -488 421 -488 l 421 -488 q 357 -488 304 -470 q 250 -452 212 -419 q 173 -387 152 -341 q 131 -295 131 -238 l 131 -238 l 131 -225 q 131 -169 143 -133 q 155 -98 177 -82 q 198 -66 226 -66 l 226 -66 q 247 -66 263 -76 q 278 -86 287 -107 q 295 -128 295 -160 l 295 -160 q 295 -208 275 -232 q 254 -256 217 -256 l 217 -256 q 186 -256 158 -239 q 129 -223 103 -193 l 103 -193 l 94 -271 q 120 -295 158 -314 q 195 -333 238 -333 l 238 -333 q 286 -333 321 -313 q 355 -294 374 -257 q 392 -220 392 -166 l 392 -166 q 392 -109 372 -69 q 352 -29 315 -8 q 278 12 227 12 l 227 12 q 176 12 133 -13 q 89 -39 63 -92 q 37 -146 37 -230 l 37 -230 q 37 -308 64 -370 q 91 -433 142 -477 q 192 -522 264 -545 q 336 -568 426 -568 z"},"ഓ":{"ha":1201,"x_min":37,"x_max":1161,"o":"m 426 -568 l 426 -568 q 517 -568 571 -546 q 625 -525 650 -488 q 674 -451 674 -405 l 674 -405 q 674 -377 664 -352 q 654 -328 633 -308 q 612 -289 577 -275 l 577 -275 l 574 -281 q 627 -265 655 -228 q 683 -191 683 -141 l 683 -141 q 683 -70 638 -29 q 593 11 511 11 l 511 11 q 483 11 459 8 q 434 4 416 0 l 416 0 l 433 -76 q 448 -72 463 -69 q 478 -67 495 -67 l 495 -67 q 540 -67 561 -86 q 582 -106 582 -146 l 582 -146 q 582 -165 576 -181 q 569 -198 555 -210 l 555 -210 q 540 -223 518 -230 q 496 -237 456 -237 l 456 -237 l 441 -237 l 441 -316 l 456 -316 q 490 -316 513 -322 q 536 -329 552 -343 l 552 -343 q 563 -353 568 -366 q 573 -380 573 -397 l 573 -397 q 573 -440 537 -464 q 500 -488 421 -488 l 421 -488 q 357 -488 304 -470 q 250 -452 212 -419 q 173 -387 152 -341 q 131 -295 131 -238 l 131 -238 l 131 -225 q 131 -169 143 -133 q 155 -98 177 -82 q 198 -66 226 -66 l 226 -66 q 247 -66 263 -76 q 278 -86 287 -107 q 295 -128 295 -160 l 295 -160 q 295 -208 275 -232 q 254 -256 217 -256 l 217 -256 q 186 -256 158 -239 q 129 -223 103 -193 l 103 -193 l 94 -271 q 120 -295 158 -314 q 195 -333 238 -333 l 238 -333 q 286 -333 321 -313 q 355 -294 374 -257 q 392 -220 392 -166 l 392 -166 q 392 -109 372 -69 q 352 -29 315 -8 q 278 12 227 12 l 227 12 q 176 12 133 -13 q 89 -39 63 -92 q 37 -146 37 -230 l 37 -230 q 37 -308 64 -370 q 91 -433 142 -477 q 192 -522 264 -545 q 336 -568 426 -568 z m 1161 -280 l 1161 -280 q 1161 -219 1151 -166 q 1140 -113 1115 -73 q 1089 -33 1048 -10 q 1006 12 943 12 l 943 12 q 891 12 854 -4 q 817 -21 793 -48 q 768 -76 754 -108 q 740 -141 734 -173 l 734 -173 l 835 -192 q 841 -166 853 -136 q 864 -107 885 -86 q 906 -66 941 -66 l 941 -66 q 984 -66 1010 -92 q 1035 -118 1047 -166 q 1059 -214 1059 -279 l 1059 -279 q 1059 -344 1047 -391 q 1035 -439 1010 -464 q 985 -490 945 -490 l 945 -490 q 913 -490 891 -471 q 869 -452 857 -423 q 844 -395 838 -366 l 838 -366 l 737 -385 q 746 -418 762 -450 q 777 -483 802 -510 q 827 -537 864 -552 q 900 -568 952 -568 l 952 -568 q 1011 -568 1051 -545 q 1091 -523 1116 -483 q 1140 -444 1151 -391 q 1161 -339 1161 -280 z"},"ഔ":{"ha":1428,"x_min":37,"x_max":1391,"o":"m 426 -568 l 426 -568 q 517 -568 571 -546 q 625 -525 650 -488 q 674 -451 674 -405 l 674 -405 q 674 -377 664 -352 q 654 -328 633 -308 q 612 -289 577 -275 l 577 -275 l 574 -281 q 627 -265 655 -228 q 683 -191 683 -141 l 683 -141 q 683 -70 638 -29 q 593 11 511 11 l 511 11 q 483 11 459 8 q 434 4 416 0 l 416 0 l 433 -76 q 448 -72 463 -69 q 478 -67 495 -67 l 495 -67 q 540 -67 561 -86 q 582 -106 582 -146 l 582 -146 q 582 -165 576 -181 q 569 -198 555 -210 l 555 -210 q 540 -223 518 -230 q 496 -237 456 -237 l 456 -237 l 441 -237 l 441 -316 l 456 -316 q 490 -316 513 -322 q 536 -329 552 -343 l 552 -343 q 563 -353 568 -366 q 573 -380 573 -397 l 573 -397 q 573 -440 537 -464 q 500 -488 421 -488 l 421 -488 q 357 -488 304 -470 q 250 -452 212 -419 q 173 -387 152 -341 q 131 -295 131 -238 l 131 -238 l 131 -225 q 131 -169 143 -133 q 155 -98 177 -82 q 198 -66 226 -66 l 226 -66 q 247 -66 263 -76 q 278 -86 287 -107 q 295 -128 295 -160 l 295 -160 q 295 -208 275 -232 q 254 -256 217 -256 l 217 -256 q 186 -256 158 -239 q 129 -223 103 -193 l 103 -193 l 94 -271 q 120 -295 158 -314 q 195 -333 238 -333 l 238 -333 q 286 -333 321 -313 q 355 -294 374 -257 q 392 -220 392 -166 l 392 -166 q 392 -109 372 -69 q 352 -29 315 -8 q 278 12 227 12 l 227 12 q 176 12 133 -13 q 89 -39 63 -92 q 37 -146 37 -230 l 37 -230 q 37 -308 64 -370 q 91 -433 142 -477 q 192 -522 264 -545 q 336 -568 426 -568 z m 1196 -568 l 1196 -568 q 1258 -568 1302 -536 q 1345 -505 1368 -446 q 1391 -388 1391 -307 l 1391 -307 q 1391 -202 1360 -131 q 1329 -60 1269 -24 q 1209 12 1122 12 l 1122 12 q 1060 12 1010 0 q 960 -12 913 -36 l 913 -36 l 958 -112 q 993 -93 1030 -81 q 1067 -70 1115 -70 l 1115 -70 q 1181 -70 1219 -99 q 1257 -128 1273 -180 q 1289 -233 1289 -305 l 1289 -305 q 1289 -399 1262 -443 q 1235 -488 1190 -488 l 1190 -488 q 1168 -488 1153 -480 q 1138 -472 1129 -457 l 1129 -457 q 1119 -442 1116 -419 q 1113 -396 1113 -351 l 1113 -351 l 1113 -260 l 1013 -260 l 1013 -341 q 1013 -385 1010 -412 q 1006 -439 996 -454 l 996 -454 q 986 -472 970 -480 q 954 -488 934 -488 l 934 -488 q 891 -488 870 -457 q 848 -426 848 -381 l 848 -381 q 848 -348 852 -323 q 856 -298 862 -277 l 862 -277 l 767 -256 q 758 -285 753 -319 q 747 -354 747 -385 l 747 -385 q 747 -434 767 -475 q 786 -517 826 -542 q 865 -568 927 -568 l 927 -568 q 977 -568 1011 -548 q 1044 -529 1067 -492 l 1067 -492 l 1054 -493 q 1080 -534 1115 -551 q 1150 -568 1196 -568 z"},"ക":{"ha":981,"x_min":30,"x_max":950,"o":"m 206 12 l 206 12 q 121 12 76 -32 q 30 -77 30 -154 l 30 -154 q 30 -204 52 -238 q 74 -273 109 -294 l 109 -294 q 132 -307 161 -316 q 189 -325 229 -329 q 269 -333 328 -333 l 328 -333 l 665 -333 q 750 -333 800 -323 q 850 -313 885 -288 l 885 -288 q 915 -268 933 -235 q 950 -202 950 -153 l 950 -153 q 950 -76 904 -32 q 858 12 780 12 l 780 12 q 757 12 736 10 q 715 7 694 1 l 694 1 l 713 -75 q 725 -72 740 -70 q 754 -68 768 -68 l 768 -68 q 809 -68 831 -89 q 852 -111 852 -153 l 852 -153 q 852 -179 843 -197 q 833 -215 816 -227 l 816 -227 q 793 -243 760 -248 q 727 -254 666 -254 l 666 -254 l 311 -254 q 253 -254 221 -249 q 188 -244 164 -228 l 164 -228 q 148 -217 138 -199 q 128 -181 128 -156 l 128 -156 q 128 -127 139 -107 q 149 -87 169 -77 q 189 -67 217 -67 l 217 -67 q 246 -67 273 -77 q 300 -87 332 -111 l 332 -111 l 381 -46 q 352 -25 325 -12 q 297 1 269 7 q 240 12 206 12 z m 493 -568 l 493 -568 q 571 -568 620 -532 q 669 -496 693 -431 q 717 -366 717 -280 l 717 -280 q 717 -183 690 -118 q 663 -53 613 -20 q 563 12 494 12 l 494 12 q 439 12 398 -7 q 356 -27 327 -62 l 327 -62 q 297 -102 283 -157 q 268 -213 268 -281 l 268 -281 q 268 -419 328 -493 q 388 -568 493 -568 z m 493 -490 l 493 -490 q 429 -490 398 -438 q 367 -387 367 -279 l 367 -279 q 367 -207 381 -159 q 395 -112 423 -89 q 451 -67 492 -67 l 492 -67 q 533 -67 561 -89 q 589 -111 604 -158 q 618 -206 618 -279 l 618 -279 q 618 -352 604 -399 q 590 -446 562 -468 q 534 -490 493 -490 z"},"ഖ":{"ha":944,"x_min":38,"x_max":880,"o":"m 355 -568 l 355 -568 q 428 -568 482 -546 q 535 -525 570 -486 q 604 -448 621 -397 q 638 -346 638 -286 l 638 -286 q 638 -233 626 -190 q 614 -148 594 -113 q 574 -79 548 -48 l 548 -48 l 541 0 l 482 0 l 440 -56 q 465 -82 487 -113 q 508 -144 522 -184 q 535 -224 535 -277 l 535 -277 q 535 -344 513 -390 q 491 -437 449 -462 q 407 -488 349 -488 l 349 -488 q 284 -488 235 -455 q 186 -422 159 -366 q 131 -310 131 -240 l 131 -240 l 131 -226 q 131 -170 143 -134 q 155 -98 177 -82 q 198 -66 226 -66 l 226 -66 q 247 -66 263 -76 q 278 -87 287 -107 q 296 -128 296 -160 l 296 -160 q 296 -208 275 -232 q 254 -256 218 -256 l 218 -256 q 186 -256 158 -239 q 130 -223 103 -193 l 103 -193 l 94 -271 q 120 -295 158 -314 q 195 -333 239 -333 l 239 -333 q 287 -333 321 -313 q 355 -294 374 -257 q 392 -220 392 -166 l 392 -166 q 392 -109 373 -69 q 353 -29 316 -8 q 279 12 228 12 l 228 12 q 177 12 134 -13 q 90 -39 64 -94 q 38 -149 38 -237 l 38 -237 q 38 -342 79 -416 q 120 -490 192 -529 q 264 -568 355 -568 z m 780 -556 l 880 -556 l 880 0 l 512 0 l 539 -79 l 780 -79 l 780 -556 z"},"ഗ":{"ha":840,"x_min":37,"x_max":803,"o":"m 576 -568 l 576 -568 q 646 -568 697 -535 q 748 -503 776 -443 q 803 -383 803 -299 l 803 -299 q 803 -231 787 -175 q 771 -120 742 -75 q 712 -30 670 10 l 670 10 l 599 -52 q 630 -81 653 -116 q 675 -152 688 -196 q 701 -240 701 -295 l 701 -295 q 701 -355 685 -398 q 669 -442 641 -465 q 613 -488 575 -488 l 575 -488 q 545 -488 526 -477 q 507 -467 496 -450 l 496 -450 q 482 -428 477 -393 q 471 -358 471 -290 l 471 -290 l 471 -231 q 471 -188 466 -154 q 461 -120 450 -93 q 439 -67 419 -46 l 419 -46 q 394 -18 357 -3 q 319 12 266 12 l 266 12 q 195 12 144 -20 q 93 -53 65 -113 q 37 -174 37 -259 l 37 -259 q 37 -329 53 -384 q 69 -439 100 -484 q 130 -530 171 -569 l 171 -569 l 242 -507 q 211 -478 188 -442 q 165 -406 153 -361 q 140 -317 140 -262 l 140 -262 q 140 -201 156 -157 q 171 -114 199 -91 q 227 -69 263 -69 l 263 -69 q 296 -69 315 -78 q 333 -88 345 -106 l 345 -106 q 360 -128 365 -165 q 369 -202 369 -269 l 369 -269 l 369 -326 q 369 -391 382 -435 q 394 -479 422 -510 l 422 -510 q 448 -538 484 -553 q 520 -568 576 -568 z"},"ഘ":{"ha":1248,"x_min":31,"x_max":1183,"o":"m 222 -568 l 222 -568 q 288 -568 330 -542 q 372 -517 393 -477 q 413 -437 413 -393 l 413 -393 q 413 -355 401 -325 q 389 -296 375 -281 l 375 -281 l 358 -299 l 547 -299 l 558 -220 l 313 -220 l 277 -274 q 293 -293 304 -319 q 315 -345 315 -382 l 315 -382 q 315 -431 292 -460 q 268 -490 223 -490 l 223 -490 q 193 -490 172 -476 q 151 -463 140 -439 q 129 -416 129 -386 l 129 -386 q 129 -347 143 -318 q 156 -290 180 -264 l 180 -264 l 112 -211 q 76 -246 54 -289 q 31 -333 31 -389 l 31 -389 q 31 -443 55 -483 q 78 -524 122 -546 q 165 -568 222 -568 z m 1083 -556 l 1183 -556 l 1183 0 l 499 0 l 499 -316 q 499 -391 515 -434 q 530 -477 557 -506 l 557 -506 q 586 -536 629 -552 q 671 -568 727 -568 l 727 -568 q 784 -568 826 -552 q 868 -537 896 -508 l 896 -508 q 927 -476 940 -431 q 953 -386 953 -322 l 953 -322 l 953 -220 l 599 -220 l 599 -79 l 1083 -79 l 1083 -556 z m 726 -490 l 726 -490 q 659 -490 629 -449 q 599 -408 599 -325 l 599 -325 l 599 -299 l 853 -299 l 853 -325 q 853 -410 823 -450 q 792 -490 726 -490 z"},"ങ":{"ha":1001,"x_min":39,"x_max":966,"o":"m 340 -568 l 340 -568 q 418 -568 467 -542 q 515 -516 553 -466 l 553 -466 l 569 -397 l 584 -238 l 584 0 l 484 0 l 484 -303 q 484 -365 475 -399 q 465 -433 445 -453 l 445 -453 q 427 -470 403 -479 q 379 -488 339 -488 l 339 -488 q 277 -488 231 -457 q 184 -427 158 -371 q 132 -316 132 -243 l 132 -243 l 132 -228 q 132 -171 145 -135 q 157 -99 179 -82 q 200 -66 228 -66 l 228 -66 q 249 -66 264 -76 q 279 -87 288 -107 q 297 -128 297 -160 l 297 -160 q 297 -209 277 -232 q 256 -256 219 -256 l 219 -256 q 185 -256 156 -237 q 126 -219 98 -187 l 98 -187 l 81 -256 q 108 -287 150 -310 q 192 -333 241 -333 l 241 -333 q 288 -333 323 -313 q 357 -294 376 -257 q 394 -220 394 -166 l 394 -166 q 394 -109 374 -69 q 354 -29 317 -8 q 280 12 229 12 l 229 12 q 178 12 135 -13 q 92 -39 66 -95 q 39 -151 39 -241 l 39 -241 q 39 -350 79 -422 q 119 -495 188 -531 q 256 -568 340 -568 z m 757 -568 l 757 -568 q 822 -568 867 -547 q 911 -527 934 -491 q 957 -456 957 -413 l 957 -413 q 957 -381 948 -355 q 938 -330 917 -310 q 895 -290 860 -275 l 860 -275 l 858 -281 q 910 -265 938 -228 q 966 -191 966 -141 l 966 -141 q 966 -70 921 -29 q 876 11 794 11 l 794 11 q 765 11 741 8 q 717 4 699 0 l 699 0 l 716 -76 q 733 -72 748 -69 q 762 -67 778 -67 l 778 -67 q 821 -67 843 -85 q 865 -103 865 -146 l 865 -146 q 865 -165 859 -181 q 852 -198 838 -210 l 838 -210 q 823 -223 801 -230 q 779 -237 738 -237 l 738 -237 l 717 -237 l 717 -316 l 738 -316 q 771 -316 795 -322 q 819 -329 834 -344 l 834 -344 q 845 -354 851 -369 q 856 -384 856 -403 l 856 -403 q 856 -446 828 -467 q 800 -488 754 -488 l 754 -488 q 714 -488 685 -476 q 655 -465 635 -443 l 635 -443 q 619 -426 608 -402 q 596 -379 590 -344 q 584 -310 584 -257 l 584 -257 l 584 -125 l 502 -127 l 498 -264 l 518 -420 q 536 -463 569 -496 q 601 -530 649 -549 q 696 -568 757 -568 z"},"ച":{"ha":874,"x_min":18,"x_max":809,"o":"m 709 -556 l 809 -556 l 809 0 l 18 0 l 18 -79 l 409 -79 l 352 -64 q 374 -81 393 -112 q 412 -143 412 -190 l 412 -190 q 412 -237 391 -265 q 370 -293 328 -293 l 328 -293 q 286 -293 265 -266 q 243 -240 243 -193 l 243 -193 q 243 -182 244 -171 q 245 -161 246 -154 l 246 -154 l 149 -144 q 148 -154 146 -170 q 143 -186 143 -202 l 143 -202 q 143 -280 193 -325 q 243 -371 329 -371 l 329 -371 q 380 -371 415 -356 q 449 -341 470 -316 q 491 -291 501 -259 q 510 -228 510 -197 l 510 -197 q 510 -167 503 -142 q 496 -118 484 -97 q 472 -77 457 -61 l 457 -61 l 434 -79 l 709 -79 l 709 -556 z"},"ഛ":{"ha":1264,"x_min":18,"x_max":1226,"o":"m 329 -371 l 329 -371 q 380 -371 415 -356 q 449 -341 470 -316 q 491 -291 501 -259 q 510 -228 510 -197 l 510 -197 q 510 -167 503 -142 q 496 -118 484 -97 q 472 -77 457 -61 l 457 -61 l 434 -79 l 709 -79 l 742 0 l 18 0 l 18 -79 l 409 -79 l 352 -64 q 374 -81 393 -112 q 412 -143 412 -190 l 412 -190 q 412 -237 391 -265 q 370 -293 328 -293 l 328 -293 q 286 -293 265 -266 q 243 -240 243 -193 l 243 -193 q 243 -182 244 -171 q 245 -161 246 -154 l 246 -154 l 149 -144 q 148 -154 146 -170 q 143 -186 143 -202 l 143 -202 q 143 -280 193 -325 q 243 -371 329 -371 z m 908 -568 l 908 -568 q 988 -568 1048 -544 q 1107 -520 1147 -475 q 1186 -431 1206 -371 q 1226 -311 1226 -240 l 1226 -240 q 1226 -150 1201 -94 q 1175 -38 1130 -13 q 1084 12 1025 12 l 1025 12 q 962 12 921 -16 q 880 -45 861 -93 q 841 -142 841 -200 l 841 -200 q 841 -295 887 -350 q 933 -405 1014 -405 l 1014 -405 q 1064 -405 1101 -380 q 1137 -355 1160 -314 q 1183 -274 1191 -225 l 1191 -225 l 1157 -221 q 1151 -246 1135 -270 q 1118 -295 1094 -311 q 1069 -328 1036 -328 l 1036 -328 q 985 -328 962 -293 q 939 -259 939 -199 l 939 -199 q 939 -159 948 -129 q 957 -99 977 -82 q 996 -66 1027 -66 l 1027 -66 q 1059 -66 1082 -84 q 1105 -102 1117 -141 q 1129 -181 1129 -245 l 1129 -245 q 1129 -251 1128 -270 q 1126 -290 1123 -309 l 1123 -309 q 1122 -314 1122 -321 q 1122 -329 1120 -333 l 1120 -333 q 1113 -375 1087 -410 q 1061 -445 1018 -466 q 974 -488 913 -488 l 913 -488 q 847 -488 801 -462 q 755 -437 731 -390 q 706 -344 706 -278 l 706 -278 q 706 -228 719 -188 q 731 -149 753 -116 q 775 -84 802 -57 l 802 -57 l 761 0 l 719 0 l 704 -40 q 678 -69 655 -105 q 631 -141 617 -186 q 603 -231 603 -285 l 603 -285 q 603 -341 621 -392 q 639 -443 677 -483 q 714 -523 772 -545 q 829 -568 908 -568 z"},"ജ":{"ha":876,"x_min":34,"x_max":837,"o":"m 279 -568 l 279 -568 q 332 -568 371 -557 q 409 -547 439 -526 q 468 -505 493 -473 l 493 -473 l 460 -478 q 491 -523 533 -545 q 574 -568 634 -568 l 634 -568 q 706 -568 751 -540 q 795 -512 816 -468 q 837 -424 837 -375 l 837 -375 q 837 -333 826 -301 q 814 -269 792 -246 q 770 -223 737 -206 l 737 -206 l 594 -178 l 521 -169 q 495 -165 458 -163 q 420 -161 387 -161 l 387 -161 l 237 -161 q 199 -161 181 -158 q 162 -155 151 -149 l 151 -149 q 139 -143 134 -134 q 129 -125 129 -113 l 129 -113 q 129 -94 138 -83 q 147 -72 163 -67 q 178 -62 195 -62 l 195 -62 q 229 -62 261 -69 q 292 -76 325 -89 q 358 -102 396 -120 l 396 -120 q 420 -131 443 -140 q 466 -150 488 -158 q 509 -166 529 -173 q 549 -180 567 -185 l 567 -185 q 587 -191 602 -199 q 616 -207 629 -214 q 641 -221 654 -225 q 666 -230 681 -230 l 681 -230 q 716 -230 746 -219 q 776 -208 795 -182 q 814 -157 814 -113 l 814 -113 q 814 -54 777 -21 q 739 12 672 12 l 672 12 q 618 12 587 -7 q 555 -26 541 -56 q 527 -86 527 -118 l 527 -118 q 527 -151 543 -174 q 559 -198 584 -210 l 584 -210 l 654 -217 q 644 -209 634 -196 q 623 -184 615 -166 q 607 -148 607 -122 l 607 -122 q 607 -87 624 -71 q 641 -55 669 -55 l 669 -55 q 702 -55 715 -72 q 728 -90 728 -115 l 728 -115 q 728 -136 721 -149 q 713 -162 699 -168 q 685 -174 668 -174 l 668 -174 q 646 -174 627 -165 q 608 -156 587 -138 l 587 -138 l 580 -150 q 568 -138 552 -124 q 535 -111 514 -97 q 492 -83 464 -69 l 464 -69 q 413 -43 369 -24 q 324 -6 281 3 q 238 12 191 12 l 191 12 q 149 12 113 0 q 77 -12 56 -39 q 34 -66 34 -111 l 34 -111 q 34 -142 47 -167 q 60 -192 87 -208 l 87 -208 q 108 -220 139 -226 q 170 -233 227 -233 l 227 -233 l 510 -233 q 558 -233 592 -236 q 626 -240 651 -247 q 675 -255 693 -267 l 693 -267 q 716 -283 728 -308 q 739 -334 739 -370 l 739 -370 q 739 -399 728 -427 q 717 -455 692 -473 q 667 -491 624 -491 l 624 -491 q 598 -491 580 -483 q 562 -476 550 -462 l 550 -462 q 532 -443 526 -410 q 520 -378 520 -326 l 520 -326 l 520 -261 l 426 -261 l 426 -322 q 426 -368 419 -403 q 411 -438 384 -463 l 384 -463 q 369 -477 344 -486 q 318 -496 276 -496 l 276 -496 q 233 -496 198 -487 q 162 -478 140 -455 l 140 -455 q 137 -451 135 -444 q 133 -438 131 -432 l 131 -432 q 125 -419 123 -407 q 121 -396 121 -381 l 121 -381 q 121 -340 139 -323 q 156 -307 183 -307 l 183 -307 q 206 -307 219 -316 q 231 -325 236 -339 q 241 -354 241 -370 l 241 -370 q 241 -399 226 -414 q 211 -429 180 -429 l 180 -429 q 151 -429 128 -416 q 104 -404 88 -390 l 88 -390 l 72 -422 q 95 -448 131 -463 q 166 -479 206 -479 l 206 -479 q 246 -479 273 -464 q 299 -450 313 -424 q 326 -399 326 -366 l 326 -366 q 326 -332 312 -303 q 297 -275 266 -258 q 235 -241 185 -241 l 185 -241 q 117 -241 79 -278 q 40 -316 40 -385 l 40 -385 q 40 -438 68 -479 q 95 -521 149 -544 q 202 -568 279 -568 z"},"ഝ":{"ha":1555,"x_min":37,"x_max":1518,"o":"m 626 -568 l 626 -568 q 685 -568 729 -554 q 772 -541 804 -514 l 804 -514 q 844 -480 863 -427 q 881 -375 881 -289 l 881 -289 l 881 -235 q 881 -183 887 -152 q 893 -121 908 -101 l 908 -101 q 920 -85 938 -77 q 955 -69 980 -69 l 980 -69 q 1004 -69 1022 -77 q 1040 -86 1052 -101 l 1052 -101 q 1067 -121 1074 -151 q 1080 -182 1080 -238 l 1080 -238 l 1080 -556 l 1179 -556 l 1179 -248 q 1179 -191 1185 -159 q 1190 -128 1204 -108 l 1204 -108 q 1218 -88 1239 -78 q 1259 -69 1284 -69 l 1284 -69 q 1322 -69 1352 -93 q 1381 -117 1398 -160 q 1415 -204 1415 -262 l 1415 -262 q 1415 -317 1402 -361 q 1389 -405 1366 -440 q 1343 -476 1313 -504 l 1313 -504 l 1386 -566 q 1425 -528 1455 -484 q 1484 -441 1501 -386 q 1518 -331 1518 -259 l 1518 -259 q 1518 -182 1491 -120 q 1463 -59 1412 -23 q 1361 12 1287 12 l 1287 12 q 1229 12 1191 -10 q 1153 -32 1123 -75 l 1123 -75 l 1132 -75 q 1116 -49 1094 -29 q 1071 -10 1041 1 q 1011 12 972 12 l 972 12 q 925 12 890 -2 q 855 -16 831 -43 l 831 -43 q 816 -61 805 -84 q 793 -108 787 -143 q 780 -179 780 -232 l 780 -232 l 780 -276 q 780 -323 775 -356 q 769 -390 757 -414 q 745 -439 727 -455 l 727 -455 q 708 -472 681 -482 q 654 -492 617 -492 l 617 -492 q 599 -492 578 -489 q 557 -486 536 -478 l 536 -478 l 513 -466 q 475 -448 447 -412 q 418 -376 402 -327 q 385 -279 385 -221 l 385 -221 q 385 -159 399 -126 q 412 -93 434 -80 q 455 -67 480 -67 l 480 -67 q 505 -67 527 -80 q 548 -93 561 -126 q 574 -159 574 -219 l 574 -219 q 574 -276 558 -325 q 541 -374 512 -411 q 483 -448 443 -468 l 443 -468 l 424 -477 q 405 -485 386 -488 q 366 -491 343 -491 l 343 -491 q 277 -491 232 -463 q 186 -436 163 -388 q 140 -341 140 -278 l 140 -278 q 140 -226 153 -185 q 166 -145 190 -112 q 213 -80 245 -54 l 245 -54 l 180 10 q 140 -20 108 -61 q 76 -102 57 -157 q 37 -212 37 -282 l 37 -282 q 37 -340 55 -391 q 73 -443 110 -483 q 146 -523 202 -545 q 257 -568 333 -568 l 333 -568 q 381 -568 420 -558 q 459 -549 496 -526 l 496 -526 l 519 -510 q 589 -468 633 -394 q 676 -320 676 -219 l 676 -219 q 676 -145 653 -93 q 630 -42 587 -15 q 543 12 479 12 l 479 12 q 417 12 373 -15 q 329 -43 307 -95 q 284 -147 284 -220 l 284 -220 q 284 -286 303 -339 q 322 -393 357 -435 q 392 -478 439 -508 l 439 -508 l 461 -525 q 501 -548 543 -558 q 584 -568 626 -568 z"},"ഞ":{"ha":1367,"x_min":39,"x_max":1330,"o":"m 340 -568 l 340 -568 q 418 -568 467 -542 q 515 -516 553 -466 l 553 -466 l 557 -434 l 584 -242 l 584 0 l 484 0 l 484 -303 q 484 -366 475 -399 q 465 -433 445 -453 l 445 -453 q 427 -470 403 -479 q 379 -488 339 -488 l 339 -488 q 277 -488 231 -457 q 184 -427 158 -371 q 132 -316 132 -243 l 132 -243 l 132 -228 q 132 -171 145 -134 q 157 -98 179 -82 q 200 -66 228 -66 l 228 -66 q 249 -66 264 -76 q 279 -87 288 -107 q 297 -128 297 -160 l 297 -160 q 297 -209 277 -232 q 256 -256 219 -256 l 219 -256 q 185 -256 156 -237 q 126 -219 98 -187 l 98 -187 l 81 -256 q 108 -287 150 -310 q 192 -333 241 -333 l 241 -333 q 288 -333 323 -313 q 357 -294 376 -257 q 394 -220 394 -166 l 394 -166 q 394 -109 374 -69 q 354 -29 317 -8 q 280 12 229 12 l 229 12 q 178 12 135 -13 q 92 -39 66 -95 q 39 -151 39 -241 l 39 -241 q 39 -350 79 -422 q 119 -495 188 -531 q 256 -568 340 -568 z m 746 -568 l 746 -568 q 792 -568 831 -558 q 869 -549 905 -527 l 905 -527 l 929 -510 q 997 -467 1040 -394 q 1082 -321 1082 -219 l 1082 -219 q 1082 -145 1060 -93 q 1037 -42 993 -15 q 949 12 886 12 l 886 12 q 823 12 779 -15 q 735 -43 713 -95 q 690 -147 690 -220 l 690 -220 q 690 -286 711 -339 q 731 -393 767 -435 q 803 -478 851 -508 l 851 -508 l 872 -524 q 909 -547 952 -557 q 995 -568 1048 -568 l 1048 -568 q 1121 -568 1175 -545 q 1228 -523 1263 -483 q 1297 -444 1314 -392 q 1330 -340 1330 -281 l 1330 -281 q 1330 -213 1312 -159 q 1293 -106 1261 -64 q 1229 -23 1187 10 l 1187 10 l 1122 -54 q 1151 -77 1175 -108 q 1198 -139 1213 -180 q 1227 -221 1227 -275 l 1227 -275 q 1227 -337 1206 -386 q 1184 -435 1142 -463 q 1100 -491 1038 -491 l 1038 -491 q 1011 -491 989 -488 q 966 -485 945 -476 l 945 -476 l 923 -465 q 884 -447 854 -410 q 824 -374 808 -326 q 792 -278 792 -221 l 792 -221 q 792 -159 805 -126 q 818 -93 840 -80 q 861 -67 886 -67 l 886 -67 q 912 -67 934 -80 q 955 -93 968 -126 q 981 -159 981 -219 l 981 -219 q 981 -276 966 -325 q 950 -374 922 -410 q 893 -447 855 -467 l 855 -467 l 834 -476 q 823 -482 811 -485 q 798 -488 784 -489 q 769 -491 749 -491 l 749 -491 q 705 -491 677 -479 q 649 -468 632 -451 l 632 -451 q 607 -426 596 -388 q 584 -351 584 -287 l 584 -287 l 584 -16 l 489 -16 l 489 -240 l 522 -459 q 545 -490 575 -515 q 605 -540 647 -554 q 688 -568 746 -568 z"},"ട":{"ha":527,"x_min":17,"x_max":503,"o":"m 259 -568 l 259 -568 q 336 -568 395 -552 q 454 -536 503 -511 l 503 -511 l 455 -437 q 414 -460 368 -473 q 321 -487 261 -487 l 261 -487 q 214 -487 186 -475 q 157 -464 144 -444 q 131 -425 131 -403 l 131 -403 q 131 -384 136 -371 q 141 -358 151 -349 l 151 -349 q 168 -333 199 -328 q 229 -323 271 -323 l 271 -323 l 283 -323 q 352 -323 395 -308 q 437 -293 462 -263 l 462 -263 q 479 -244 488 -218 q 496 -192 496 -161 l 496 -161 q 496 -110 470 -71 q 444 -32 393 -10 q 341 12 263 12 l 263 12 q 190 12 130 -4 q 69 -20 17 -49 l 17 -49 l 64 -122 q 93 -106 123 -94 q 153 -82 188 -75 q 222 -69 262 -69 l 262 -69 q 310 -69 339 -81 q 368 -93 381 -113 q 394 -133 394 -157 l 394 -157 q 394 -177 388 -193 q 382 -209 368 -220 l 368 -220 q 354 -231 331 -236 q 308 -241 264 -241 l 264 -241 l 254 -241 q 191 -241 142 -254 q 92 -268 66 -298 l 66 -298 q 48 -316 39 -341 q 30 -367 30 -401 l 30 -401 q 30 -449 56 -487 q 81 -525 132 -546 q 183 -568 259 -568 z"},"ഠ":{"ha":618,"x_min":37,"x_max":581,"o":"m 309 -568 l 309 -568 q 393 -568 454 -533 q 515 -499 548 -434 q 581 -369 581 -277 l 581 -277 q 581 -188 548 -123 q 515 -58 455 -23 q 394 12 308 12 l 308 12 q 216 12 156 -27 q 96 -66 67 -132 q 37 -199 37 -280 l 37 -280 q 37 -369 70 -434 q 103 -499 164 -533 q 225 -568 309 -568 z m 308 -69 l 308 -69 q 365 -69 402 -95 q 439 -122 458 -169 q 477 -217 477 -279 l 477 -279 q 477 -342 458 -389 q 439 -436 402 -462 q 365 -488 310 -488 l 310 -488 q 230 -488 185 -433 q 140 -378 140 -279 l 140 -279 q 140 -181 184 -125 q 228 -69 308 -69 z"},"ഡ":{"ha":1145,"x_min":37,"x_max":1108,"o":"m 561 12 l 561 12 q 515 12 481 -2 q 446 -16 421 -43 l 421 -43 q 405 -61 394 -84 q 382 -107 376 -142 q 369 -178 369 -233 l 369 -233 l 369 -300 q 369 -357 365 -393 q 360 -429 345 -450 l 345 -450 q 334 -468 315 -478 q 296 -488 263 -488 l 263 -488 q 227 -488 199 -465 q 171 -443 156 -399 q 140 -356 140 -294 l 140 -294 q 140 -240 153 -195 q 165 -150 188 -115 q 211 -80 241 -50 l 241 -50 l 171 12 q 130 -28 100 -73 q 69 -118 53 -173 q 37 -229 37 -298 l 37 -298 q 37 -382 65 -442 q 93 -503 145 -535 q 196 -568 268 -568 l 268 -568 q 319 -568 357 -553 q 394 -539 418 -512 l 418 -512 q 438 -490 449 -463 q 460 -436 465 -402 q 470 -369 470 -325 l 470 -325 l 470 -243 q 470 -184 476 -152 q 481 -120 496 -100 l 496 -100 q 508 -85 526 -77 q 544 -69 570 -69 l 570 -69 q 593 -69 612 -77 q 630 -86 642 -101 l 642 -101 q 657 -121 664 -151 q 670 -181 670 -237 l 670 -237 l 670 -556 l 770 -556 l 770 -247 q 770 -190 775 -159 q 780 -128 794 -108 l 794 -108 q 808 -88 829 -78 q 849 -68 874 -68 l 874 -68 q 912 -68 942 -92 q 972 -117 989 -160 q 1005 -204 1005 -262 l 1005 -262 q 1005 -318 992 -361 q 979 -405 956 -440 q 933 -476 904 -503 l 904 -503 l 976 -566 q 1015 -528 1045 -484 q 1074 -441 1091 -385 q 1108 -330 1108 -258 l 1108 -258 q 1108 -182 1081 -120 q 1054 -59 1003 -23 q 951 12 877 12 l 877 12 q 820 12 782 -10 q 744 -32 713 -75 l 713 -75 l 723 -75 q 695 -33 657 -10 q 619 12 561 12 z"},"ഢ":{"ha":1254,"x_min":37,"x_max":1215,"o":"m 561 12 l 561 12 q 515 12 481 -2 q 446 -16 421 -43 l 421 -43 q 405 -61 394 -84 q 382 -107 376 -143 q 369 -179 369 -234 l 369 -234 l 369 -301 q 369 -357 365 -393 q 360 -429 345 -451 l 345 -451 q 334 -468 315 -478 q 296 -488 263 -488 l 263 -488 q 227 -488 199 -465 q 171 -443 156 -400 q 140 -357 140 -295 l 140 -295 q 140 -240 153 -195 q 165 -151 188 -115 q 211 -80 241 -50 l 241 -50 l 171 12 q 130 -28 100 -73 q 69 -119 53 -174 q 37 -229 37 -299 l 37 -299 q 37 -383 65 -443 q 93 -503 145 -535 q 196 -568 268 -568 l 268 -568 q 319 -568 357 -553 q 394 -539 418 -512 l 418 -512 q 438 -490 449 -463 q 460 -437 465 -403 q 470 -369 470 -325 l 470 -325 l 470 -242 q 470 -184 476 -152 q 481 -121 496 -100 l 496 -100 q 508 -85 526 -77 q 544 -69 570 -69 l 570 -69 q 593 -69 612 -77 q 630 -86 642 -101 l 642 -101 q 657 -121 664 -151 q 670 -181 670 -238 l 670 -238 l 670 -556 l 770 -556 l 770 -279 l 723 -75 q 696 -34 658 -11 q 619 12 561 12 z m 1027 -568 l 1027 -568 q 1077 -568 1120 -543 q 1162 -518 1189 -462 q 1215 -407 1215 -315 l 1215 -315 q 1215 -208 1175 -135 q 1135 -62 1067 -25 q 999 12 914 12 l 914 12 q 837 12 790 -13 q 743 -38 705 -84 l 705 -84 l 684 -294 l 684 -523 l 770 -523 l 770 -255 q 770 -190 780 -157 q 789 -124 809 -104 l 809 -104 q 827 -87 852 -78 q 876 -69 915 -69 l 915 -69 q 977 -69 1024 -99 q 1070 -130 1096 -185 q 1122 -241 1122 -314 l 1122 -314 l 1122 -329 q 1122 -388 1110 -423 q 1097 -459 1076 -475 q 1054 -491 1026 -491 l 1026 -491 q 1006 -491 991 -480 q 975 -470 967 -449 q 958 -429 958 -397 l 958 -397 q 958 -348 978 -324 q 998 -301 1035 -301 l 1035 -301 q 1070 -301 1100 -319 q 1129 -337 1157 -370 l 1157 -370 l 1173 -300 q 1147 -269 1105 -246 q 1063 -224 1014 -224 l 1014 -224 q 967 -224 933 -243 q 898 -263 880 -300 q 861 -338 861 -392 l 861 -392 q 861 -447 881 -486 q 900 -526 938 -547 q 975 -568 1027 -568 z"},"ണ":{"ha":1277,"x_min":39,"x_max":1240,"o":"m 340 -568 l 340 -568 q 418 -568 466 -542 q 514 -517 550 -471 l 550 -471 l 527 -478 q 557 -524 599 -546 q 641 -568 693 -568 l 693 -568 q 754 -568 792 -545 q 830 -523 855 -482 l 855 -482 l 843 -479 q 877 -527 917 -547 q 957 -568 1012 -568 l 1012 -568 q 1085 -568 1136 -533 q 1187 -498 1214 -437 q 1240 -376 1240 -299 l 1240 -299 q 1240 -230 1224 -174 q 1207 -119 1178 -74 q 1148 -30 1106 10 l 1106 10 l 1036 -52 q 1066 -82 1089 -117 q 1112 -153 1125 -196 q 1137 -240 1137 -295 l 1137 -295 q 1137 -353 1121 -396 q 1105 -440 1076 -464 q 1046 -488 1007 -488 l 1007 -488 q 981 -488 961 -478 q 940 -469 926 -449 l 926 -449 q 911 -429 906 -398 q 901 -367 901 -307 l 901 -307 l 901 0 l 801 0 l 801 -321 q 801 -376 795 -406 q 789 -437 773 -456 l 773 -456 q 760 -471 741 -479 q 722 -488 693 -488 l 693 -488 q 666 -488 647 -478 q 628 -469 615 -454 l 615 -454 q 598 -433 592 -403 q 585 -373 585 -314 l 585 -314 l 585 0 l 485 0 l 485 -300 q 485 -365 475 -399 q 465 -433 445 -453 l 445 -453 q 427 -470 402 -479 q 377 -488 339 -488 l 339 -488 q 277 -488 231 -457 q 184 -427 158 -372 q 132 -317 132 -243 l 132 -243 l 132 -228 q 132 -171 145 -135 q 157 -99 179 -82 q 200 -66 228 -66 l 228 -66 q 249 -66 264 -76 q 279 -87 288 -107 q 297 -128 297 -160 l 297 -160 q 297 -209 277 -232 q 256 -256 219 -256 l 219 -256 q 185 -256 156 -237 q 126 -219 98 -187 l 98 -187 l 81 -256 q 108 -287 150 -310 q 192 -333 241 -333 l 241 -333 q 288 -333 323 -313 q 357 -294 376 -257 q 394 -220 394 -166 l 394 -166 q 394 -109 374 -69 q 354 -29 317 -8 q 280 12 229 12 l 229 12 q 178 12 135 -13 q 92 -39 66 -95 q 39 -151 39 -241 l 39 -241 q 39 -350 79 -422 q 119 -495 188 -531 q 256 -568 340 -568 z"},"ത":{"ha":961,"x_min":37,"x_max":923,"o":"m 479 12 l 479 12 q 417 12 373 -15 q 329 -43 307 -95 q 284 -147 284 -220 l 284 -220 q 284 -286 304 -339 q 324 -393 360 -435 q 396 -478 445 -508 l 445 -508 l 465 -524 q 503 -547 546 -557 q 588 -568 641 -568 l 641 -568 q 715 -568 768 -545 q 821 -523 856 -483 q 890 -444 907 -392 q 923 -340 923 -281 l 923 -281 q 923 -213 905 -159 q 886 -106 854 -64 q 822 -23 780 10 l 780 10 l 716 -54 q 745 -77 769 -108 q 792 -139 806 -180 q 820 -221 820 -275 l 820 -275 q 820 -338 799 -386 q 777 -435 735 -463 q 693 -491 631 -491 l 631 -491 q 604 -491 582 -488 q 559 -485 539 -476 l 539 -476 l 516 -465 q 477 -447 448 -411 q 418 -375 402 -326 q 385 -278 385 -221 l 385 -221 q 385 -159 399 -126 q 412 -93 434 -80 q 455 -67 480 -67 l 480 -67 q 505 -67 527 -79 q 548 -92 561 -125 q 574 -158 574 -219 l 574 -219 q 574 -276 558 -325 q 541 -374 512 -411 q 483 -448 444 -468 l 444 -468 l 424 -477 q 405 -485 386 -488 q 366 -491 343 -491 l 343 -491 q 277 -491 232 -464 q 186 -437 163 -389 q 140 -341 140 -278 l 140 -278 q 140 -226 153 -185 q 166 -145 190 -112 q 213 -80 245 -54 l 245 -54 l 180 10 q 140 -20 108 -61 q 76 -102 57 -157 q 37 -212 37 -282 l 37 -282 q 37 -340 55 -391 q 73 -443 109 -483 q 145 -523 201 -545 q 257 -568 333 -568 l 333 -568 q 381 -568 420 -558 q 459 -548 496 -526 l 496 -526 l 519 -509 q 589 -467 633 -393 q 676 -320 676 -219 l 676 -219 q 676 -145 653 -93 q 630 -42 587 -15 q 543 12 479 12 z"},"ഥ":{"ha":845,"x_min":65,"x_max":786,"o":"m 65 -556 l 165 -556 l 165 -79 l 366 -79 l 366 0 l 65 0 l 65 -556 z m 550 -568 l 550 -568 q 609 -568 652 -552 q 694 -537 723 -509 l 723 -509 q 758 -475 772 -426 q 786 -377 786 -302 l 786 -302 l 786 0 l 317 0 l 317 -300 q 317 -353 324 -391 q 330 -430 344 -458 q 358 -486 381 -509 l 381 -509 q 409 -537 452 -552 q 494 -568 550 -568 z m 551 -488 l 551 -488 q 519 -488 495 -478 q 471 -468 455 -451 l 455 -451 q 436 -430 427 -395 q 417 -360 417 -293 l 417 -293 l 417 -79 l 686 -79 l 686 -286 q 686 -355 677 -392 q 667 -430 648 -451 l 648 -451 q 632 -468 608 -478 q 584 -488 551 -488 z"},"ദ":{"ha":607,"x_min":47,"x_max":571,"o":"m 358 -568 l 358 -568 q 425 -568 471 -547 q 516 -527 539 -492 q 562 -457 562 -413 l 562 -413 q 562 -365 540 -331 q 518 -298 466 -275 l 466 -275 l 463 -281 q 515 -265 543 -228 q 571 -192 571 -143 l 571 -143 q 571 -70 525 -29 q 478 11 392 11 l 392 11 q 358 11 332 8 q 306 4 286 0 l 286 0 l 304 -77 q 323 -73 341 -70 q 359 -67 377 -67 l 377 -67 q 424 -67 447 -86 q 470 -105 470 -146 l 470 -146 q 470 -165 464 -181 q 457 -198 443 -210 l 443 -210 q 429 -223 407 -230 q 384 -237 340 -237 l 340 -237 l 305 -237 l 305 -316 l 338 -316 q 375 -316 400 -322 q 424 -329 439 -344 l 439 -344 q 450 -354 456 -369 q 461 -384 461 -403 l 461 -403 q 461 -445 433 -466 q 405 -488 354 -488 l 354 -488 q 286 -488 241 -454 q 195 -420 172 -360 q 149 -300 149 -221 l 149 -221 q 149 -168 155 -114 q 161 -60 173 -13 l 173 -13 l 78 4 q 64 -45 56 -106 q 47 -168 47 -222 l 47 -222 q 47 -328 83 -405 q 118 -483 187 -525 q 256 -568 358 -568 z"},"ധ":{"ha":854,"x_min":37,"x_max":817,"o":"m 582 12 l 582 12 q 541 12 512 1 q 482 -11 461 -31 q 439 -52 420 -78 l 420 -78 l 433 -77 q 402 -30 363 -9 q 323 12 266 12 l 266 12 q 193 12 142 -23 q 91 -59 64 -120 q 37 -181 37 -258 l 37 -258 q 37 -327 54 -381 q 70 -436 100 -481 q 130 -527 171 -566 l 171 -566 l 242 -504 q 211 -475 188 -439 q 165 -404 153 -360 q 140 -317 140 -262 l 140 -262 q 140 -204 157 -160 q 173 -116 203 -92 q 233 -68 271 -68 l 271 -68 q 301 -68 321 -78 q 340 -89 353 -108 l 353 -108 q 367 -127 372 -157 q 377 -188 377 -242 l 377 -242 l 377 -556 l 477 -556 l 477 -244 q 477 -187 483 -157 q 488 -128 502 -108 l 502 -108 q 514 -89 534 -78 q 553 -68 581 -68 l 581 -68 q 618 -68 649 -91 q 679 -115 697 -158 q 714 -202 714 -262 l 714 -262 q 714 -318 701 -362 q 688 -406 665 -441 q 642 -476 613 -503 l 613 -503 l 685 -566 q 724 -528 754 -484 q 783 -440 800 -385 q 817 -331 817 -260 l 817 -260 q 817 -180 789 -118 q 761 -57 709 -22 q 656 12 582 12 z"},"ന":{"ha":854,"x_min":37,"x_max":817,"o":"m 272 -568 l 272 -568 q 314 -568 343 -556 q 372 -545 394 -525 q 416 -505 434 -479 l 434 -479 l 421 -480 q 452 -526 492 -547 q 531 -568 588 -568 l 588 -568 q 661 -568 712 -533 q 763 -498 790 -437 q 817 -376 817 -299 l 817 -299 q 817 -230 801 -175 q 784 -120 754 -75 q 724 -30 683 9 l 683 9 l 612 -52 q 642 -82 666 -117 q 689 -152 702 -196 q 714 -240 714 -295 l 714 -295 q 714 -353 698 -396 q 681 -440 651 -464 q 621 -488 583 -488 l 583 -488 q 553 -488 534 -478 q 514 -468 501 -449 l 501 -449 q 488 -430 483 -399 q 477 -369 477 -314 l 477 -314 l 477 0 l 377 0 l 377 -313 q 377 -369 372 -399 q 366 -429 352 -449 l 352 -449 q 340 -468 321 -478 q 301 -488 273 -488 l 273 -488 q 236 -488 206 -465 q 175 -442 158 -398 q 140 -355 140 -295 l 140 -295 q 140 -239 153 -195 q 166 -151 189 -116 q 211 -82 241 -53 l 241 -53 l 169 9 q 131 -29 101 -72 q 71 -116 54 -171 q 37 -226 37 -296 l 37 -296 q 37 -376 65 -437 q 93 -499 146 -533 q 198 -568 272 -568 z"},"ഩ":{"ha":961,"x_min":39,"x_max":924,"o":"m 340 -568 l 340 -568 q 418 -568 466 -542 q 514 -517 550 -471 l 550 -471 l 529 -482 q 559 -528 600 -548 q 640 -568 696 -568 l 696 -568 q 769 -568 820 -533 q 871 -498 898 -437 q 924 -376 924 -299 l 924 -299 q 924 -229 908 -174 q 892 -120 862 -75 q 832 -30 791 9 l 791 9 l 720 -52 q 750 -82 773 -117 q 796 -152 809 -196 q 822 -240 822 -295 l 822 -295 q 822 -353 806 -396 q 789 -440 759 -464 q 729 -488 691 -488 l 691 -488 q 661 -488 642 -478 q 623 -468 609 -449 l 609 -449 q 596 -430 590 -399 q 584 -369 584 -311 l 584 -311 l 584 0 l 484 0 l 484 -302 q 484 -365 475 -399 q 465 -433 445 -453 l 445 -453 q 427 -470 403 -479 q 379 -488 339 -488 l 339 -488 q 277 -488 231 -457 q 184 -427 158 -371 q 132 -316 132 -243 l 132 -243 l 132 -228 q 132 -171 145 -135 q 157 -99 179 -82 q 200 -66 228 -66 l 228 -66 q 249 -66 264 -76 q 279 -87 288 -107 q 297 -128 297 -160 l 297 -160 q 297 -209 277 -232 q 256 -256 219 -256 l 219 -256 q 185 -256 156 -237 q 126 -219 98 -187 l 98 -187 l 81 -256 q 108 -287 150 -310 q 192 -333 241 -333 l 241 -333 q 288 -333 323 -313 q 357 -294 376 -257 q 394 -220 394 -166 l 394 -166 q 394 -109 374 -69 q 354 -29 317 -8 q 280 12 229 12 l 229 12 q 178 12 135 -13 q 92 -39 66 -95 q 39 -151 39 -241 l 39 -241 q 39 -350 79 -422 q 119 -495 188 -531 q 256 -568 340 -568 z"},"പ":{"ha":839,"x_min":31,"x_max":775,"o":"m 222 -351 l 222 -351 q 288 -351 330 -325 q 372 -299 393 -259 q 413 -219 413 -175 l 413 -175 q 413 -136 401 -106 q 388 -76 374 -61 l 374 -61 l 357 -79 l 675 -79 l 675 -556 l 775 -556 l 775 0 l 312 0 l 277 -54 q 292 -74 304 -100 q 315 -126 315 -163 l 315 -163 q 315 -212 292 -242 q 268 -272 223 -272 l 223 -272 q 193 -272 172 -258 q 151 -245 140 -221 q 129 -197 129 -168 l 129 -168 q 129 -128 143 -99 q 157 -70 181 -45 l 181 -45 l 113 8 q 77 -27 54 -70 q 31 -114 31 -170 l 31 -170 q 31 -224 55 -264 q 78 -305 122 -328 q 165 -351 222 -351 z"},"ഫ":{"ha":1064,"x_min":31,"x_max":1006,"o":"m 222 -351 l 222 -351 q 288 -351 330 -325 q 372 -299 393 -259 q 413 -219 413 -175 l 413 -175 q 413 -136 401 -106 q 388 -76 374 -61 l 374 -61 l 356 -79 l 603 -79 l 603 0 l 312 0 l 277 -54 q 292 -74 304 -100 q 315 -126 315 -163 l 315 -163 q 315 -212 292 -242 q 268 -272 223 -272 l 223 -272 q 193 -272 172 -258 q 151 -245 140 -221 q 129 -197 129 -168 l 129 -168 q 129 -128 143 -99 q 157 -70 181 -45 l 181 -45 l 113 8 q 77 -26 54 -70 q 31 -114 31 -170 l 31 -170 q 31 -224 55 -264 q 78 -305 122 -328 q 165 -351 222 -351 z m 770 -568 l 770 -568 q 828 -568 871 -552 q 914 -537 942 -509 l 942 -509 q 977 -475 992 -426 q 1006 -377 1006 -302 l 1006 -302 l 1006 0 l 537 0 l 537 -300 q 537 -353 544 -391 q 550 -430 564 -458 q 577 -486 600 -509 l 600 -509 q 629 -537 671 -552 q 713 -568 770 -568 z m 771 -488 l 771 -488 q 738 -488 715 -478 q 691 -468 674 -451 l 674 -451 q 656 -430 647 -395 q 637 -360 637 -293 l 637 -293 l 637 -79 l 906 -79 l 906 -286 q 906 -355 897 -392 q 887 -430 868 -451 l 868 -451 q 852 -468 828 -478 q 804 -488 771 -488 z"},"ബ":{"ha":1228,"x_min":39,"x_max":1164,"o":"m 340 -568 l 340 -568 q 418 -568 466 -542 q 514 -517 550 -471 l 550 -471 l 570 -417 l 584 -260 l 584 0 l 484 0 l 484 -303 q 484 -365 475 -399 q 465 -433 445 -453 l 445 -453 q 427 -470 403 -479 q 379 -488 339 -488 l 339 -488 q 277 -488 231 -457 q 184 -427 158 -371 q 132 -316 132 -243 l 132 -243 l 132 -228 q 132 -171 145 -135 q 157 -99 179 -82 q 200 -66 228 -66 l 228 -66 q 249 -66 264 -76 q 279 -87 288 -107 q 297 -128 297 -160 l 297 -160 q 297 -209 277 -232 q 256 -256 219 -256 l 219 -256 q 185 -256 156 -237 q 126 -219 98 -187 l 98 -187 l 81 -256 q 108 -287 150 -310 q 192 -333 241 -333 l 241 -333 q 288 -333 323 -313 q 357 -294 376 -257 q 394 -220 394 -166 l 394 -166 q 394 -109 374 -69 q 354 -29 317 -8 q 280 12 229 12 l 229 12 q 178 12 135 -13 q 92 -39 66 -95 q 39 -151 39 -241 l 39 -241 q 39 -350 79 -422 q 119 -495 188 -531 q 256 -568 340 -568 z m 1064 -556 l 1164 -556 l 1164 0 l 768 0 l 728 -54 q 755 -87 776 -121 q 797 -155 809 -197 q 821 -239 821 -295 l 821 -295 q 821 -353 805 -396 q 788 -440 759 -464 q 729 -488 691 -488 l 691 -488 q 661 -488 642 -478 q 623 -468 609 -449 l 609 -449 q 596 -430 590 -399 q 584 -369 584 -312 l 584 -312 l 584 -3 l 487 -3 l 487 -251 l 531 -422 l 529 -482 q 559 -528 599 -548 q 639 -568 696 -568 l 696 -568 q 768 -568 819 -533 q 870 -498 897 -437 q 924 -376 924 -299 l 924 -299 q 924 -245 914 -203 q 904 -162 887 -128 q 870 -94 848 -65 l 848 -65 l 831 -79 l 1064 -79 l 1064 -556 z"},"ഭ":{"ha":624,"x_min":47,"x_max":593,"o":"m 380 -568 l 380 -568 q 443 -568 491 -551 q 539 -535 566 -503 q 593 -471 593 -425 l 593 -425 q 593 -399 586 -378 q 579 -358 565 -344 l 565 -344 q 549 -327 523 -318 q 497 -310 449 -309 l 449 -309 l 430 -309 q 402 -309 387 -307 q 372 -305 363 -300 l 363 -300 q 355 -295 352 -288 q 348 -281 348 -271 l 348 -271 q 348 -248 370 -240 q 391 -233 430 -233 l 430 -233 l 438 -233 q 484 -233 514 -224 q 543 -216 560 -200 l 560 -200 q 577 -185 585 -164 q 593 -144 593 -117 l 593 -117 q 593 -80 575 -50 q 556 -21 518 -4 q 479 12 416 12 l 416 12 q 385 12 354 9 q 323 5 295 -2 q 266 -9 243 -19 l 243 -19 l 276 -94 q 311 -81 344 -74 q 377 -68 412 -68 l 412 -68 q 461 -68 480 -81 q 498 -94 498 -114 l 498 -114 q 498 -138 481 -147 q 464 -156 430 -156 l 430 -156 l 420 -156 q 363 -156 330 -166 q 296 -177 279 -198 l 279 -198 q 267 -212 260 -230 q 253 -248 253 -270 l 253 -270 q 253 -295 262 -316 q 271 -338 290 -353 l 290 -353 q 310 -368 340 -377 q 369 -386 420 -386 l 420 -386 l 445 -386 q 471 -386 484 -394 q 497 -403 497 -425 l 497 -425 q 497 -458 465 -473 q 432 -488 378 -488 l 378 -488 q 298 -488 248 -454 q 197 -421 173 -360 q 149 -300 149 -221 l 149 -221 q 149 -168 155 -114 q 161 -60 173 -13 l 173 -13 l 78 4 q 64 -45 56 -106 q 47 -168 47 -222 l 47 -222 q 47 -327 84 -404 q 121 -482 195 -525 q 269 -568 380 -568 z"},"മ":{"ha":690,"x_min":56,"x_max":634,"o":"m 337 -568 l 337 -568 q 414 -568 469 -549 q 523 -531 559 -497 l 559 -497 q 585 -472 602 -440 q 618 -408 626 -365 q 634 -323 634 -267 l 634 -267 l 634 0 l 56 0 l 56 -269 q 56 -324 64 -365 q 72 -407 88 -439 q 104 -472 129 -496 l 129 -496 q 165 -531 215 -549 q 265 -568 337 -568 z m 284 -488 l 284 -488 q 251 -488 226 -469 q 200 -451 183 -418 l 183 -418 q 170 -392 163 -355 q 155 -318 155 -262 l 155 -262 l 155 -66 l 148 -67 q 206 -117 251 -173 q 296 -229 322 -287 q 348 -345 348 -401 l 348 -401 q 348 -427 342 -446 q 335 -466 322 -477 q 308 -488 284 -488 z m 448 -387 l 448 -387 q 448 -330 426 -275 q 404 -221 364 -167 q 323 -114 268 -59 l 268 -59 l 257 -74 q 282 -76 310 -77 q 337 -79 357 -79 l 357 -79 l 534 -79 l 534 -262 q 534 -330 522 -375 q 509 -421 481 -448 q 453 -476 407 -491 l 407 -491 l 408 -496 q 425 -476 437 -449 q 448 -423 448 -387 z"},"യ":{"ha":980,"x_min":38,"x_max":940,"o":"m 628 12 l 628 12 q 583 12 544 3 q 504 -7 463 -29 l 463 -29 q 457 -33 449 -37 q 441 -42 436 -46 l 436 -46 q 384 -84 353 -131 q 322 -178 309 -231 q 295 -285 295 -341 l 295 -341 q 295 -378 303 -411 q 311 -445 326 -471 l 326 -471 l 336 -485 q 354 -514 380 -532 q 405 -551 436 -559 q 466 -568 499 -568 l 499 -568 q 593 -568 646 -508 q 699 -448 699 -338 l 699 -338 q 699 -244 662 -170 q 624 -97 560 -50 l 560 -50 q 552 -45 545 -40 q 538 -35 529 -30 l 529 -30 q 491 -8 448 2 q 404 12 354 12 l 354 12 q 278 12 219 -13 q 160 -39 120 -85 q 79 -131 59 -193 q 38 -256 38 -332 l 38 -332 q 38 -404 63 -457 q 87 -510 135 -539 q 182 -568 249 -568 l 249 -568 q 303 -568 343 -548 q 383 -528 414 -489 l 414 -489 l 340 -433 q 325 -459 303 -474 q 281 -489 251 -489 l 251 -489 q 217 -489 192 -471 q 167 -454 153 -418 q 139 -383 139 -331 l 139 -331 q 139 -254 165 -194 q 191 -134 241 -99 q 290 -65 360 -65 l 360 -65 q 384 -65 405 -68 q 425 -71 444 -77 l 444 -77 q 453 -80 463 -83 q 472 -86 480 -90 l 480 -90 q 514 -110 541 -146 q 567 -183 582 -232 q 597 -281 597 -337 l 597 -337 q 597 -394 583 -427 q 569 -461 547 -475 q 524 -490 498 -490 l 498 -490 q 467 -490 444 -473 q 421 -456 409 -422 q 396 -388 396 -337 l 396 -337 q 396 -288 409 -239 q 422 -191 448 -152 q 474 -113 511 -89 l 511 -89 q 519 -85 526 -84 q 532 -83 540 -80 l 540 -80 q 556 -73 579 -69 q 601 -65 626 -65 l 626 -65 q 697 -65 744 -95 q 791 -126 815 -180 q 838 -235 838 -308 l 838 -308 q 838 -365 821 -419 q 804 -474 771 -521 l 771 -521 l 854 -568 q 897 -512 919 -446 q 940 -380 940 -312 l 940 -312 q 940 -243 922 -184 q 903 -125 865 -81 q 827 -37 768 -12 q 709 12 628 12 z"},"ര":{"ha":698,"x_min":37,"x_max":660,"o":"m 342 -568 l 342 -568 q 422 -568 482 -544 q 541 -520 581 -475 q 620 -431 640 -371 q 660 -311 660 -240 l 660 -240 q 660 -150 635 -94 q 609 -38 564 -13 q 519 12 459 12 l 459 12 q 396 12 355 -16 q 314 -45 295 -93 q 275 -142 275 -200 l 275 -200 q 275 -295 321 -350 q 367 -405 449 -405 l 449 -405 q 498 -405 535 -380 q 571 -355 594 -314 q 617 -274 625 -225 l 625 -225 l 591 -221 q 585 -246 569 -270 q 553 -295 529 -311 q 504 -328 471 -328 l 471 -328 q 420 -328 397 -293 q 373 -259 373 -199 l 373 -199 q 373 -158 382 -128 q 391 -99 411 -82 q 431 -66 462 -66 l 462 -66 q 494 -66 517 -84 q 539 -102 551 -141 q 563 -181 563 -245 l 563 -245 q 563 -251 562 -270 q 560 -290 557 -309 l 557 -309 q 556 -314 556 -321 q 556 -329 554 -333 l 554 -333 q 547 -375 521 -410 q 495 -445 452 -466 q 408 -488 347 -488 l 347 -488 q 281 -488 235 -462 q 189 -437 165 -390 q 140 -344 140 -278 l 140 -278 q 140 -227 153 -186 q 166 -145 190 -112 q 213 -80 245 -54 l 245 -54 l 180 10 q 141 -20 109 -61 q 76 -103 57 -158 q 37 -213 37 -282 l 37 -282 q 37 -339 55 -390 q 73 -442 110 -482 q 147 -522 205 -545 q 263 -568 342 -568 z"},"റ":{"ha":636,"x_min":37,"x_max":599,"o":"m 321 -568 l 321 -568 q 393 -568 446 -546 q 498 -524 532 -484 q 566 -445 583 -393 q 599 -342 599 -284 l 599 -284 q 599 -214 581 -160 q 562 -106 530 -64 q 498 -23 456 10 l 456 10 l 391 -54 q 420 -77 444 -108 q 467 -140 481 -181 q 495 -223 495 -277 l 495 -277 q 495 -342 474 -389 q 453 -436 414 -462 q 375 -488 320 -488 l 320 -488 q 265 -488 225 -461 q 184 -435 163 -388 q 141 -341 141 -279 l 141 -279 q 141 -228 154 -186 q 166 -145 190 -112 q 213 -80 246 -54 l 246 -54 l 180 9 q 141 -20 109 -61 q 76 -103 57 -158 q 37 -213 37 -282 l 37 -282 q 37 -341 55 -393 q 72 -445 108 -484 q 143 -523 196 -545 q 249 -568 321 -568 z"},"ല":{"ha":808,"x_min":59,"x_max":743,"o":"m 643 -556 l 743 -556 l 743 0 l 59 0 l 59 -316 q 59 -391 74 -434 q 89 -477 117 -506 l 117 -506 q 146 -536 189 -552 q 231 -568 287 -568 l 287 -568 q 343 -568 386 -552 q 428 -537 455 -508 l 455 -508 q 486 -476 500 -431 q 513 -386 513 -322 l 513 -322 l 513 -220 l 159 -220 l 159 -79 l 643 -79 l 643 -556 z m 286 -490 l 286 -490 q 218 -490 189 -449 q 159 -408 159 -325 l 159 -325 l 159 -299 l 413 -299 l 413 -325 q 413 -410 383 -450 q 352 -490 286 -490 z"},"ള":{"ha":681,"x_min":37,"x_max":646,"o":"m 369 -489 l 369 -489 q 321 -489 281 -480 q 240 -472 209 -456 q 178 -440 158 -418 q 137 -396 127 -369 l 127 -369 q 127 -365 128 -360 q 129 -355 128 -351 l 128 -351 q 126 -342 125 -331 q 123 -320 123 -308 l 123 -308 q 123 -252 142 -222 q 160 -192 199 -192 l 199 -192 q 233 -192 249 -215 q 265 -239 265 -272 l 265 -272 q 265 -295 258 -312 q 251 -329 237 -338 q 222 -348 199 -348 l 199 -348 q 163 -348 139 -330 q 115 -312 96 -292 l 96 -292 l 57 -331 q 74 -352 99 -372 q 123 -393 154 -406 q 184 -419 218 -419 l 218 -419 q 268 -419 300 -399 q 331 -379 346 -346 q 360 -313 360 -273 l 360 -273 q 360 -231 343 -195 q 326 -160 291 -139 q 256 -118 200 -118 l 200 -118 q 152 -118 115 -140 q 78 -163 58 -206 q 37 -250 37 -313 l 37 -313 q 37 -366 58 -413 q 79 -460 122 -494 q 164 -529 228 -548 q 291 -568 376 -568 l 376 -568 q 463 -568 521 -549 q 579 -530 608 -493 q 637 -457 637 -403 l 637 -403 q 637 -366 621 -338 q 604 -310 572 -291 q 539 -273 489 -263 l 489 -263 l 419 -291 l 419 -317 l 426 -317 q 453 -317 474 -321 q 494 -325 510 -338 l 510 -338 q 524 -349 530 -363 q 535 -377 535 -396 l 535 -396 q 535 -425 519 -445 q 503 -466 467 -477 q 430 -489 369 -489 z m 646 -150 l 646 -150 q 646 -114 634 -86 q 621 -59 598 -39 l 598 -39 q 581 -26 561 -17 q 540 -9 509 -4 q 478 0 431 0 l 431 0 l 266 0 q 225 0 206 3 q 186 5 174 12 l 174 12 q 159 19 152 31 q 145 43 145 58 l 145 58 q 145 72 151 84 q 156 95 167 103 l 167 103 q 180 111 202 116 q 224 120 265 120 l 265 120 l 625 120 l 625 201 l 258 201 q 204 201 166 193 q 128 185 102 169 l 102 169 q 74 152 60 125 q 45 98 45 63 l 45 63 q 45 28 59 0 q 72 -29 101 -48 l 101 -48 q 116 -58 135 -65 q 154 -72 182 -75 q 209 -79 248 -79 l 248 -79 l 420 -79 q 459 -79 483 -83 q 507 -88 521 -100 l 521 -100 q 533 -109 539 -123 q 545 -137 545 -158 l 545 -158 q 545 -177 538 -192 q 530 -208 515 -219 l 515 -219 q 502 -228 483 -233 q 463 -238 430 -238 l 430 -238 l 419 -238 l 419 -302 l 514 -291 q 579 -276 613 -239 q 646 -202 646 -150 z"},"ഴ":{"ha":625,"x_min":35,"x_max":590,"o":"m 245 -411 l 245 -411 q 245 -479 290 -523 q 334 -568 417 -568 l 417 -568 q 480 -568 518 -542 q 556 -517 573 -477 q 590 -437 590 -395 l 590 -395 q 590 -326 560 -271 q 530 -216 473 -184 q 416 -152 337 -152 l 337 -152 l 313 -152 q 220 -152 158 -184 q 96 -216 66 -272 q 35 -328 35 -399 l 35 -399 q 35 -440 48 -482 q 60 -525 88 -568 l 88 -568 l 168 -527 q 150 -493 143 -463 q 135 -434 135 -401 l 135 -401 q 135 -342 158 -303 q 181 -265 222 -246 q 262 -227 314 -227 l 314 -227 l 336 -227 q 386 -227 421 -249 q 455 -271 473 -309 q 491 -348 491 -398 l 491 -398 q 491 -435 475 -463 q 458 -492 416 -492 l 416 -492 q 392 -492 375 -481 q 358 -470 350 -450 q 342 -431 342 -407 l 342 -407 q 342 -367 355 -332 q 367 -298 383 -266 q 399 -234 412 -200 q 424 -166 424 -126 l 424 -126 q 424 -95 411 -63 q 398 -31 364 -9 q 329 12 265 12 l 265 12 q 228 12 189 5 q 149 -3 111 -21 l 111 -21 l 144 -95 q 171 -82 198 -75 q 225 -68 255 -68 l 255 -68 q 300 -68 314 -88 q 328 -108 328 -133 l 328 -133 q 328 -167 316 -199 q 303 -231 287 -263 q 270 -295 258 -331 q 245 -367 245 -411 z"},"വ":{"ha":904,"x_min":37,"x_max":839,"o":"m 321 -568 l 321 -568 q 393 -568 446 -546 q 498 -524 532 -485 q 566 -446 582 -395 q 598 -344 598 -287 l 598 -287 q 598 -232 586 -188 q 573 -145 552 -110 q 530 -75 503 -44 l 503 -44 l 501 -79 l 739 -79 l 739 -556 l 839 -556 l 839 0 l 439 0 l 399 -60 q 424 -82 446 -112 q 468 -143 482 -183 q 495 -224 495 -277 l 495 -277 q 495 -342 474 -389 q 453 -436 414 -462 q 375 -488 320 -488 l 320 -488 q 264 -488 224 -461 q 184 -435 163 -388 q 141 -341 141 -279 l 141 -279 q 141 -228 154 -186 q 166 -145 190 -112 q 213 -80 246 -54 l 246 -54 l 180 10 q 141 -20 109 -61 q 76 -103 57 -158 q 37 -213 37 -282 l 37 -282 q 37 -341 55 -393 q 72 -445 108 -484 q 143 -523 196 -545 q 249 -568 321 -568 z"},"ശ":{"ha":979,"x_min":37,"x_max":942,"o":"m 637 -568 l 637 -568 q 709 -568 766 -545 q 822 -522 862 -479 q 901 -436 922 -375 q 942 -315 942 -240 l 942 -240 q 942 -150 917 -94 q 891 -38 846 -13 q 800 12 741 12 l 741 12 q 677 12 637 -16 q 596 -45 576 -93 q 556 -142 556 -200 l 556 -200 q 556 -295 603 -350 q 649 -405 730 -405 l 730 -405 q 780 -405 817 -380 q 853 -355 876 -314 q 899 -274 907 -225 l 907 -225 l 872 -221 q 866 -246 850 -270 q 834 -295 810 -311 q 785 -328 752 -328 l 752 -328 q 701 -328 678 -293 q 654 -259 654 -199 l 654 -199 q 654 -158 664 -128 q 673 -99 693 -82 q 712 -66 743 -66 l 743 -66 q 775 -66 798 -84 q 820 -102 833 -141 q 845 -181 845 -245 l 845 -245 q 845 -251 844 -270 q 842 -290 839 -309 l 839 -309 q 838 -314 840 -321 q 841 -329 838 -333 l 838 -333 q 830 -376 804 -411 q 777 -446 736 -467 q 695 -488 640 -488 l 640 -488 q 601 -488 574 -480 q 546 -472 526 -455 l 526 -455 q 493 -428 482 -380 q 470 -332 470 -259 l 470 -259 l 470 -230 q 470 -166 459 -121 q 447 -77 418 -46 l 418 -46 q 393 -18 356 -3 q 318 12 265 12 l 265 12 q 195 12 144 -20 q 92 -53 65 -113 q 37 -174 37 -259 l 37 -259 q 37 -329 53 -384 q 69 -439 100 -484 q 130 -530 171 -569 l 171 -569 l 242 -507 q 211 -478 188 -442 q 165 -406 153 -361 q 140 -317 140 -262 l 140 -262 q 140 -201 155 -157 q 170 -114 198 -91 q 226 -69 262 -69 l 262 -69 q 293 -69 313 -79 q 332 -89 343 -106 l 343 -106 q 358 -129 363 -165 q 367 -202 367 -249 l 367 -249 l 367 -284 q 367 -367 386 -420 q 405 -473 445 -508 l 445 -508 q 480 -539 527 -553 q 573 -568 637 -568 z"},"ഷ":{"ha":1089,"x_min":31,"x_max":1024,"o":"m 222 -351 l 222 -351 q 288 -351 330 -325 q 372 -299 393 -259 q 413 -219 413 -175 l 413 -175 q 413 -136 401 -106 q 388 -76 374 -61 l 374 -61 l 356 -79 l 637 -79 l 664 0 l 312 0 l 277 -54 q 293 -74 304 -99 q 315 -125 315 -163 l 315 -163 q 315 -212 292 -242 q 268 -272 223 -272 l 223 -272 q 193 -272 172 -258 q 151 -245 140 -221 q 129 -197 129 -168 l 129 -168 q 129 -128 143 -99 q 157 -70 181 -45 l 181 -45 l 113 8 q 77 -27 54 -70 q 31 -114 31 -170 l 31 -170 q 31 -224 55 -264 q 78 -305 122 -328 q 165 -351 222 -351 z m 1024 0 l 618 0 l 618 -391 q 618 -419 615 -439 q 611 -460 602 -472 l 602 -472 q 596 -480 587 -485 q 577 -490 563 -490 l 563 -490 q 537 -490 522 -470 q 506 -451 506 -413 l 506 -413 q 506 -386 516 -362 q 525 -339 550 -325 q 575 -311 621 -311 l 621 -311 l 655 -311 q 708 -311 749 -331 q 790 -351 822 -386 q 854 -421 880 -465 q 905 -509 927 -556 l 927 -556 l 1024 -556 l 1024 0 z m 566 -568 l 566 -568 q 600 -568 626 -559 q 652 -551 670 -535 l 670 -535 q 694 -514 706 -480 q 717 -447 717 -389 l 717 -389 l 717 -79 l 925 -79 l 925 -314 q 925 -335 926 -357 q 926 -379 928 -398 q 929 -418 931 -429 l 931 -429 l 933 -424 q 905 -360 863 -318 q 821 -276 771 -255 q 720 -234 666 -234 l 666 -234 l 626 -234 q 549 -234 501 -258 q 453 -282 431 -323 q 409 -364 409 -414 l 409 -414 q 409 -454 427 -489 q 444 -524 479 -546 q 514 -568 566 -568 z"},"സ":{"ha":1145,"x_min":37,"x_max":1108,"o":"m 586 -568 l 586 -568 q 630 -568 665 -554 q 699 -541 724 -514 l 724 -514 q 741 -496 752 -473 q 763 -450 770 -414 q 776 -378 776 -323 l 776 -323 l 776 -256 q 776 -199 781 -163 q 786 -128 800 -106 l 800 -106 q 812 -88 831 -78 q 850 -69 882 -69 l 882 -69 q 919 -69 947 -91 q 974 -114 990 -157 q 1005 -201 1005 -263 l 1005 -263 q 1005 -318 993 -362 q 980 -406 957 -442 q 934 -478 904 -507 l 904 -507 l 974 -569 q 1015 -530 1045 -484 q 1075 -439 1092 -384 q 1108 -329 1108 -259 l 1108 -259 q 1108 -174 1080 -113 q 1052 -53 1001 -20 q 950 12 879 12 l 879 12 q 826 12 789 -3 q 751 -18 726 -46 l 726 -46 q 707 -67 696 -93 q 685 -120 680 -154 q 675 -188 675 -232 l 675 -232 l 675 -314 q 675 -372 670 -404 q 664 -436 649 -456 l 649 -456 q 637 -472 619 -480 q 601 -488 575 -488 l 575 -488 q 552 -488 534 -479 q 515 -471 503 -455 l 503 -455 q 488 -436 482 -405 q 475 -375 475 -319 l 475 -319 l 475 0 l 375 0 l 375 -309 q 375 -366 371 -397 q 366 -429 351 -448 l 351 -448 q 337 -468 317 -478 q 296 -488 271 -488 l 271 -488 q 233 -488 203 -463 q 173 -439 157 -396 q 140 -353 140 -295 l 140 -295 q 140 -240 153 -196 q 166 -152 189 -117 q 212 -82 241 -53 l 241 -53 l 169 9 q 130 -29 101 -72 q 71 -116 54 -171 q 37 -227 37 -299 l 37 -299 q 37 -376 64 -436 q 91 -497 143 -532 q 194 -568 268 -568 l 268 -568 q 326 -568 364 -546 q 401 -525 432 -481 l 432 -481 l 422 -482 q 450 -523 488 -545 q 526 -568 586 -568 z"},"ഹ":{"ha":1120,"x_min":31,"x_max":1083,"o":"m 222 -351 l 222 -351 q 288 -351 330 -325 q 372 -299 393 -259 q 413 -219 413 -175 l 413 -175 q 413 -136 401 -106 q 388 -76 374 -61 l 374 -61 l 356 -79 l 634 -79 l 664 0 l 312 0 l 277 -54 q 293 -74 304 -99 q 315 -125 315 -163 l 315 -163 q 315 -212 292 -242 q 268 -272 223 -272 l 223 -272 q 193 -272 172 -258 q 151 -245 140 -221 q 129 -197 129 -168 l 129 -168 q 129 -128 143 -99 q 157 -70 181 -45 l 181 -45 l 113 8 q 77 -27 54 -70 q 31 -114 31 -170 l 31 -170 q 31 -224 55 -264 q 78 -305 122 -328 q 165 -351 222 -351 z m 804 -568 l 804 -568 q 877 -568 930 -546 q 982 -524 1016 -484 q 1050 -445 1067 -393 q 1083 -342 1083 -284 l 1083 -284 q 1083 -214 1065 -160 q 1046 -106 1014 -64 q 982 -23 940 10 l 940 10 l 874 -54 q 903 -77 927 -108 q 951 -139 965 -181 q 979 -223 979 -277 l 979 -277 q 979 -342 958 -389 q 937 -436 898 -462 q 859 -488 804 -488 l 804 -488 q 748 -488 708 -461 q 668 -435 646 -388 q 624 -341 624 -279 l 624 -279 q 624 -230 636 -190 q 647 -151 669 -119 q 691 -87 721 -60 l 721 -60 l 678 0 l 651 0 l 611 -49 q 587 -78 567 -113 q 547 -148 535 -190 q 522 -232 522 -284 l 522 -284 q 522 -342 539 -393 q 556 -445 592 -484 q 627 -523 680 -545 q 733 -568 804 -568 z"},"ഺ":{"ha":704,"x_min":20,"x_max":687,"o":"m 131 -79 l 687 -79 l 687 0 l 440 0 l 440 202 l 340 202 l 340 0 l 70 0 l 20 -60 l 210 -561 l 303 -531 l 131 -79 z"},"഻":{"ha":0,"x_min":-317,"x_max":-239,"o":"m -317 -589 l -317 -864 l -239 -864 l -239 -589 l -317 -589 z"},"഼":{"ha":0,"x_min":-242,"x_max":20,"o":"m -242 -723 l -242 -723 q -242 -781 -206 -818 q -170 -855 -112 -855 l -112 -855 q -52 -855 -16 -818 q 20 -782 20 -723 l 20 -723 q 20 -665 -16 -628 q -52 -591 -112 -591 l -112 -591 q -171 -591 -206 -628 q -242 -665 -242 -723 z m -166 -724 l -166 -724 q -166 -696 -152 -678 q -138 -661 -112 -661 l -112 -661 q -84 -661 -70 -678 q -57 -696 -57 -724 l -57 -724 q -57 -751 -71 -768 q -85 -785 -112 -785 l -112 -785 q -138 -785 -152 -768 q -166 -751 -166 -724 z"},"ഽ":{"ha":448,"x_min":-77,"x_max":524,"o":"m 354 -794 l 354 -794 q 403 -794 437 -775 q 471 -756 493 -722 q 514 -689 524 -647 l 524 -647 l 425 -627 q 419 -653 410 -673 q 401 -693 388 -704 q 374 -716 352 -716 l 352 -716 q 334 -716 320 -708 q 305 -701 296 -687 l 296 -687 q 285 -671 280 -642 q 275 -613 275 -559 l 275 -559 l 275 -2 q 275 71 264 118 q 252 164 222 196 l 222 196 q 201 219 170 232 q 138 244 92 244 l 92 244 q 44 244 10 225 q -24 205 -45 171 q -66 137 -77 96 l -77 96 l 22 76 q 29 102 38 123 q 47 143 61 154 q 74 165 95 165 l 95 165 q 116 165 130 158 q 143 150 152 136 l 152 136 q 163 118 168 91 q 172 63 172 14 l 172 14 l 172 -542 q 172 -622 183 -668 q 194 -714 224 -745 l 224 -745 q 245 -767 278 -780 q 310 -794 354 -794 z"},"ാ":{"ha":484,"x_min":17,"x_max":444,"o":"m 444 -280 l 444 -280 q 444 -219 434 -166 q 423 -113 398 -73 q 372 -33 331 -10 q 289 12 226 12 l 226 12 q 174 12 137 -4 q 100 -21 76 -48 q 51 -76 37 -108 q 23 -141 17 -173 l 17 -173 l 118 -192 q 124 -166 136 -136 q 147 -107 168 -86 q 189 -66 224 -66 l 224 -66 q 267 -66 293 -92 q 318 -118 330 -166 q 342 -214 342 -279 l 342 -279 q 342 -344 330 -391 q 318 -439 293 -464 q 268 -490 228 -490 l 228 -490 q 196 -490 174 -471 q 152 -452 140 -423 q 127 -395 121 -366 l 121 -366 l 20 -385 q 29 -418 45 -450 q 60 -483 85 -510 q 110 -537 147 -552 q 183 -568 235 -568 l 235 -568 q 294 -568 334 -545 q 374 -523 399 -483 q 423 -444 434 -391 q 444 -339 444 -280 z"},"ി":{"ha":229,"x_min":-205,"x_max":165,"o":"m -26 -845 l -26 -845 q 12 -845 42 -836 q 72 -827 95 -809 l 95 -809 q 121 -788 136 -759 q 151 -731 158 -688 q 165 -645 165 -578 l 165 -578 l 165 0 l 65 0 l 65 -547 q 65 -598 63 -635 q 60 -673 54 -698 q 47 -723 36 -738 l 36 -738 q 26 -752 11 -759 q -4 -767 -26 -767 l -26 -767 q -45 -767 -63 -758 q -82 -749 -93 -730 q -105 -712 -105 -681 l -105 -681 q -105 -671 -103 -660 q -102 -649 -100 -640 l -100 -640 l -198 -625 q -201 -637 -203 -651 q -205 -665 -205 -680 l -205 -680 q -205 -735 -180 -771 q -156 -808 -115 -826 q -75 -845 -26 -845 z"},"ീ":{"ha":229,"x_min":-263,"x_max":165,"o":"m -90 -845 l -90 -845 q -42 -845 0 -834 q 41 -824 77 -798 l 77 -798 q 128 -762 147 -702 q 165 -642 165 -544 l 165 -544 l 165 0 l 65 0 l 65 -527 q 65 -578 62 -615 q 59 -652 51 -679 q 43 -706 28 -724 l 28 -724 q 9 -755 -21 -766 q -52 -777 -100 -777 l -100 -777 q -119 -777 -138 -769 q -157 -762 -169 -747 q -181 -732 -181 -708 l -181 -708 q -181 -682 -167 -666 q -154 -651 -128 -651 l -128 -651 q -96 -651 -83 -668 q -71 -686 -71 -711 l -71 -711 q -71 -735 -81 -756 q -92 -778 -110 -792 l -110 -792 l -16 -775 q -8 -765 -2 -747 q 4 -729 4 -706 l 4 -706 q 4 -671 -9 -642 q -22 -613 -51 -595 q -81 -578 -130 -578 l -130 -578 q -167 -578 -197 -593 q -228 -608 -245 -637 q -263 -666 -263 -708 l -263 -708 q -263 -748 -243 -779 q -223 -810 -184 -827 q -146 -845 -90 -845 z"},"ു":{"ha":321,"x_min":-24,"x_max":325,"o":"m 151 229 l 151 229 q 70 229 23 181 q -24 133 -24 53 l -24 53 q -24 0 -2 -39 q 20 -79 60 -100 q 99 -122 150 -122 l 150 -122 q 202 -122 242 -101 q 281 -81 303 -41 q 325 -2 325 53 l 325 53 q 325 107 303 147 q 281 187 242 208 q 203 229 151 229 z m 151 156 l 151 156 q 187 156 210 130 q 233 104 233 53 l 233 53 q 233 3 211 -23 q 188 -49 150 -49 l 150 -49 q 114 -49 91 -23 q 68 2 68 54 l 68 54 q 68 104 92 130 q 115 156 151 156 z m 109 -568 l 109 -568 q 167 -568 200 -545 q 233 -523 247 -485 q 261 -448 261 -405 l 261 -405 q 261 -338 244 -257 q 227 -176 202 -88 l 202 -88 l 109 -103 q 132 -186 146 -258 q 159 -330 159 -393 l 159 -393 q 159 -434 145 -461 q 130 -488 89 -488 l 89 -488 q 74 -488 60 -485 q 46 -483 34 -480 l 34 -480 l 17 -557 q 34 -562 57 -565 q 80 -568 109 -568 z"},"ൂ":{"ha":321,"x_min":-24,"x_max":325,"o":"m 151 229 l 151 229 q 70 229 23 181 q -24 133 -24 53 l -24 53 q -24 0 -2 -39 q 20 -79 60 -100 q 99 -122 150 -122 l 150 -122 q 202 -122 242 -101 q 281 -81 303 -42 q 325 -3 325 53 l 325 53 q 325 108 303 148 q 281 187 242 208 q 202 229 151 229 z m 150 -53 l 150 -53 q 108 -53 80 -27 q 52 -1 52 54 l 52 54 q 52 107 80 133 q 108 159 151 159 l 151 159 q 192 159 221 133 q 249 107 249 54 l 249 54 q 249 0 221 -26 q 193 -53 150 -53 z m 150 98 l 150 98 q 97 98 72 66 q 47 34 47 -15 l 47 -15 q 47 -35 57 -55 q 66 -75 85 -98 l 85 -98 l 127 -70 q 109 -62 101 -48 q 93 -35 93 -21 l 93 -21 q 93 -7 100 4 q 106 15 119 21 q 132 27 151 27 l 151 27 q 169 27 182 21 q 194 15 201 5 q 208 -6 208 -21 l 208 -21 q 208 -34 201 -46 q 193 -58 176 -66 l 176 -66 l 219 -98 q 239 -74 248 -55 q 256 -37 256 -16 l 256 -16 q 256 12 246 38 q 236 64 213 81 q 190 98 150 98 z m 110 -568 l 110 -568 q 167 -568 200 -545 q 233 -523 247 -485 q 261 -448 261 -405 l 261 -405 q 261 -338 244 -257 q 227 -176 202 -88 l 202 -88 l 109 -103 q 132 -186 146 -258 q 159 -330 159 -393 l 159 -393 q 159 -434 145 -461 q 130 -488 89 -488 l 89 -488 q 75 -488 61 -485 q 46 -483 34 -480 l 34 -480 l 17 -557 q 34 -562 57 -565 q 80 -568 110 -568 z"},"ൃ":{"ha":242,"x_min":-138,"x_max":238,"o":"m 36 321 l 36 321 q -15 321 -54 304 q -93 287 -115 253 q -138 219 -138 170 l -138 170 q -138 106 -94 67 q -51 27 26 27 l 26 27 q 65 27 105 41 q 144 55 187 94 l 187 94 l 164 162 q 131 132 100 119 q 68 105 32 105 l 32 105 q -1 105 -21 122 q -42 138 -42 174 l -42 174 q -42 207 -21 225 q 0 243 36 243 l 36 243 q 68 243 92 231 q 116 218 129 192 q 141 166 141 123 l 141 123 q 141 92 134 60 q 127 27 116 -8 q 104 -43 89 -83 l 89 -83 q 70 -133 56 -187 q 41 -241 41 -303 l 41 -303 q 41 -369 61 -434 q 80 -500 109 -556 l 109 -556 l 213 -556 q 188 -508 173 -467 q 157 -426 150 -387 q 142 -349 142 -308 l 142 -308 q 142 -252 155 -205 q 167 -159 185 -108 l 185 -108 q 202 -63 214 -24 q 226 14 232 49 q 238 84 238 122 l 238 122 q 238 193 210 237 q 182 281 136 301 q 90 321 36 321 z"},"ൄ":{"ha":242,"x_min":-256,"x_max":238,"o":"m -22 321 l -22 321 q -96 321 -148 303 q -201 284 -228 246 q -256 208 -256 152 l -256 152 q -256 99 -224 67 q -193 34 -142 34 l -142 34 q -111 34 -90 48 q -70 61 -58 83 l -58 83 l -66 82 q -52 59 -32 47 q -12 34 17 34 l 17 34 q 48 34 67 46 q 86 57 97 74 q 107 91 110 111 q 113 131 113 148 l 113 148 l 113 176 l 43 176 l 43 163 q 43 134 36 120 q 29 105 9 105 l 9 105 q -14 105 -20 121 q -27 136 -27 161 l -27 161 l -27 176 l -98 176 l -98 161 q -98 135 -105 120 q -112 105 -133 105 l -133 105 q -151 105 -161 118 q -172 130 -172 153 l -172 153 q -172 198 -134 221 q -96 243 -22 243 l -22 243 q 50 243 94 214 q 138 184 138 121 l 138 121 q 138 89 132 58 q 125 27 114 -8 q 102 -43 88 -81 l 88 -81 q 71 -131 56 -185 q 41 -240 41 -303 l 41 -303 q 41 -369 61 -434 q 80 -500 109 -556 l 109 -556 l 213 -556 q 188 -508 173 -467 q 157 -426 150 -387 q 142 -349 142 -308 l 142 -308 q 142 -252 154 -206 q 166 -160 185 -108 l 185 -108 q 202 -63 214 -25 q 226 13 232 48 q 238 83 238 122 l 238 122 q 238 188 205 233 q 172 277 114 299 q 55 321 -22 321 z"},"െ":{"ha":675,"x_min":37,"x_max":638,"o":"m 227 12 l 227 12 q 177 12 134 -13 q 90 -39 64 -93 q 37 -148 37 -235 l 37 -235 q 37 -313 61 -374 q 84 -436 127 -479 q 169 -523 227 -545 q 285 -568 354 -568 l 354 -568 q 427 -568 481 -546 q 534 -525 569 -486 q 604 -447 621 -395 q 638 -344 638 -284 l 638 -284 q 638 -214 620 -160 q 601 -106 569 -64 q 537 -23 495 10 l 495 10 l 430 -54 q 459 -77 483 -108 q 507 -139 521 -180 q 535 -222 535 -276 l 535 -276 q 535 -342 514 -389 q 492 -436 451 -462 q 409 -488 348 -488 l 348 -488 q 285 -488 236 -455 q 186 -422 159 -364 q 131 -306 131 -231 l 131 -231 q 131 -172 143 -135 q 155 -99 177 -82 q 198 -66 226 -66 l 226 -66 q 247 -66 263 -76 q 278 -87 287 -107 q 295 -128 295 -160 l 295 -160 q 295 -208 275 -232 q 254 -256 218 -256 l 218 -256 q 184 -256 154 -238 q 124 -220 96 -187 l 96 -187 l 80 -256 q 106 -287 148 -310 q 190 -333 238 -333 l 238 -333 q 286 -333 321 -313 q 355 -294 374 -257 q 392 -220 392 -166 l 392 -166 q 392 -109 372 -69 q 352 -30 316 -9 q 279 12 227 12 z"},"േ":{"ha":564,"x_min":37,"x_max":530,"o":"m 340 12 l 340 12 q 278 12 224 -5 q 169 -22 127 -58 q 84 -94 61 -149 q 37 -205 37 -282 l 37 -282 q 37 -356 62 -410 q 87 -465 130 -500 q 173 -535 229 -551 q 284 -568 345 -568 l 345 -568 q 411 -568 452 -549 q 492 -531 511 -499 q 530 -467 530 -428 l 530 -428 q 530 -385 512 -356 q 494 -327 463 -311 q 432 -296 394 -296 l 394 -296 q 342 -296 311 -314 q 280 -332 267 -362 q 253 -392 253 -427 l 253 -427 q 253 -448 260 -467 q 266 -487 274 -499 l 274 -499 l 369 -514 q 352 -501 343 -478 q 334 -455 334 -431 l 334 -431 q 334 -407 346 -387 q 358 -368 389 -368 l 389 -368 q 417 -368 430 -384 q 442 -401 442 -426 l 442 -426 q 442 -461 420 -478 q 397 -496 365 -496 l 365 -496 q 351 -496 337 -495 q 323 -495 312 -494 l 312 -494 q 259 -491 220 -464 q 180 -437 159 -390 q 137 -344 137 -281 l 137 -281 q 137 -220 158 -172 q 178 -124 216 -95 q 254 -67 306 -63 l 306 -63 q 317 -62 331 -61 q 345 -61 356 -61 l 356 -61 q 380 -61 398 -69 q 416 -77 427 -92 q 437 -108 437 -132 l 437 -132 q 437 -156 425 -173 q 412 -190 385 -190 l 385 -190 q 354 -190 341 -170 q 328 -150 328 -126 l 328 -126 q 328 -101 338 -79 q 347 -57 364 -43 l 364 -43 l 268 -58 q 260 -71 254 -90 q 248 -110 248 -134 l 248 -134 q 248 -167 262 -196 q 275 -225 306 -243 q 336 -261 386 -261 l 386 -261 q 425 -261 457 -246 q 488 -232 507 -202 q 525 -173 525 -129 l 525 -129 q 525 -90 506 -57 q 486 -25 445 -6 q 404 12 340 12 z"},"ൈ":{"ha":1350,"x_min":37,"x_max":1312,"o":"m 227 12 l 227 12 q 177 12 134 -13 q 90 -39 64 -93 q 37 -148 37 -235 l 37 -235 q 37 -313 61 -374 q 84 -436 127 -479 q 169 -523 227 -545 q 285 -568 354 -568 l 354 -568 q 427 -568 481 -546 q 534 -525 569 -486 q 604 -447 621 -395 q 638 -344 638 -284 l 638 -284 q 638 -214 620 -160 q 601 -106 569 -64 q 537 -23 495 10 l 495 10 l 430 -54 q 459 -77 483 -108 q 507 -139 521 -180 q 535 -222 535 -276 l 535 -276 q 535 -342 514 -389 q 492 -436 451 -462 q 409 -488 348 -488 l 348 -488 q 285 -488 236 -455 q 186 -422 159 -364 q 131 -306 131 -231 l 131 -231 q 131 -172 143 -135 q 155 -99 177 -82 q 198 -66 226 -66 l 226 -66 q 247 -66 263 -76 q 278 -87 287 -107 q 295 -128 295 -160 l 295 -160 q 295 -208 275 -232 q 254 -256 218 -256 l 218 -256 q 184 -256 154 -238 q 124 -220 96 -187 l 96 -187 l 80 -256 q 106 -287 148 -310 q 190 -333 238 -333 l 238 -333 q 286 -333 321 -313 q 355 -294 374 -257 q 392 -220 392 -166 l 392 -166 q 392 -109 372 -69 q 352 -30 316 -9 q 279 12 227 12 z m 902 12 l 902 12 q 852 12 809 -13 q 765 -39 739 -93 q 712 -148 712 -235 l 712 -235 q 712 -313 736 -374 q 759 -436 802 -479 q 844 -523 902 -545 q 960 -568 1029 -568 l 1029 -568 q 1102 -568 1156 -546 q 1209 -525 1244 -486 q 1279 -447 1296 -395 q 1313 -344 1313 -284 l 1313 -284 q 1313 -214 1295 -160 q 1276 -106 1244 -64 q 1212 -23 1170 10 l 1170 10 l 1105 -54 q 1134 -77 1158 -108 q 1182 -139 1196 -180 q 1210 -222 1210 -276 l 1210 -276 q 1210 -342 1189 -389 q 1167 -436 1126 -462 q 1084 -488 1023 -488 l 1023 -488 q 960 -488 911 -455 q 861 -422 834 -364 q 806 -306 806 -231 l 806 -231 q 806 -172 818 -135 q 830 -99 852 -82 q 873 -66 901 -66 l 901 -66 q 922 -66 938 -76 q 953 -87 962 -107 q 970 -128 970 -160 l 970 -160 q 970 -208 950 -232 q 929 -256 893 -256 l 893 -256 q 859 -256 829 -238 q 799 -220 771 -187 l 771 -187 l 755 -256 q 781 -287 823 -310 q 865 -333 913 -333 l 913 -333 q 961 -333 996 -313 q 1030 -294 1049 -257 q 1067 -220 1067 -166 l 1067 -166 q 1067 -109 1047 -69 q 1027 -30 991 -9 q 954 12 902 12 z"},"ൊ":{"ha":1346,"x_min":37,"x_max":1306,"o":"m 227 12 l 227 12 q 177 12 134 -13 q 90 -39 64 -93 q 37 -148 37 -235 l 37 -235 q 37 -313 61 -374 q 84 -436 127 -479 q 169 -523 227 -545 q 285 -568 354 -568 l 354 -568 q 427 -568 481 -546 q 534 -525 569 -486 q 604 -447 621 -395 q 638 -344 638 -284 l 638 -284 q 638 -214 620 -160 q 601 -106 569 -64 q 537 -23 495 10 l 495 10 l 430 -54 q 459 -77 483 -108 q 507 -139 521 -180 q 535 -222 535 -276 l 535 -276 q 535 -342 514 -389 q 492 -436 451 -462 q 409 -488 348 -488 l 348 -488 q 285 -488 236 -455 q 186 -422 159 -364 q 131 -306 131 -231 l 131 -231 q 131 -172 143 -135 q 155 -99 177 -82 q 198 -66 226 -66 l 226 -66 q 247 -66 263 -76 q 278 -87 287 -107 q 295 -128 295 -160 l 295 -160 q 295 -208 275 -232 q 254 -256 218 -256 l 218 -256 q 184 -256 154 -238 q 124 -220 96 -187 l 96 -187 l 80 -256 q 106 -287 148 -310 q 190 -333 238 -333 l 238 -333 q 286 -333 321 -313 q 355 -294 374 -257 q 392 -220 392 -166 l 392 -166 q 392 -109 372 -69 q 352 -30 316 -9 q 279 12 227 12 z m 774 -228 l 774 -228 q 746 -228 728 -245 q 709 -262 709 -299 l 709 -299 q 709 -337 727 -353 q 745 -370 774 -370 l 774 -370 q 803 -370 822 -354 q 840 -338 840 -299 l 840 -299 q 840 -262 822 -245 q 803 -228 774 -228 z m 1306 -280 l 1306 -280 q 1306 -219 1296 -166 q 1285 -113 1260 -73 q 1234 -33 1193 -10 q 1151 12 1088 12 l 1088 12 q 1036 12 999 -4 q 962 -21 938 -48 q 913 -76 899 -108 q 885 -141 879 -173 l 879 -173 l 980 -192 q 986 -166 998 -136 q 1009 -107 1030 -86 q 1051 -66 1086 -66 l 1086 -66 q 1129 -66 1155 -92 q 1180 -118 1192 -166 q 1204 -214 1204 -279 l 1204 -279 q 1204 -344 1192 -391 q 1180 -439 1155 -464 q 1130 -490 1090 -490 l 1090 -490 q 1058 -490 1036 -471 q 1014 -452 1002 -423 q 989 -395 983 -366 l 983 -366 l 882 -385 q 891 -418 907 -450 q 922 -483 947 -510 q 972 -537 1009 -552 q 1045 -568 1097 -568 l 1097 -568 q 1156 -568 1196 -545 q 1236 -523 1261 -483 q 1285 -444 1296 -391 q 1306 -339 1306 -280 z"},"ോ":{"ha":1219,"x_min":37,"x_max":1180,"o":"m 340 12 l 340 12 q 278 12 224 -5 q 169 -22 127 -58 q 84 -94 61 -149 q 37 -205 37 -282 l 37 -282 q 37 -356 62 -410 q 87 -465 130 -500 q 173 -535 229 -551 q 284 -568 345 -568 l 345 -568 q 411 -568 452 -549 q 492 -531 511 -499 q 530 -467 530 -428 l 530 -428 q 530 -385 512 -356 q 494 -327 463 -311 q 432 -296 394 -296 l 394 -296 q 342 -296 311 -314 q 280 -332 267 -362 q 253 -392 253 -427 l 253 -427 q 253 -448 260 -467 q 266 -487 274 -499 l 274 -499 l 369 -514 q 352 -501 343 -478 q 334 -455 334 -431 l 334 -431 q 334 -407 346 -387 q 358 -368 389 -368 l 389 -368 q 417 -368 430 -384 q 442 -401 442 -426 l 442 -426 q 442 -461 420 -478 q 397 -496 365 -496 l 365 -496 q 351 -496 337 -495 q 323 -495 312 -494 l 312 -494 q 259 -491 220 -464 q 180 -437 159 -390 q 137 -344 137 -281 l 137 -281 q 137 -220 158 -172 q 178 -124 216 -95 q 254 -67 306 -63 l 306 -63 q 317 -62 331 -61 q 345 -61 356 -61 l 356 -61 q 380 -61 398 -69 q 416 -77 427 -92 q 437 -108 437 -132 l 437 -132 q 437 -156 425 -173 q 412 -190 385 -190 l 385 -190 q 354 -190 341 -170 q 328 -150 328 -126 l 328 -126 q 328 -101 338 -79 q 347 -57 364 -43 l 364 -43 l 268 -58 q 260 -71 254 -90 q 248 -110 248 -134 l 248 -134 q 248 -167 262 -196 q 275 -225 306 -243 q 336 -261 386 -261 l 386 -261 q 425 -261 457 -246 q 488 -232 507 -202 q 525 -173 525 -129 l 525 -129 q 525 -90 506 -57 q 486 -25 445 -6 q 404 12 340 12 z m 648 -228 l 648 -228 q 620 -228 602 -245 q 583 -262 583 -299 l 583 -299 q 583 -337 601 -353 q 619 -370 648 -370 l 648 -370 q 677 -370 696 -354 q 714 -338 714 -299 l 714 -299 q 714 -262 696 -245 q 677 -228 648 -228 z m 1179 -280 l 1179 -280 q 1179 -219 1169 -166 q 1158 -113 1133 -73 q 1107 -33 1066 -10 q 1024 12 961 12 l 961 12 q 909 12 872 -4 q 835 -21 811 -48 q 786 -76 772 -108 q 758 -141 752 -173 l 752 -173 l 853 -192 q 859 -166 871 -136 q 882 -107 903 -86 q 924 -66 959 -66 l 959 -66 q 1002 -66 1028 -92 q 1053 -118 1065 -166 q 1077 -214 1077 -279 l 1077 -279 q 1077 -344 1065 -391 q 1053 -439 1028 -464 q 1003 -490 963 -490 l 963 -490 q 931 -490 909 -471 q 887 -452 875 -423 q 862 -395 856 -366 l 856 -366 l 755 -385 q 764 -418 780 -450 q 795 -483 820 -510 q 845 -537 882 -552 q 918 -568 970 -568 l 970 -568 q 1029 -568 1069 -545 q 1109 -523 1134 -483 q 1158 -444 1169 -391 q 1179 -339 1179 -280 z"},"ൌ":{"ha":1585,"x_min":37,"x_max":1547,"o":"m 227 12 l 227 12 q 177 12 134 -13 q 90 -39 64 -93 q 37 -148 37 -235 l 37 -235 q 37 -313 61 -374 q 84 -436 127 -479 q 169 -523 227 -545 q 285 -568 354 -568 l 354 -568 q 427 -568 481 -546 q 534 -525 569 -486 q 604 -447 621 -395 q 638 -344 638 -284 l 638 -284 q 638 -214 620 -160 q 601 -106 569 -64 q 537 -23 495 10 l 495 10 l 430 -54 q 459 -77 483 -108 q 507 -139 521 -180 q 535 -222 535 -276 l 535 -276 q 535 -342 514 -389 q 492 -436 451 -462 q 409 -488 348 -488 l 348 -488 q 285 -488 236 -455 q 186 -422 159 -364 q 131 -306 131 -231 l 131 -231 q 131 -172 143 -135 q 155 -99 177 -82 q 198 -66 226 -66 l 226 -66 q 247 -66 263 -76 q 278 -87 287 -107 q 295 -128 295 -160 l 295 -160 q 295 -208 275 -232 q 254 -256 218 -256 l 218 -256 q 184 -256 154 -238 q 124 -220 96 -187 l 96 -187 l 80 -256 q 106 -287 148 -310 q 190 -333 238 -333 l 238 -333 q 286 -333 321 -313 q 355 -294 374 -257 q 392 -220 392 -166 l 392 -166 q 392 -109 372 -69 q 352 -30 316 -9 q 279 12 227 12 z m 774 -228 l 774 -228 q 746 -228 728 -245 q 709 -262 709 -299 l 709 -299 q 709 -337 727 -353 q 745 -370 774 -370 l 774 -370 q 803 -370 822 -354 q 840 -338 840 -299 l 840 -299 q 840 -262 822 -245 q 803 -228 774 -228 z m 1352 -568 l 1352 -568 q 1414 -568 1458 -536 q 1501 -505 1524 -446 q 1547 -388 1547 -307 l 1547 -307 q 1547 -202 1516 -131 q 1485 -60 1425 -24 q 1365 12 1278 12 l 1278 12 q 1216 12 1166 0 q 1116 -12 1069 -36 l 1069 -36 l 1114 -112 q 1149 -93 1186 -81 q 1223 -70 1271 -70 l 1271 -70 q 1337 -70 1375 -99 q 1413 -128 1429 -180 q 1445 -233 1445 -305 l 1445 -305 q 1445 -399 1418 -443 q 1391 -488 1346 -488 l 1346 -488 q 1324 -488 1309 -480 q 1294 -472 1285 -457 l 1285 -457 q 1275 -442 1272 -419 q 1269 -396 1269 -351 l 1269 -351 l 1269 -260 l 1169 -260 l 1169 -341 q 1169 -385 1166 -412 q 1162 -439 1152 -454 l 1152 -454 q 1142 -472 1126 -480 q 1110 -488 1090 -488 l 1090 -488 q 1047 -488 1026 -457 q 1004 -426 1004 -381 l 1004 -381 q 1004 -348 1008 -323 q 1012 -298 1018 -277 l 1018 -277 l 923 -256 q 914 -285 909 -319 q 903 -354 903 -385 l 903 -385 q 903 -434 923 -475 q 942 -517 982 -542 q 1021 -568 1083 -568 l 1083 -568 q 1133 -568 1167 -548 q 1200 -529 1223 -492 l 1223 -492 l 1210 -493 q 1236 -534 1271 -551 q 1306 -568 1352 -568 z"},"്":{"ha":0,"x_min":-278,"x_max":68,"o":"m -105 -592 l -105 -592 q -163 -592 -201 -612 q -240 -633 -259 -669 q -278 -706 -278 -753 l -278 -753 q -278 -773 -275 -791 q -272 -810 -268 -822 l -268 -822 l -181 -807 q -184 -796 -185 -782 q -187 -769 -187 -757 l -187 -757 q -187 -724 -176 -704 q -165 -684 -146 -676 q -128 -668 -104 -668 l -104 -668 q -80 -668 -61 -676 q -43 -684 -32 -704 q -21 -724 -21 -757 l -21 -757 q -21 -770 -22 -783 q -24 -796 -27 -807 l -27 -807 l 58 -822 q 62 -810 65 -791 q 68 -773 68 -754 l 68 -754 q 68 -706 49 -669 q 30 -633 -8 -612 q -47 -592 -105 -592 z"},"ൎ":{"ha":0,"x_min":-337,"x_max":-223,"o":"m -337 -815 l -223 -815 l -231 -630 l -328 -630 l -337 -815 z"},"൏":{"ha":1172,"x_min":44,"x_max":1131,"o":"m 552 -568 l 552 -568 q 630 -568 678 -542 q 726 -517 762 -471 l 762 -471 l 742 -482 q 771 -528 812 -548 q 852 -568 907 -568 l 907 -568 q 979 -568 1030 -529 q 1080 -491 1106 -417 q 1131 -343 1131 -235 l 1131 -235 q 1131 -81 1075 24 q 1019 128 900 181 q 780 234 589 234 l 589 234 q 460 234 367 210 q 274 185 212 141 q 149 97 113 38 q 76 -21 60 -90 q 44 -160 44 -234 l 44 -234 q 44 -308 62 -384 q 80 -461 113 -539 l 113 -539 l 201 -505 q 170 -438 156 -368 q 142 -299 142 -236 l 142 -236 q 142 -178 153 -121 q 163 -65 190 -16 q 217 33 267 70 q 317 107 396 128 q 475 148 590 148 l 590 148 q 715 148 800 123 q 884 97 935 47 q 985 -3 1007 -75 q 1029 -147 1029 -239 l 1029 -239 q 1029 -320 1014 -375 q 999 -431 971 -459 q 942 -488 902 -488 l 902 -488 q 874 -488 855 -478 q 835 -468 822 -449 l 822 -449 q 808 -430 803 -399 q 797 -369 797 -311 l 797 -311 l 797 0 l 697 0 l 697 -302 q 697 -365 688 -399 q 678 -433 657 -453 l 657 -453 q 640 -470 616 -479 q 591 -488 552 -488 l 552 -488 q 490 -488 444 -457 q 397 -427 371 -371 q 345 -316 345 -243 l 345 -243 l 345 -228 q 345 -171 357 -135 q 369 -99 391 -82 q 412 -66 440 -66 l 440 -66 q 461 -66 477 -76 q 492 -87 501 -107 q 509 -128 509 -160 l 509 -160 q 509 -209 489 -232 q 468 -256 432 -256 l 432 -256 q 398 -256 368 -237 q 338 -219 310 -187 l 310 -187 l 294 -256 q 320 -287 363 -310 q 405 -333 453 -333 l 453 -333 q 501 -333 535 -313 q 569 -294 588 -257 q 606 -220 606 -166 l 606 -166 q 606 -109 586 -69 q 566 -29 530 -8 q 493 12 441 12 l 441 12 q 391 12 348 -13 q 304 -39 278 -95 q 252 -151 252 -241 l 252 -241 q 252 -350 292 -422 q 332 -495 400 -531 q 468 -568 552 -568 z"},"ൔ":{"ha":608,"x_min":56,"x_max":596,"o":"m 170 -794 l 170 -794 q 205 -794 231 -785 q 257 -776 273 -761 l 273 -761 q 296 -740 305 -711 q 313 -683 313 -638 l 313 -638 l 313 -520 q 313 -474 319 -435 q 324 -397 342 -359 q 360 -322 398 -279 l 398 -279 l 420 -255 q 451 -219 495 -175 q 538 -131 596 -75 l 596 -75 l 559 0 l 56 0 l 56 -269 q 56 -324 64 -366 q 72 -408 88 -440 q 104 -472 130 -496 l 130 -496 q 165 -530 212 -549 q 258 -568 315 -568 l 315 -568 q 372 -568 413 -544 q 453 -520 475 -479 q 497 -438 497 -385 l 497 -385 q 497 -338 479 -295 q 460 -253 429 -215 l 429 -215 l 410 -196 q 389 -172 365 -147 q 340 -123 313 -99 q 286 -75 256 -51 l 256 -51 l 258 -75 q 285 -77 309 -78 q 333 -79 352 -79 l 352 -79 l 422 -79 q 433 -79 450 -78 q 466 -78 483 -77 q 499 -77 512 -75 l 512 -75 l 492 -62 q 454 -99 422 -131 q 389 -163 363 -192 l 363 -192 l 339 -218 q 290 -272 264 -319 q 237 -366 228 -414 q 219 -462 219 -520 l 219 -520 l 219 -625 q 219 -656 214 -672 q 208 -689 197 -698 l 197 -698 q 189 -706 177 -709 q 165 -713 149 -713 l 149 -713 q 131 -713 114 -710 q 96 -707 84 -703 l 84 -703 l 64 -780 q 82 -786 111 -790 q 139 -794 170 -794 z m 156 -259 l 156 -66 l 147 -67 q 190 -100 228 -132 q 266 -165 297 -198 q 328 -231 350 -265 l 350 -265 l 370 -287 q 384 -312 391 -336 q 398 -361 398 -387 l 398 -387 q 398 -418 386 -441 q 373 -465 350 -478 q 327 -491 294 -491 l 294 -491 q 253 -491 227 -471 q 200 -451 184 -418 l 184 -418 q 175 -400 169 -377 q 162 -355 159 -326 q 156 -297 156 -259 l 156 -259 z"},"ൕ":{"ha":977,"x_min":38,"x_max":939,"o":"m 642 12 l 642 12 q 606 12 576 8 q 545 4 519 -5 q 492 -14 465 -29 l 465 -29 q 459 -33 451 -37 q 443 -42 438 -46 l 438 -46 q 387 -84 355 -131 q 323 -178 309 -231 q 294 -285 294 -341 l 294 -341 q 294 -378 303 -411 q 311 -445 326 -471 l 326 -471 l 336 -485 q 355 -514 380 -532 q 405 -551 436 -559 q 466 -568 499 -568 l 499 -568 q 593 -568 646 -508 q 699 -448 699 -338 l 699 -338 q 699 -275 683 -221 q 666 -168 635 -124 q 603 -81 560 -50 l 560 -50 q 552 -45 545 -40 q 538 -35 529 -30 l 529 -30 q 491 -8 448 2 q 404 12 354 12 l 354 12 q 278 12 219 -13 q 160 -39 120 -85 q 79 -131 59 -193 q 38 -256 38 -332 l 38 -332 q 38 -404 63 -457 q 87 -510 135 -539 q 182 -568 248 -568 l 248 -568 q 302 -568 343 -548 q 383 -528 414 -489 l 414 -489 l 340 -433 q 325 -459 303 -474 q 281 -489 251 -489 l 251 -489 q 217 -489 192 -471 q 167 -454 153 -418 q 139 -383 139 -331 l 139 -331 q 139 -254 165 -194 q 191 -134 241 -99 q 290 -65 360 -65 l 360 -65 q 384 -65 405 -68 q 426 -71 445 -77 l 445 -77 q 454 -80 463 -83 q 472 -86 480 -90 l 480 -90 q 513 -110 540 -146 q 566 -183 582 -232 q 597 -281 597 -337 l 597 -337 q 597 -394 583 -427 q 569 -461 547 -475 q 524 -490 498 -490 l 498 -490 q 467 -490 444 -473 q 421 -456 409 -422 q 396 -388 396 -337 l 396 -337 q 396 -287 410 -239 q 423 -191 450 -152 q 477 -113 513 -90 l 513 -90 q 521 -85 528 -84 q 534 -83 543 -80 l 543 -80 q 559 -73 582 -69 q 605 -65 640 -65 l 640 -65 q 709 -65 753 -89 q 796 -114 817 -155 q 837 -196 837 -246 l 837 -246 q 837 -288 827 -322 q 817 -357 799 -391 q 780 -425 756 -462 l 756 -462 q 729 -503 711 -535 q 692 -567 682 -597 q 672 -627 672 -662 l 672 -662 q 672 -691 685 -721 q 698 -752 731 -773 q 763 -794 821 -794 l 821 -794 q 853 -794 880 -789 q 907 -785 923 -780 l 923 -780 l 903 -703 q 890 -708 874 -710 q 858 -713 838 -713 l 838 -713 q 803 -713 788 -695 q 772 -677 772 -652 l 772 -652 q 772 -631 780 -611 q 787 -591 804 -565 q 820 -540 844 -503 l 844 -503 q 873 -460 894 -419 q 915 -378 927 -337 q 939 -296 939 -251 l 939 -251 q 939 -207 928 -167 q 917 -128 895 -95 q 872 -63 837 -38 q 801 -14 753 -1 q 704 12 642 12 z"},"ൖ":{"ha":696,"x_min":35,"x_max":661,"o":"m 216 -164 l 216 -164 q 216 -136 226 -114 q 236 -93 258 -80 q 280 -68 316 -68 l 316 -68 q 366 -68 383 -87 q 399 -107 399 -135 l 399 -135 q 399 -170 388 -200 q 376 -231 361 -261 q 345 -292 334 -328 q 322 -364 322 -409 l 322 -409 q 322 -452 341 -488 q 359 -524 396 -546 q 433 -568 488 -568 l 488 -568 q 550 -568 589 -542 q 627 -517 644 -477 q 661 -438 661 -395 l 661 -395 q 661 -327 630 -271 q 598 -216 535 -184 q 472 -152 378 -152 l 378 -152 l 351 -152 q 302 -152 264 -159 q 225 -167 189 -183 l 189 -183 l 157 -192 q 118 -213 91 -243 q 63 -274 49 -313 q 35 -353 35 -399 l 35 -399 q 35 -440 48 -482 q 60 -525 88 -569 l 88 -569 l 168 -527 q 150 -493 143 -463 q 135 -433 135 -400 l 135 -400 q 135 -361 145 -331 q 155 -302 173 -281 l 173 -281 l 205 -263 q 231 -245 270 -236 q 308 -227 349 -227 l 349 -227 l 380 -227 q 443 -227 483 -249 q 523 -272 543 -310 q 562 -349 562 -398 l 562 -398 q 562 -435 546 -463 q 529 -492 487 -492 l 487 -492 q 463 -492 446 -481 q 429 -470 421 -450 q 413 -431 413 -407 l 413 -407 q 413 -367 426 -333 q 438 -299 454 -266 q 470 -234 483 -200 q 495 -166 495 -127 l 495 -127 q 495 -103 487 -78 q 479 -54 460 -33 q 440 -13 405 0 q 370 12 315 12 l 315 12 q 258 12 215 -7 q 172 -26 148 -66 q 124 -107 124 -170 l 124 -170 q 124 -214 138 -258 q 151 -302 173 -349 q 195 -397 220 -447 l 220 -447 q 246 -496 262 -531 q 277 -566 284 -593 q 291 -621 291 -646 l 291 -646 q 291 -676 275 -694 q 259 -713 222 -713 l 222 -713 q 205 -713 188 -710 q 170 -708 158 -704 l 158 -704 l 139 -780 q 157 -786 186 -790 q 215 -794 246 -794 l 246 -794 q 304 -794 336 -773 q 367 -752 379 -722 q 391 -692 391 -665 l 391 -665 q 391 -638 387 -613 q 382 -588 371 -560 q 360 -532 342 -495 q 323 -458 297 -407 l 297 -407 q 276 -364 261 -331 q 245 -299 235 -271 q 225 -244 221 -218 q 216 -193 216 -164 z"},"ൗ":{"ha":714,"x_min":33,"x_max":677,"o":"m 482 -568 l 482 -568 q 544 -568 588 -536 q 631 -505 654 -446 q 677 -388 677 -307 l 677 -307 q 677 -202 646 -131 q 615 -60 555 -24 q 495 12 408 12 l 408 12 q 346 12 296 0 q 246 -12 199 -36 l 199 -36 l 244 -112 q 279 -93 316 -81 q 353 -70 401 -70 l 401 -70 q 467 -70 505 -99 q 543 -128 559 -180 q 575 -233 575 -305 l 575 -305 q 575 -399 548 -443 q 521 -488 476 -488 l 476 -488 q 454 -488 439 -480 q 424 -472 415 -457 l 415 -457 q 405 -442 402 -419 q 399 -396 399 -351 l 399 -351 l 399 -260 l 299 -260 l 299 -341 q 299 -385 296 -412 q 292 -439 282 -454 l 282 -454 q 272 -472 256 -480 q 240 -488 220 -488 l 220 -488 q 177 -488 156 -457 q 134 -426 134 -381 l 134 -381 q 134 -348 138 -323 q 142 -298 148 -277 l 148 -277 l 53 -256 q 44 -285 39 -319 q 33 -354 33 -385 l 33 -385 q 33 -434 53 -475 q 72 -517 112 -542 q 151 -568 213 -568 l 213 -568 q 263 -568 297 -548 q 330 -529 353 -492 l 353 -492 l 340 -493 q 366 -534 401 -551 q 436 -568 482 -568 z"},"൘":{"ha":1145,"x_min":37,"x_max":1103,"o":"m 566 12 l 566 12 q 517 12 477 -9 q 437 -31 408 -75 l 408 -75 l 419 -74 q 391 -33 356 -10 q 320 12 262 12 l 262 12 q 193 12 142 -22 q 91 -57 64 -118 q 37 -179 37 -260 l 37 -260 q 37 -331 54 -385 q 70 -440 100 -484 q 130 -528 168 -566 l 168 -566 l 241 -503 q 211 -475 189 -440 q 166 -405 153 -361 q 139 -318 139 -262 l 139 -262 q 139 -200 157 -156 q 174 -113 203 -90 q 231 -68 265 -68 l 265 -68 q 292 -68 310 -78 q 328 -88 340 -107 l 340 -107 q 354 -128 359 -159 q 363 -191 363 -241 l 363 -241 l 363 -556 l 463 -556 l 463 -240 q 463 -184 470 -153 q 477 -123 493 -102 l 493 -102 q 505 -86 525 -77 q 544 -68 567 -68 l 567 -68 q 594 -68 612 -76 q 630 -85 642 -100 l 642 -100 q 658 -120 664 -150 q 669 -181 669 -233 l 669 -233 l 669 -556 l 769 -556 l 769 -257 l 723 -74 q 699 -33 662 -10 q 624 12 566 12 z m 877 12 l 877 12 q 823 12 784 -8 q 745 -28 713 -75 l 713 -75 l 678 -235 l 678 -546 l 769 -546 l 769 -249 q 769 -192 774 -160 q 779 -129 793 -107 l 793 -107 q 806 -88 826 -78 q 845 -68 872 -68 l 872 -68 q 911 -68 940 -94 q 968 -121 985 -176 q 1001 -232 1001 -319 l 1001 -319 q 1001 -400 986 -469 q 971 -538 940 -592 q 909 -647 861 -685 q 812 -723 745 -742 q 678 -762 590 -762 l 590 -762 q 527 -762 470 -755 q 413 -748 365 -735 l 365 -735 l 351 -817 q 390 -827 428 -833 q 465 -839 505 -842 q 545 -845 591 -845 l 591 -845 q 699 -845 783 -820 q 866 -796 927 -750 q 987 -705 1026 -640 q 1065 -576 1084 -495 q 1103 -415 1103 -321 l 1103 -321 q 1103 -207 1076 -133 q 1049 -59 999 -23 q 949 12 877 12 z"},"൙":{"ha":1063,"x_min":37,"x_max":1043,"o":"m 342 -568 l 342 -568 q 422 -568 482 -543 q 541 -519 581 -474 q 620 -430 640 -369 q 660 -309 660 -237 l 660 -237 q 660 -147 635 -92 q 609 -37 564 -12 q 519 12 460 12 l 460 12 q 397 12 358 -11 q 319 -35 301 -72 q 282 -109 282 -151 l 282 -151 q 282 -201 301 -236 q 320 -271 353 -292 l 353 -292 q 375 -307 402 -316 q 428 -325 466 -329 q 503 -333 558 -333 l 558 -333 l 684 -333 l 684 -254 l 564 -254 q 503 -254 471 -248 q 439 -243 416 -227 l 416 -227 q 399 -215 390 -197 q 381 -179 381 -151 l 381 -151 q 381 -114 401 -90 q 421 -67 460 -67 l 460 -67 q 493 -67 516 -84 q 538 -102 551 -140 q 563 -178 563 -241 l 563 -241 q 563 -257 562 -273 q 560 -290 557 -303 l 557 -303 l 555 -321 q 547 -368 521 -406 q 495 -444 452 -466 q 409 -488 347 -488 l 347 -488 q 281 -488 235 -462 q 189 -437 165 -390 q 140 -344 140 -278 l 140 -278 q 140 -227 153 -186 q 166 -145 190 -112 q 213 -80 245 -54 l 245 -54 l 180 10 q 141 -20 109 -61 q 76 -103 57 -158 q 37 -213 37 -282 l 37 -282 q 37 -339 55 -390 q 73 -442 110 -482 q 147 -522 205 -545 q 263 -568 342 -568 z m 883 -556 l 883 -556 q 940 -556 975 -535 q 1010 -515 1027 -482 q 1043 -449 1043 -411 l 1043 -411 q 1043 -370 1029 -340 q 1014 -310 988 -291 l 988 -291 q 969 -278 947 -269 q 925 -261 896 -257 q 866 -254 825 -254 l 825 -254 l 610 -254 l 612 -333 l 830 -333 q 866 -333 886 -337 q 905 -341 918 -350 l 918 -350 q 933 -358 941 -373 q 948 -388 948 -410 l 948 -410 q 948 -441 932 -460 q 915 -479 883 -479 l 883 -479 q 848 -479 830 -457 q 811 -435 811 -397 l 811 -397 q 811 -362 822 -336 q 833 -311 850 -288 l 850 -288 l 757 -283 q 742 -307 730 -339 q 718 -372 718 -409 l 718 -409 q 718 -456 740 -489 q 761 -522 799 -539 q 836 -556 883 -556 z"},"൚":{"ha":1007,"x_min":37,"x_max":952,"o":"m 655 -568 l 655 -568 q 732 -568 787 -549 q 841 -531 876 -497 l 876 -497 q 903 -472 920 -440 q 936 -408 944 -365 q 952 -323 952 -267 l 952 -267 l 952 0 l 476 0 l 476 -75 q 530 -124 573 -178 q 616 -233 641 -290 q 666 -347 666 -401 l 666 -401 q 666 -427 660 -446 q 654 -466 640 -477 q 625 -488 602 -488 l 602 -488 q 569 -488 543 -468 q 517 -448 502 -418 l 502 -418 q 487 -387 482 -352 q 477 -317 477 -264 l 477 -264 l 477 -230 l 377 -230 l 377 -313 q 377 -369 372 -399 q 366 -429 352 -449 l 352 -449 q 340 -468 321 -478 q 301 -488 273 -488 l 273 -488 q 236 -488 206 -465 q 175 -442 158 -398 q 140 -355 140 -295 l 140 -295 q 140 -239 153 -195 q 166 -151 189 -116 q 211 -82 241 -53 l 241 -53 l 169 9 q 131 -29 101 -72 q 71 -116 54 -171 q 37 -226 37 -296 l 37 -296 q 37 -376 65 -437 q 93 -499 146 -533 q 199 -568 273 -568 l 273 -568 q 319 -568 352 -554 q 384 -540 408 -515 q 431 -490 450 -457 l 450 -457 l 417 -452 q 442 -493 477 -518 q 512 -544 557 -556 q 601 -568 655 -568 z m 766 -387 l 766 -387 q 766 -330 744 -275 q 722 -221 682 -167 q 641 -114 586 -59 l 586 -59 l 575 -74 q 599 -76 627 -77 q 655 -79 675 -79 l 675 -79 l 852 -79 l 852 -262 q 852 -330 839 -375 q 826 -421 799 -448 q 771 -476 724 -491 l 724 -491 l 726 -496 q 743 -476 755 -449 q 766 -423 766 -387 z"},"൛":{"ha":904,"x_min":65,"x_max":867,"o":"m 583 12 l 583 12 q 511 12 459 -10 q 406 -32 372 -71 q 338 -110 322 -161 q 306 -212 306 -269 l 306 -269 q 306 -325 319 -368 q 331 -412 353 -447 q 374 -482 401 -513 l 401 -513 l 403 -478 l 165 -478 l 165 0 l 65 0 l 65 -556 l 465 -556 l 505 -496 q 480 -474 458 -444 q 436 -414 423 -373 q 409 -333 409 -279 l 409 -279 q 409 -216 430 -168 q 451 -121 491 -95 q 530 -69 584 -69 l 584 -69 q 640 -69 680 -95 q 720 -122 742 -169 q 763 -216 763 -277 l 763 -277 q 763 -329 751 -370 q 738 -411 715 -443 q 691 -476 658 -503 l 658 -503 l 724 -566 q 764 -537 796 -495 q 828 -454 848 -399 q 867 -344 867 -274 l 867 -274 q 867 -216 850 -164 q 832 -112 797 -72 q 761 -33 708 -10 q 654 12 583 12 z"},"൜":{"ha":1423,"x_min":37,"x_max":1385,"o":"m 857 -568 l 857 -568 q 905 -568 941 -555 q 977 -542 1002 -515 l 1002 -515 q 1018 -497 1030 -472 q 1041 -448 1047 -411 q 1053 -374 1053 -318 l 1053 -318 l 1053 -256 q 1053 -199 1058 -163 q 1063 -128 1077 -106 l 1077 -106 q 1089 -88 1108 -78 q 1127 -69 1160 -69 l 1160 -69 q 1197 -69 1225 -91 q 1252 -114 1268 -157 q 1283 -201 1283 -263 l 1283 -263 q 1283 -318 1270 -362 q 1257 -406 1235 -442 q 1212 -478 1181 -507 l 1181 -507 l 1251 -569 q 1293 -530 1323 -484 q 1353 -439 1369 -384 q 1385 -329 1385 -259 l 1385 -259 q 1385 -174 1357 -113 q 1329 -53 1278 -20 q 1227 12 1156 12 l 1156 12 q 1103 12 1066 -3 q 1028 -18 1003 -46 l 1003 -46 q 984 -67 973 -93 q 962 -120 957 -154 q 952 -188 952 -230 l 952 -230 l 952 -314 q 952 -371 947 -403 q 942 -436 927 -456 l 927 -456 q 915 -472 898 -480 q 880 -488 858 -488 l 858 -488 q 835 -488 817 -480 q 799 -473 788 -457 l 788 -457 q 773 -437 768 -404 q 762 -371 762 -311 l 762 -311 l 762 -239 q 762 -185 756 -147 q 750 -109 739 -84 q 727 -60 711 -42 l 711 -42 q 686 -15 651 -1 q 616 12 566 12 l 566 12 q 517 12 481 -1 q 445 -15 421 -42 l 421 -42 q 405 -60 393 -84 q 381 -109 375 -146 q 369 -184 369 -239 l 369 -239 l 369 -300 q 369 -358 365 -393 q 360 -429 345 -450 l 345 -450 q 334 -468 315 -478 q 296 -488 263 -488 l 263 -488 q 227 -488 199 -465 q 171 -443 156 -399 q 140 -356 140 -294 l 140 -294 q 140 -240 153 -195 q 165 -150 188 -115 q 211 -80 241 -50 l 241 -50 l 171 12 q 130 -28 100 -73 q 69 -118 53 -173 q 37 -229 37 -298 l 37 -298 q 37 -382 65 -442 q 93 -503 145 -535 q 196 -568 268 -568 l 268 -568 q 319 -568 357 -553 q 394 -539 418 -512 l 418 -512 q 438 -490 450 -462 q 461 -435 466 -400 q 470 -366 470 -321 l 470 -321 l 470 -243 q 470 -186 476 -153 q 481 -120 496 -100 l 496 -100 q 507 -85 525 -77 q 543 -69 565 -69 l 565 -69 q 588 -69 606 -76 q 623 -83 635 -99 l 635 -99 q 650 -119 656 -152 q 661 -185 661 -241 l 661 -241 l 661 -316 q 661 -372 667 -409 q 673 -447 685 -472 q 696 -497 712 -514 l 712 -514 q 736 -542 772 -555 q 807 -568 857 -568 z"},"൝":{"ha":1883,"x_min":9,"x_max":1845,"o":"m 733 -568 l 733 -568 q 782 -568 818 -555 q 854 -542 879 -515 l 879 -515 q 895 -497 907 -472 q 918 -448 924 -411 q 930 -374 930 -318 l 930 -318 l 930 -243 q 930 -186 936 -153 q 941 -120 956 -100 l 956 -100 q 967 -85 985 -77 q 1003 -69 1025 -69 l 1025 -69 q 1048 -69 1066 -76 q 1084 -83 1095 -99 l 1095 -99 q 1110 -119 1116 -152 q 1121 -185 1121 -241 l 1121 -241 l 1121 -316 q 1121 -372 1127 -409 q 1133 -447 1145 -472 q 1156 -497 1172 -514 l 1172 -514 q 1196 -542 1232 -555 q 1267 -568 1317 -568 l 1317 -568 q 1365 -568 1401 -555 q 1437 -542 1462 -515 l 1462 -515 q 1479 -497 1490 -472 q 1501 -448 1508 -411 q 1514 -374 1514 -318 l 1514 -318 l 1514 -256 q 1514 -199 1519 -163 q 1523 -128 1538 -106 l 1538 -106 q 1549 -88 1568 -78 q 1587 -69 1620 -69 l 1620 -69 q 1657 -69 1685 -91 q 1712 -114 1728 -157 q 1743 -201 1743 -263 l 1743 -263 q 1743 -318 1730 -362 q 1717 -406 1695 -442 q 1672 -478 1641 -507 l 1641 -507 l 1711 -569 q 1753 -530 1783 -484 q 1813 -439 1829 -384 q 1845 -329 1845 -259 l 1845 -259 q 1845 -174 1817 -113 q 1789 -53 1738 -20 q 1687 12 1617 12 l 1617 12 q 1564 12 1527 -3 q 1489 -18 1463 -46 l 1463 -46 q 1445 -67 1434 -93 q 1422 -120 1418 -154 q 1413 -188 1413 -230 l 1413 -230 l 1413 -314 q 1413 -371 1408 -403 q 1402 -436 1387 -456 l 1387 -456 q 1376 -472 1358 -480 q 1340 -488 1318 -488 l 1318 -488 q 1295 -488 1277 -480 q 1259 -473 1248 -457 l 1248 -457 q 1233 -437 1228 -404 q 1222 -371 1222 -311 l 1222 -311 l 1222 -239 q 1222 -185 1216 -147 q 1210 -109 1199 -84 q 1187 -60 1171 -42 l 1171 -42 q 1147 -15 1112 -1 q 1076 12 1026 12 l 1026 12 q 977 12 941 -1 q 905 -15 881 -42 l 881 -42 q 865 -60 854 -84 q 842 -109 836 -146 q 829 -184 829 -239 l 829 -239 l 829 -315 q 829 -372 824 -404 q 818 -436 804 -456 l 804 -456 q 792 -472 775 -480 q 757 -488 734 -488 l 734 -488 q 712 -488 694 -480 q 676 -473 664 -457 l 664 -457 q 649 -437 644 -404 q 639 -371 639 -311 l 639 -311 l 639 -229 q 639 -157 627 -115 q 614 -74 587 -45 l 587 -45 q 561 -17 525 -2 q 489 12 438 12 l 438 12 q 376 12 338 -14 q 299 -40 273 -84 l 273 -84 l 289 -76 q 270 -49 247 -29 q 224 -9 194 2 q 164 12 123 12 l 123 12 q 90 12 63 5 q 36 -2 9 -16 l 9 -16 l 41 -91 q 59 -82 80 -75 q 101 -69 126 -69 l 126 -69 q 153 -69 174 -78 q 195 -88 208 -108 l 208 -108 q 222 -129 227 -159 q 232 -189 232 -247 l 232 -247 l 232 -555 l 332 -556 l 332 -234 q 332 -181 339 -150 q 345 -119 361 -100 l 361 -100 q 372 -85 391 -77 q 410 -69 434 -69 l 434 -69 q 462 -69 482 -79 q 501 -89 513 -106 l 513 -106 q 527 -127 532 -160 q 537 -193 537 -254 l 537 -254 l 537 -316 q 537 -372 544 -409 q 550 -447 562 -472 q 573 -497 589 -514 l 589 -514 q 613 -542 648 -555 q 683 -568 733 -568 z"},"൞":{"ha":1299,"x_min":37,"x_max":1271,"o":"m 342 -568 l 342 -568 q 422 -568 482 -543 q 541 -519 581 -474 q 620 -430 640 -369 q 660 -309 660 -237 l 660 -237 q 660 -147 635 -92 q 609 -37 564 -12 q 519 12 460 12 l 460 12 q 397 12 358 -11 q 319 -35 301 -72 q 282 -109 282 -151 l 282 -151 q 282 -201 301 -236 q 320 -271 353 -292 l 353 -292 q 375 -307 402 -316 q 428 -325 466 -329 q 503 -333 558 -333 l 558 -333 l 606 -333 l 606 -254 l 564 -254 q 503 -254 471 -248 q 439 -243 416 -227 l 416 -227 q 399 -215 390 -197 q 381 -179 381 -151 l 381 -151 q 381 -114 401 -90 q 421 -67 460 -67 l 460 -67 q 493 -67 516 -84 q 538 -102 551 -140 q 563 -178 563 -241 l 563 -241 q 563 -258 562 -274 q 560 -290 557 -303 l 557 -303 l 555 -321 q 547 -368 521 -406 q 495 -444 452 -466 q 409 -488 347 -488 l 347 -488 q 281 -488 235 -462 q 189 -437 165 -390 q 140 -344 140 -278 l 140 -278 q 140 -227 153 -186 q 166 -145 190 -112 q 213 -80 245 -54 l 245 -54 l 180 10 q 141 -20 109 -61 q 76 -103 57 -158 q 37 -213 37 -282 l 37 -282 q 37 -339 55 -390 q 73 -442 110 -482 q 147 -522 205 -545 q 263 -568 342 -568 z m 1080 -206 l 1080 -206 q 1015 -206 973 -231 q 930 -257 910 -297 q 889 -338 889 -382 l 889 -382 q 889 -421 901 -451 q 913 -481 928 -496 l 928 -496 l 945 -478 l 751 -478 l 791 -496 q 804 -480 814 -455 q 823 -430 823 -401 l 823 -401 q 823 -345 798 -313 q 772 -281 728 -267 q 684 -254 629 -254 l 629 -254 l 598 -254 l 598 -333 l 628 -333 q 658 -333 682 -338 q 705 -344 718 -360 q 731 -376 731 -405 l 731 -405 q 731 -428 724 -446 q 716 -464 705 -480 l 705 -480 l 732 -556 l 990 -556 l 1025 -502 q 1009 -483 998 -457 q 987 -431 987 -394 l 987 -394 q 987 -344 1011 -314 q 1034 -284 1079 -284 l 1079 -284 q 1110 -284 1131 -298 q 1151 -312 1162 -335 q 1173 -359 1173 -389 l 1173 -389 q 1173 -428 1160 -457 q 1146 -487 1121 -512 l 1121 -512 l 1189 -565 q 1225 -530 1248 -486 q 1271 -443 1271 -386 l 1271 -386 q 1271 -332 1247 -291 q 1223 -251 1181 -228 q 1138 -206 1080 -206 z"},"ൟ":{"ha":1277,"x_min":27,"x_max":1250,"o":"m 27 -269 l 27 -269 q 27 -327 63 -363 q 99 -400 157 -400 l 157 -400 q 217 -400 253 -364 q 289 -328 289 -269 l 289 -269 q 289 -210 253 -173 q 217 -137 157 -137 l 157 -137 q 98 -137 63 -173 q 27 -210 27 -269 z m 104 -270 l 104 -270 q 104 -242 118 -224 q 131 -206 157 -206 l 157 -206 q 185 -206 199 -224 q 213 -242 213 -270 l 213 -270 q 213 -297 199 -314 q 184 -331 157 -331 l 157 -331 q 132 -331 118 -314 q 104 -297 104 -270 z m 988 -269 l 988 -269 q 988 -327 1024 -363 q 1060 -400 1118 -400 l 1118 -400 q 1178 -400 1214 -364 q 1250 -328 1250 -269 l 1250 -269 q 1250 -210 1214 -173 q 1178 -137 1118 -137 l 1118 -137 q 1059 -137 1024 -173 q 988 -210 988 -269 z m 1065 -270 l 1065 -270 q 1065 -242 1079 -224 q 1092 -206 1118 -206 l 1118 -206 q 1146 -206 1160 -224 q 1173 -242 1173 -270 l 1173 -270 q 1173 -297 1159 -314 q 1145 -331 1118 -331 l 1118 -331 q 1093 -331 1079 -314 q 1065 -297 1065 -270 z m 631 -568 l 631 -568 q 711 -568 771 -544 q 831 -520 871 -475 q 910 -431 930 -371 q 950 -311 950 -240 l 950 -240 q 950 -150 925 -94 q 899 -38 854 -13 q 808 12 748 12 l 748 12 q 685 12 645 -16 q 604 -45 584 -93 q 564 -142 564 -200 l 564 -200 q 564 -295 610 -350 q 656 -405 738 -405 l 738 -405 q 787 -405 824 -380 q 860 -355 884 -314 q 907 -274 914 -225 l 914 -225 l 881 -221 q 874 -246 858 -270 q 842 -295 818 -311 q 793 -328 760 -328 l 760 -328 q 709 -328 686 -293 q 662 -259 662 -199 l 662 -199 q 662 -158 672 -128 q 681 -99 701 -82 q 720 -66 751 -66 l 751 -66 q 783 -66 806 -84 q 828 -102 841 -141 q 853 -181 853 -245 l 853 -245 q 853 -251 852 -270 q 850 -290 847 -309 l 847 -309 q 846 -314 846 -321 q 846 -329 844 -333 l 844 -333 q 836 -375 810 -410 q 784 -445 741 -466 q 698 -488 636 -488 l 636 -488 q 571 -488 525 -462 q 478 -437 454 -390 q 429 -344 429 -278 l 429 -278 q 429 -227 442 -186 q 455 -145 479 -112 q 502 -80 534 -54 l 534 -54 l 469 10 q 430 -20 398 -61 q 365 -103 346 -158 q 327 -213 327 -282 l 327 -282 q 327 -339 345 -390 q 362 -442 399 -482 q 436 -522 494 -545 q 552 -568 631 -568 z"},"ൠ":{"ha":839,"x_min":35,"x_max":804,"o":"m 626 -568 l 626 -568 q 708 -568 756 -513 q 804 -458 804 -357 l 804 -357 q 804 -290 782 -239 q 759 -188 716 -152 l 716 -152 q 688 -127 651 -112 q 614 -97 567 -90 l 567 -90 l 459 -96 l 376 -95 l 284 -88 q 236 -94 201 -107 q 165 -120 137 -143 l 137 -143 q 87 -179 61 -232 q 35 -286 35 -355 l 35 -355 q 35 -420 58 -468 q 81 -516 123 -542 q 165 -568 224 -568 l 224 -568 q 279 -568 315 -545 q 351 -523 369 -486 q 387 -449 387 -404 l 387 -404 q 387 -356 369 -320 q 351 -284 317 -264 q 282 -244 231 -244 l 231 -244 q 192 -244 161 -257 q 130 -270 107 -289 q 83 -309 66 -328 l 66 -328 l 92 -398 q 108 -378 124 -360 q 139 -342 160 -331 q 181 -320 212 -320 l 212 -320 q 253 -320 272 -343 q 291 -366 291 -406 l 291 -406 q 291 -443 273 -467 q 254 -491 218 -491 l 218 -491 q 188 -491 168 -475 q 147 -460 137 -431 q 127 -403 127 -363 l 127 -363 q 127 -347 129 -332 q 131 -318 134 -304 l 134 -304 l 129 -287 q 143 -250 168 -225 q 192 -200 226 -185 q 260 -171 303 -164 q 346 -158 396 -158 l 396 -158 l 441 -158 q 493 -158 537 -164 q 580 -171 615 -185 q 650 -200 674 -225 q 698 -250 711 -288 l 711 -288 l 706 -305 q 709 -317 711 -332 q 713 -347 713 -358 l 713 -358 q 713 -403 703 -432 q 693 -462 674 -476 q 654 -491 626 -491 l 626 -491 q 588 -491 569 -467 q 549 -443 549 -404 l 549 -404 q 549 -365 568 -342 q 587 -320 627 -320 l 627 -320 q 657 -320 679 -330 q 700 -341 716 -358 q 732 -376 747 -395 l 747 -395 l 773 -327 q 757 -308 734 -289 q 710 -270 679 -257 q 648 -244 609 -244 l 609 -244 q 557 -244 523 -264 q 488 -285 471 -321 q 453 -357 453 -403 l 453 -403 q 453 -449 472 -486 q 491 -524 530 -546 q 568 -568 626 -568 z m 422 224 l 422 224 q 309 224 232 205 q 155 185 117 143 q 78 100 78 33 l 78 33 q 78 -12 101 -43 q 124 -75 164 -95 q 203 -115 254 -124 q 305 -133 362 -133 l 362 -133 l 474 -133 q 533 -133 585 -124 q 637 -115 677 -95 q 716 -75 739 -43 q 762 -11 762 35 l 762 35 q 762 95 727 138 q 692 180 617 202 q 541 224 422 224 z m 422 146 l 422 146 q 510 146 563 133 q 615 120 639 95 q 662 69 662 32 l 662 32 q 662 -3 644 -25 q 625 -47 592 -59 q 559 -72 517 -77 q 475 -82 427 -82 l 427 -82 l 411 -82 q 346 -82 293 -72 q 240 -62 209 -37 q 177 -13 177 31 l 177 31 q 177 71 201 96 q 225 121 279 134 q 333 146 422 146 z m 497 -44 l 497 -44 q 528 -44 547 -32 q 566 -21 576 -3 q 585 14 589 34 q 592 54 592 70 l 592 70 l 592 98 l 522 98 l 522 84 q 522 56 516 42 q 509 27 489 27 l 489 27 q 468 27 461 42 q 454 56 454 81 l 454 81 l 454 98 l 384 98 l 384 82 q 384 57 378 42 q 371 27 351 27 l 351 27 q 330 27 324 43 q 318 58 318 84 l 318 84 l 318 98 l 248 98 l 248 70 q 248 54 251 34 q 254 14 264 -3 q 274 -21 293 -32 q 312 -44 343 -44 l 343 -44 q 372 -44 390 -33 q 407 -23 420 -5 l 420 -5 q 433 -24 452 -34 q 470 -44 497 -44 z"},"ൡ":{"ha":1245,"x_min":39,"x_max":1219,"o":"m 340 -568 l 340 -568 q 418 -568 466 -542 q 514 -517 553 -468 l 553 -468 l 566 -397 l 584 -238 l 584 0 l 484 0 l 484 -303 q 484 -365 475 -399 q 465 -433 445 -453 l 445 -453 q 427 -470 403 -479 q 379 -488 339 -488 l 339 -488 q 277 -488 231 -457 q 184 -427 158 -371 q 132 -316 132 -243 l 132 -243 l 132 -228 q 132 -171 145 -135 q 157 -99 179 -82 q 200 -66 228 -66 l 228 -66 q 249 -66 264 -76 q 279 -87 288 -107 q 297 -128 297 -160 l 297 -160 q 297 -209 277 -232 q 256 -256 219 -256 l 219 -256 q 185 -256 156 -237 q 126 -219 98 -187 l 98 -187 l 81 -256 q 108 -287 150 -310 q 192 -333 241 -333 l 241 -333 q 288 -333 323 -313 q 357 -294 376 -257 q 394 -220 394 -166 l 394 -166 q 394 -109 374 -69 q 354 -29 317 -8 q 280 12 229 12 l 229 12 q 178 12 135 -13 q 92 -39 66 -95 q 39 -151 39 -241 l 39 -241 q 39 -350 79 -422 q 119 -495 188 -531 q 256 -568 340 -568 z m 745 -568 l 745 -568 q 829 -568 889 -537 q 949 -507 986 -454 q 1022 -402 1035 -333 l 1035 -333 q 1040 -308 1043 -281 q 1045 -255 1045 -227 l 1045 -227 q 1045 -143 1021 -90 q 997 -37 953 -12 q 908 12 846 12 l 846 12 q 784 12 744 -14 q 704 -40 685 -82 q 666 -124 666 -173 l 666 -173 q 666 -275 733 -331 q 800 -387 918 -387 l 918 -387 q 931 -387 943 -386 q 955 -386 966 -384 l 966 -384 l 993 -382 q 1063 -370 1114 -330 q 1165 -290 1192 -229 q 1219 -169 1219 -93 l 1219 -93 q 1219 -28 1201 26 q 1183 80 1147 119 q 1110 158 1054 180 q 997 201 922 201 l 922 201 q 878 201 841 194 q 803 187 773 177 l 773 177 l 802 99 q 829 109 858 114 q 887 119 922 119 l 922 119 q 979 119 1018 102 q 1056 85 1079 55 q 1102 25 1112 -13 q 1122 -52 1122 -95 l 1122 -95 q 1122 -146 1110 -184 q 1098 -222 1075 -249 q 1052 -277 1019 -294 l 1019 -294 l 984 -300 q 969 -305 952 -307 q 935 -310 920 -310 l 920 -310 q 870 -310 836 -294 q 801 -279 783 -249 q 765 -220 765 -174 l 765 -174 q 765 -145 774 -120 q 782 -96 801 -81 q 819 -67 849 -67 l 849 -67 q 899 -67 924 -105 q 949 -143 949 -229 l 949 -229 q 949 -259 946 -288 q 942 -317 934 -343 l 934 -343 l 929 -365 q 916 -401 892 -428 q 868 -456 832 -472 q 796 -488 745 -488 l 745 -488 q 714 -488 686 -480 q 657 -472 634 -452 l 634 -452 q 618 -438 607 -417 q 596 -397 590 -365 q 584 -334 584 -285 l 584 -285 l 584 -207 l 521 -458 q 545 -491 577 -516 q 608 -541 650 -554 q 691 -568 745 -568 z"},"ൢ":{"ha":0,"x_min":-775,"x_max":-32,"o":"m -557 -21 l -557 -21 q -505 -21 -465 -4 q -426 12 -396 49 l -396 49 l -364 161 l -364 332 l -448 332 l -448 175 q -448 133 -455 108 q -463 83 -481 68 l -481 68 q -494 57 -513 51 q -532 45 -559 45 l -559 45 q -587 45 -615 55 q -644 64 -664 84 q -685 104 -694 136 l -694 136 q -696 146 -697 157 q -698 167 -698 181 l -698 181 q -698 234 -679 254 q -661 273 -637 273 l -637 273 q -612 273 -597 258 q -583 243 -583 213 l -583 213 q -583 183 -598 169 q -613 154 -638 154 l -638 154 q -665 154 -687 168 q -709 181 -730 204 l -730 204 l -745 152 q -719 126 -687 108 q -656 90 -622 90 l -622 90 q -564 90 -535 124 q -506 157 -506 212 l -506 212 q -506 269 -539 303 q -572 337 -637 337 l -637 337 q -701 337 -737 294 q -774 250 -774 174 l -774 174 q -774 113 -745 70 q -716 26 -666 3 q -617 -21 -557 -21 z m -248 -20 l -248 -20 q -184 -20 -135 4 q -86 28 -59 73 q -32 117 -32 177 l -32 177 q -32 261 -71 299 q -111 337 -173 337 l -173 337 q -217 337 -246 319 q -275 301 -289 272 q -304 242 -304 207 l -304 207 q -304 167 -289 138 q -274 109 -247 94 q -220 79 -183 79 l -183 79 q -150 79 -126 94 q -102 109 -85 136 q -69 163 -60 199 l -60 199 l -88 200 q -98 174 -116 158 q -135 141 -163 141 l -163 141 q -196 141 -211 159 q -227 177 -227 207 l -227 207 q -227 237 -213 255 q -199 272 -171 272 l -171 272 q -141 272 -125 249 q -109 225 -109 176 l -109 176 q -109 169 -110 159 q -111 148 -112 139 l -112 139 l -117 119 q -124 99 -142 83 q -160 66 -186 56 q -213 45 -246 45 l -246 45 q -276 45 -297 52 q -318 58 -331 70 l -331 70 q -350 89 -357 115 q -364 140 -364 184 l -364 184 l -436 141 q -433 88 -409 53 q -386 17 -344 -1 q -303 -20 -248 -20 z"},"ൣ":{"ha":0,"x_min":-775,"x_max":80,"o":"m -557 -21 l -557 -21 q -505 -21 -465 -4 q -426 12 -396 49 l -396 49 l -364 161 l -364 332 l -448 332 l -448 175 q -448 133 -455 108 q -463 83 -481 68 l -481 68 q -494 57 -513 51 q -532 45 -559 45 l -559 45 q -587 45 -615 55 q -644 64 -664 84 q -685 104 -694 136 l -694 136 q -696 146 -697 157 q -698 167 -698 181 l -698 181 q -698 234 -679 254 q -661 273 -637 273 l -637 273 q -612 273 -597 258 q -583 243 -583 213 l -583 213 q -583 183 -598 169 q -613 154 -638 154 l -638 154 q -665 154 -687 168 q -709 181 -730 204 l -730 204 l -745 152 q -719 126 -687 108 q -656 90 -622 90 l -622 90 q -564 90 -535 124 q -506 157 -506 212 l -506 212 q -506 269 -539 303 q -572 337 -637 337 l -637 337 q -701 337 -737 294 q -774 250 -774 174 l -774 174 q -774 113 -745 70 q -716 26 -666 3 q -617 -21 -557 -21 z m -248 -20 l -248 -20 q -190 -20 -141 2 q -93 23 -64 67 q -35 111 -35 178 l -35 178 q -35 233 -52 268 q -69 303 -100 320 q -131 337 -172 337 l -172 337 q -218 337 -247 321 q -276 304 -290 276 q -304 248 -304 215 l -304 215 q -304 153 -262 115 q -220 76 -130 76 l -130 76 q -120 76 -107 77 q -95 77 -81 79 l -81 79 q -41 86 -3 107 q 34 128 57 166 q 80 203 80 263 l 80 263 q 80 291 74 318 q 68 344 57 363 l 57 363 l -15 335 q -7 320 -3 301 q 1 281 1 262 l 1 262 q 1 217 -16 189 q -33 160 -66 146 l -66 146 l -86 143 q -96 141 -107 140 q -118 138 -129 138 l -129 138 q -179 138 -203 160 q -227 182 -227 216 l -227 216 q -227 242 -213 257 q -200 272 -172 272 l -172 272 q -143 272 -127 249 q -111 226 -111 175 l -111 175 q -111 161 -113 147 q -115 133 -119 120 l -119 120 l -126 101 q -137 83 -155 71 q -173 58 -196 52 q -220 45 -246 45 l -246 45 q -276 45 -297 52 q -318 58 -331 70 l -331 70 q -350 89 -357 115 q -364 140 -364 184 l -364 184 l -435 141 q -434 102 -420 72 q -406 42 -381 22 q -356 1 -322 -9 q -289 -20 -248 -20 z"},"൦":{"ha":540,"x_min":38,"x_max":502,"o":"m 271 -41 l 271 -41 q 199 -41 147 -70 q 95 -99 67 -153 q 38 -208 38 -283 l 38 -283 q 38 -357 68 -411 q 97 -465 149 -494 q 201 -523 270 -523 l 270 -523 q 341 -523 393 -494 q 445 -465 474 -411 q 502 -358 502 -283 l 502 -283 q 502 -208 473 -153 q 444 -99 392 -70 q 340 -41 271 -41 z m 271 -121 l 271 -121 q 307 -121 337 -138 q 366 -155 384 -191 q 401 -227 401 -283 l 401 -283 q 401 -365 364 -404 q 326 -443 270 -443 l 270 -443 q 214 -443 177 -404 q 140 -366 140 -281 l 140 -281 q 140 -200 178 -160 q 215 -121 271 -121 z"},"൧":{"ha":845,"x_min":11,"x_max":786,"o":"m 365 120 l 365 201 l 230 201 q 171 201 133 193 q 95 185 69 169 l 69 169 q 41 152 26 125 q 11 98 11 63 l 11 63 q 11 28 25 0 q 39 -29 68 -48 l 68 -48 q 83 -58 102 -64 q 121 -71 149 -75 q 176 -79 214 -79 l 214 -79 l 413 -79 l 428 0 l 230 0 q 189 0 171 3 q 152 5 141 11 l 141 11 q 125 18 119 30 q 112 42 112 58 l 112 58 q 112 88 134 103 l 134 103 q 147 112 169 116 q 191 120 232 120 l 232 120 l 365 120 z m 551 -568 l 551 -568 q 609 -568 652 -552 q 694 -537 723 -509 l 723 -509 q 758 -475 772 -426 q 786 -377 786 -302 l 786 -302 l 786 0 l 317 0 l 317 -300 q 317 -353 324 -391 q 330 -430 344 -458 q 358 -486 381 -509 l 381 -509 q 409 -537 452 -552 q 494 -568 551 -568 z m 551 -488 l 551 -488 q 519 -488 495 -478 q 471 -468 455 -451 l 455 -451 q 436 -430 427 -395 q 417 -360 417 -293 l 417 -293 l 417 -79 l 686 -79 l 686 -286 q 686 -355 677 -392 q 667 -430 648 -451 l 648 -451 q 632 -468 608 -478 q 584 -488 551 -488 z"},"൨":{"ha":803,"x_min":37,"x_max":786,"o":"m 321 -568 l 321 -568 q 393 -568 446 -546 q 498 -524 532 -485 q 566 -446 582 -395 q 598 -344 598 -287 l 598 -287 q 598 -232 586 -188 q 573 -145 552 -110 q 530 -75 503 -44 l 503 -44 l 501 -79 l 786 -79 l 786 0 l 439 0 l 399 -60 q 424 -82 446 -112 q 468 -143 482 -183 q 495 -224 495 -277 l 495 -277 q 495 -342 474 -389 q 453 -436 414 -462 q 375 -488 320 -488 l 320 -488 q 264 -488 224 -461 q 184 -435 163 -388 q 141 -341 141 -279 l 141 -279 q 141 -228 154 -186 q 166 -145 190 -112 q 213 -80 246 -54 l 246 -54 l 180 10 q 141 -20 109 -61 q 76 -103 57 -158 q 37 -213 37 -282 l 37 -282 q 37 -341 55 -393 q 72 -445 108 -484 q 143 -523 196 -545 q 249 -568 321 -568 z"},"൩":{"ha":1013,"x_min":37,"x_max":995,"o":"m 272 -568 l 272 -568 q 314 -568 343 -556 q 372 -545 394 -525 q 416 -505 434 -479 l 434 -479 l 421 -480 q 452 -526 492 -547 q 531 -568 588 -568 l 588 -568 q 661 -568 712 -533 q 763 -498 790 -437 q 817 -376 817 -299 l 817 -299 q 817 -241 806 -197 q 795 -153 775 -116 q 754 -80 725 -45 l 725 -45 l 696 0 l 660 0 l 620 -54 q 648 -86 669 -120 q 690 -155 702 -197 q 714 -239 714 -295 l 714 -295 q 714 -353 698 -396 q 681 -440 651 -464 q 621 -488 583 -488 l 583 -488 q 553 -488 534 -478 q 514 -468 501 -449 l 501 -449 q 488 -430 483 -399 q 477 -369 477 -314 l 477 -314 l 477 0 l 377 0 l 377 -313 q 377 -369 372 -399 q 366 -429 352 -449 l 352 -449 q 340 -468 321 -478 q 301 -488 273 -488 l 273 -488 q 236 -488 206 -465 q 175 -442 158 -398 q 140 -355 140 -295 l 140 -295 q 140 -239 153 -195 q 166 -151 189 -116 q 211 -82 241 -53 l 241 -53 l 169 9 q 131 -29 101 -72 q 71 -116 54 -171 q 37 -226 37 -296 l 37 -296 q 37 -376 65 -437 q 93 -499 146 -533 q 198 -568 272 -568 z m 677 0 l 729 -79 l 995 -79 l 995 0 l 677 0 z"},"൪":{"ha":747,"x_min":37,"x_max":742,"o":"m 340 -568 l 340 -568 q 413 -568 467 -546 q 520 -525 562 -485 l 562 -485 q 614 -437 643 -370 q 671 -303 671 -224 l 671 -224 q 671 -146 647 -93 q 623 -41 577 -14 q 531 12 465 12 l 465 12 q 401 12 358 -13 q 315 -39 293 -83 q 271 -127 271 -182 l 271 -182 q 271 -247 297 -296 q 323 -346 374 -389 q 424 -433 497 -479 l 497 -479 q 551 -511 582 -532 q 613 -554 627 -574 q 640 -595 640 -621 l 640 -621 q 640 -640 634 -658 q 627 -676 616 -691 l 616 -691 l 709 -734 q 725 -711 734 -684 q 742 -657 742 -626 l 742 -626 q 742 -579 720 -545 q 698 -511 655 -481 q 612 -452 550 -415 l 550 -415 q 492 -378 453 -343 q 413 -309 393 -270 q 372 -231 372 -181 l 372 -181 q 372 -122 398 -94 q 424 -67 465 -67 l 465 -67 q 500 -67 523 -83 q 545 -99 557 -132 q 568 -166 568 -219 l 568 -219 q 568 -280 547 -339 q 526 -398 481 -438 l 481 -438 q 456 -461 422 -475 q 387 -489 344 -489 l 344 -489 q 280 -489 235 -463 q 189 -438 165 -391 q 140 -345 140 -279 l 140 -279 q 140 -227 153 -186 q 165 -145 189 -112 q 213 -80 245 -54 l 245 -54 l 180 10 q 141 -20 109 -61 q 76 -103 57 -158 q 37 -213 37 -282 l 37 -282 q 37 -339 55 -390 q 73 -442 110 -482 q 147 -522 204 -545 q 261 -568 340 -568 z"},"൫":{"ha":930,"x_min":43,"x_max":887,"o":"m 473 -725 l 473 -725 q 578 -725 656 -692 q 734 -659 786 -599 q 837 -539 862 -457 q 887 -376 887 -278 l 887 -278 q 887 -207 873 -134 q 858 -61 821 11 l 821 11 l 733 -28 q 751 -65 763 -106 q 775 -148 781 -192 q 787 -236 787 -279 l 787 -279 q 787 -356 768 -422 q 749 -488 711 -537 q 672 -587 613 -615 q 554 -643 473 -643 l 473 -643 q 372 -643 298 -597 q 224 -551 184 -464 q 143 -378 143 -255 l 143 -255 q 143 -186 157 -122 q 171 -59 201 -10 q 231 39 281 67 q 331 95 404 95 l 404 95 q 499 95 544 53 q 588 11 588 -63 l 588 -63 q 588 -104 574 -137 q 559 -171 530 -191 q 500 -211 452 -211 l 452 -211 l 441 -211 l 441 -289 l 459 -289 q 492 -289 515 -294 q 538 -300 553 -314 l 553 -314 q 565 -325 572 -340 q 578 -356 578 -377 l 578 -377 q 578 -417 553 -439 q 528 -462 481 -462 l 481 -462 q 433 -462 402 -436 q 370 -411 356 -368 q 341 -325 341 -271 l 341 -271 q 341 -207 359 -147 q 377 -88 414 -39 l 414 -39 l 327 8 q 285 -57 263 -126 q 240 -195 240 -273 l 240 -273 q 240 -354 270 -414 q 299 -475 354 -509 q 409 -543 484 -543 l 484 -543 q 549 -543 592 -521 q 635 -500 657 -464 q 678 -428 678 -384 l 678 -384 q 678 -353 668 -326 q 658 -300 636 -279 q 613 -259 575 -244 l 575 -244 l 566 -254 q 625 -230 657 -180 q 688 -131 688 -62 l 688 -62 q 688 16 654 70 q 620 123 557 151 q 494 178 405 178 l 405 178 q 294 178 213 128 q 132 77 88 -19 q 43 -115 43 -252 l 43 -252 q 43 -372 77 -461 q 111 -550 171 -608 q 230 -667 308 -696 q 386 -725 473 -725 z"},"൬":{"ha":1145,"x_min":37,"x_max":1103,"o":"m 566 -568 l 566 -568 q 624 -568 662 -546 q 699 -524 723 -483 l 723 -483 l 769 -300 l 769 0 l 669 0 l 669 -324 q 669 -375 664 -406 q 658 -437 642 -456 l 642 -456 q 630 -472 612 -480 q 594 -488 567 -488 l 567 -488 q 544 -488 525 -479 q 505 -470 493 -454 l 493 -454 q 477 -434 470 -403 q 463 -372 463 -317 l 463 -317 l 463 0 l 363 0 l 363 -315 q 363 -366 359 -397 q 354 -428 340 -450 l 340 -450 q 328 -468 310 -478 q 292 -488 265 -488 l 265 -488 q 231 -488 203 -465 q 174 -443 157 -400 q 139 -357 139 -294 l 139 -294 q 139 -239 153 -195 q 166 -151 189 -116 q 211 -82 241 -53 l 241 -53 l 168 10 q 130 -29 100 -72 q 70 -116 54 -171 q 37 -226 37 -296 l 37 -296 q 37 -378 64 -439 q 91 -500 142 -534 q 193 -568 262 -568 l 262 -568 q 320 -568 356 -545 q 391 -523 419 -483 l 419 -483 l 408 -482 q 437 -526 477 -547 q 517 -568 566 -568 z m 877 -568 l 877 -568 q 984 -568 1044 -485 q 1103 -402 1103 -228 l 1103 -228 q 1103 -87 1068 9 q 1033 104 959 153 q 884 201 762 201 l 762 201 q 737 201 709 199 q 681 197 655 192 l 655 192 l 664 111 q 684 116 707 118 q 730 119 756 119 l 756 119 q 829 119 877 94 q 924 69 951 23 q 978 -23 989 -86 q 1000 -150 1000 -227 l 1000 -227 q 1000 -318 984 -375 q 968 -433 940 -460 q 911 -488 872 -488 l 872 -488 q 845 -488 826 -478 q 806 -469 793 -449 l 793 -449 q 779 -428 774 -396 q 769 -364 769 -308 l 769 -308 l 769 -10 l 678 -10 l 678 -322 l 713 -481 q 745 -528 784 -548 q 823 -568 877 -568 z"},"൭":{"ha":701,"x_min":38,"x_max":659,"o":"m 355 -568 l 355 -568 q 433 -568 491 -543 q 548 -518 586 -471 q 623 -424 641 -357 q 659 -290 659 -206 l 659 -206 q 659 -110 638 -34 q 617 41 574 94 q 530 146 465 174 q 399 201 309 201 l 309 201 q 281 201 253 199 q 224 197 196 192 l 196 192 l 205 111 q 225 115 250 117 q 275 119 302 119 l 302 119 q 375 119 424 95 q 473 71 502 27 q 531 -17 544 -77 q 556 -137 556 -207 l 556 -207 q 556 -346 502 -417 q 448 -488 349 -488 l 349 -488 q 284 -488 235 -455 q 185 -422 158 -366 q 131 -310 131 -240 l 131 -240 l 131 -226 q 131 -170 143 -134 q 155 -98 177 -82 q 198 -66 226 -66 l 226 -66 q 247 -66 263 -76 q 278 -87 287 -108 q 296 -129 296 -160 l 296 -160 q 296 -208 275 -232 q 254 -256 218 -256 l 218 -256 q 186 -256 158 -239 q 130 -223 103 -193 l 103 -193 l 80 -256 q 107 -287 149 -310 q 190 -333 239 -333 l 239 -333 q 287 -333 321 -313 q 355 -294 374 -257 q 392 -220 392 -166 l 392 -166 q 392 -109 373 -69 q 353 -30 316 -9 q 279 12 228 12 l 228 12 q 177 12 134 -13 q 90 -39 64 -94 q 38 -149 38 -236 l 38 -236 q 38 -341 79 -415 q 120 -489 192 -528 q 263 -568 355 -568 z"},"൮":{"ha":901,"x_min":37,"x_max":836,"o":"m 321 -568 l 321 -568 q 393 -568 446 -546 q 498 -524 532 -485 q 566 -446 582 -395 q 598 -344 598 -287 l 598 -287 q 598 -232 586 -188 q 573 -145 552 -110 q 530 -75 503 -44 l 503 -44 l 501 -79 l 736 -79 l 736 -556 l 836 -556 l 836 -150 l 768 0 l 439 0 l 399 -60 q 424 -82 446 -112 q 468 -143 482 -183 q 495 -224 495 -277 l 495 -277 q 495 -342 474 -389 q 453 -436 414 -462 q 375 -488 320 -488 l 320 -488 q 264 -488 224 -461 q 184 -435 163 -388 q 141 -341 141 -279 l 141 -279 q 141 -228 154 -186 q 166 -145 190 -112 q 213 -80 246 -54 l 246 -54 l 180 10 q 141 -20 109 -61 q 76 -103 57 -158 q 37 -213 37 -282 l 37 -282 q 37 -341 55 -393 q 72 -445 108 -484 q 143 -523 196 -545 q 249 -568 321 -568 z m 528 201 l 528 201 q 501 201 473 199 q 445 196 420 190 l 420 190 l 431 110 q 449 114 473 117 q 497 119 521 119 l 521 119 q 586 119 627 105 q 668 91 691 67 q 714 42 724 10 q 734 -22 736 -58 l 736 -58 l 836 -199 l 836 -117 q 836 -53 829 -6 q 821 41 804 74 q 787 106 759 132 l 759 132 q 723 165 665 183 q 607 201 528 201 z"},"൯":{"ha":1051,"x_min":37,"x_max":1046,"o":"m 272 -568 l 272 -568 q 313 -568 344 -557 q 375 -546 399 -525 q 423 -504 444 -474 l 444 -474 l 477 -235 l 477 0 l 377 0 l 377 -309 q 377 -369 372 -399 q 366 -429 352 -449 l 352 -449 q 340 -468 321 -478 q 301 -488 273 -488 l 273 -488 q 236 -488 206 -464 q 175 -441 158 -398 q 140 -355 140 -295 l 140 -295 q 140 -239 153 -195 q 166 -151 189 -116 q 211 -82 241 -53 l 241 -53 l 169 9 q 131 -29 101 -72 q 71 -116 54 -171 q 37 -226 37 -296 l 37 -296 q 37 -376 65 -437 q 93 -499 146 -533 q 199 -568 272 -568 z m 640 -568 l 640 -568 q 713 -568 769 -546 q 824 -525 867 -484 l 867 -484 q 918 -436 947 -369 q 975 -302 975 -224 l 975 -224 q 975 -146 951 -93 q 927 -41 882 -14 q 836 12 769 12 l 769 12 q 706 12 663 -13 q 619 -39 597 -83 q 575 -127 575 -182 l 575 -182 q 575 -247 601 -296 q 627 -346 678 -389 q 729 -433 802 -479 l 802 -479 q 855 -511 886 -532 q 917 -554 931 -574 q 945 -595 945 -621 l 945 -621 q 945 -640 938 -658 q 931 -676 921 -691 l 921 -691 l 1013 -734 q 1029 -711 1038 -684 q 1046 -657 1046 -626 l 1046 -626 q 1046 -579 1024 -545 q 1002 -511 960 -481 q 917 -452 855 -415 l 855 -415 q 797 -378 758 -343 q 718 -309 697 -270 q 676 -231 676 -181 l 676 -181 q 676 -122 702 -94 q 728 -67 770 -67 l 770 -67 q 805 -67 828 -83 q 850 -99 861 -132 q 872 -166 872 -219 l 872 -219 q 872 -281 851 -339 q 830 -398 785 -437 l 785 -437 q 759 -461 724 -475 q 688 -489 642 -489 l 642 -489 q 600 -489 573 -479 q 546 -470 526 -451 l 526 -451 q 510 -436 499 -414 q 488 -393 483 -360 q 477 -328 477 -279 l 477 -279 l 477 -66 l 387 -66 l 387 -297 l 415 -455 q 437 -490 468 -515 q 499 -541 542 -554 q 584 -568 640 -568 z"},"൰":{"ha":997,"x_min":-31,"x_max":960,"o":"m 206 -556 l 306 -556 l 306 -143 l 303 -108 q 303 -26 290 29 q 277 83 248 122 l 248 122 q 219 160 171 181 q 123 201 55 201 l 55 201 q 34 201 12 199 q -10 197 -31 192 l -31 192 l -22 111 q -8 115 8 117 q 24 119 43 119 l 43 119 q 89 119 119 106 q 149 93 167 72 l 167 72 q 189 46 198 7 q 206 -33 206 -98 l 206 -98 l 206 -556 z m 729 12 l 729 12 q 673 12 635 -10 q 596 -32 566 -75 l 566 -75 l 576 -76 q 547 -32 507 -10 q 467 12 415 12 l 415 12 q 374 12 345 0 q 316 -12 295 -34 q 273 -56 256 -87 l 256 -87 l 232 -258 l 232 -540 l 306 -538 l 306 -235 q 306 -181 312 -150 q 318 -120 334 -100 l 334 -100 q 346 -85 366 -76 q 385 -68 414 -68 l 414 -68 q 441 -68 460 -77 q 479 -87 492 -102 l 492 -102 q 509 -123 516 -153 q 522 -184 522 -242 l 522 -242 l 522 -556 l 622 -556 l 622 -248 q 622 -190 627 -159 q 632 -128 647 -108 l 647 -108 q 661 -88 681 -78 q 701 -68 726 -68 l 726 -68 q 764 -68 794 -92 q 824 -117 841 -160 q 858 -204 858 -262 l 858 -262 q 858 -318 845 -361 q 832 -405 809 -440 q 786 -476 756 -503 l 756 -503 l 828 -566 q 867 -528 897 -484 q 926 -440 943 -385 q 960 -330 960 -258 l 960 -258 q 960 -182 933 -120 q 906 -59 855 -23 q 804 12 729 12 z"},"൱":{"ha":855,"x_min":37,"x_max":813,"o":"m 272 -568 l 272 -568 q 314 -568 344 -556 q 373 -545 395 -525 q 417 -505 435 -478 l 435 -478 l 477 -235 l 477 0 l 377 0 l 377 -309 q 377 -369 372 -399 q 366 -429 352 -449 l 352 -449 q 340 -468 321 -478 q 301 -488 273 -488 l 273 -488 q 236 -488 206 -465 q 175 -442 158 -398 q 140 -355 140 -295 l 140 -295 q 140 -239 153 -195 q 166 -151 189 -116 q 211 -82 241 -53 l 241 -53 l 169 9 q 131 -29 101 -72 q 71 -116 54 -171 q 37 -226 37 -296 l 37 -296 q 37 -376 65 -437 q 93 -499 146 -533 q 199 -568 272 -568 z m 585 -568 l 585 -568 q 657 -568 708 -532 q 759 -496 786 -420 q 813 -345 813 -228 l 813 -228 q 813 -86 778 9 q 743 104 668 153 q 593 201 472 201 l 472 201 q 446 201 418 199 q 389 197 362 192 l 362 192 l 371 111 q 391 115 415 117 q 439 119 466 119 l 466 119 q 540 119 587 94 q 634 69 661 23 q 688 -23 699 -87 q 710 -151 710 -227 l 710 -227 q 710 -318 694 -375 q 678 -433 649 -460 q 620 -488 581 -488 l 581 -488 q 554 -488 535 -478 q 515 -469 502 -449 l 502 -449 q 487 -430 482 -398 q 477 -367 477 -309 l 477 -309 l 477 -10 l 386 -10 l 386 -315 l 422 -481 q 454 -528 493 -548 q 531 -568 585 -568 z"},"൲":{"ha":1326,"x_min":38,"x_max":1307,"o":"m 1146 -556 l 1146 -556 q 1203 -556 1239 -535 q 1274 -515 1291 -482 q 1307 -449 1307 -411 l 1307 -411 q 1307 -370 1293 -340 q 1278 -310 1251 -291 l 1251 -291 q 1233 -278 1211 -269 q 1188 -261 1159 -257 q 1129 -254 1088 -254 l 1088 -254 l 912 -254 l 914 -333 l 1093 -333 q 1129 -333 1149 -337 q 1169 -341 1181 -350 l 1181 -350 q 1196 -358 1204 -373 q 1211 -388 1211 -410 l 1211 -410 q 1211 -441 1195 -460 q 1178 -479 1146 -479 l 1146 -479 q 1111 -479 1093 -457 q 1074 -435 1074 -397 l 1074 -397 q 1074 -362 1085 -336 q 1096 -311 1113 -288 l 1113 -288 l 1021 -283 q 1005 -307 993 -339 q 981 -372 981 -409 l 981 -409 q 981 -456 1003 -489 q 1025 -522 1062 -539 q 1099 -556 1146 -556 z m 272 -568 l 272 -568 q 313 -568 343 -557 q 372 -547 396 -526 q 420 -505 443 -473 l 443 -473 l 477 -233 l 477 0 l 377 0 l 377 -309 q 377 -369 372 -399 q 367 -429 352 -449 l 352 -449 q 340 -468 321 -478 q 301 -488 273 -488 l 273 -488 q 236 -488 206 -465 q 176 -442 158 -398 q 140 -355 140 -295 l 140 -295 q 140 -239 153 -195 q 166 -151 189 -116 q 212 -82 241 -53 l 241 -53 l 169 9 q 131 -29 101 -72 q 71 -116 55 -171 q 38 -226 38 -296 l 38 -296 q 38 -376 66 -437 q 93 -499 146 -533 q 199 -568 272 -568 z m 631 -568 l 631 -568 q 697 -568 751 -546 q 804 -524 843 -481 q 882 -438 903 -376 q 923 -315 923 -237 l 923 -237 q 923 -147 898 -92 q 872 -37 827 -12 q 782 12 722 12 l 722 12 q 659 12 620 -11 q 581 -35 563 -72 q 545 -110 545 -151 l 545 -151 q 545 -201 564 -236 q 583 -271 616 -292 l 616 -292 q 638 -307 664 -316 q 690 -325 728 -329 q 766 -333 821 -333 l 821 -333 l 1051 -333 l 1051 -254 l 826 -254 q 766 -254 734 -248 q 702 -243 679 -227 l 679 -227 q 662 -216 653 -197 q 644 -179 644 -151 l 644 -151 q 644 -114 664 -90 q 684 -67 723 -67 l 723 -67 q 756 -67 779 -84 q 801 -102 813 -140 q 825 -178 825 -240 l 825 -240 q 825 -255 824 -271 q 823 -287 821 -301 l 821 -301 l 818 -321 q 810 -366 786 -404 q 762 -442 724 -465 q 685 -488 630 -488 l 630 -488 q 601 -488 576 -481 q 551 -474 531 -458 l 531 -458 q 513 -444 501 -423 q 489 -402 483 -370 q 477 -339 477 -291 l 477 -291 l 477 -207 l 415 -214 l 412 -460 q 436 -492 466 -516 q 495 -541 536 -554 q 576 -568 631 -568 z"},"൳":{"ha":719,"x_min":37,"x_max":697,"o":"m 225 12 l 225 12 q 173 12 130 -13 q 87 -39 62 -90 q 37 -142 37 -219 l 37 -219 q 37 -305 66 -364 q 95 -424 149 -460 l 149 -460 q 184 -483 225 -496 q 266 -510 319 -516 q 371 -522 441 -522 l 441 -522 l 697 -522 l 697 -439 l 464 -439 q 390 -439 341 -434 q 292 -430 260 -419 q 227 -409 202 -391 l 202 -391 q 173 -371 157 -341 q 140 -311 133 -273 l 133 -273 l 132 -255 q 131 -246 131 -236 q 131 -226 131 -213 l 131 -213 q 131 -162 143 -129 q 154 -97 175 -81 q 196 -66 224 -66 l 224 -66 q 246 -66 262 -76 q 278 -86 287 -107 q 295 -128 295 -160 l 295 -160 q 295 -208 275 -232 q 254 -256 218 -256 l 218 -256 q 186 -256 158 -239 q 129 -223 103 -193 l 103 -193 l 94 -271 q 120 -295 158 -314 q 195 -333 238 -333 l 238 -333 q 286 -333 321 -313 q 355 -294 374 -257 q 392 -220 392 -166 l 392 -166 q 392 -109 373 -69 q 353 -29 316 -8 q 278 12 225 12 z"},"൴":{"ha":871,"x_min":37,"x_max":834,"o":"m 453 -791 l 553 -791 l 553 -222 q 553 -186 556 -162 q 558 -138 563 -123 q 567 -108 575 -97 l 575 -97 q 586 -81 603 -73 q 619 -66 640 -66 l 640 -66 q 672 -66 692 -82 q 712 -99 722 -131 q 731 -164 731 -212 l 731 -212 q 731 -265 718 -310 q 704 -356 677 -392 q 650 -428 610 -451 q 569 -475 516 -485 l 516 -485 l 484 -485 q 471 -487 457 -487 q 443 -488 429 -488 l 429 -488 q 362 -488 307 -470 q 252 -453 213 -420 q 173 -387 152 -341 q 131 -296 131 -240 l 131 -240 l 131 -224 q 131 -169 143 -133 q 155 -98 177 -82 q 198 -66 226 -66 l 226 -66 q 247 -66 263 -76 q 278 -86 287 -107 q 295 -128 295 -160 l 295 -160 q 295 -208 275 -232 q 254 -256 218 -256 l 218 -256 q 186 -256 158 -239 q 129 -223 103 -193 l 103 -193 l 94 -271 q 120 -295 158 -314 q 195 -333 238 -333 l 238 -333 q 286 -333 321 -313 q 355 -294 374 -257 q 392 -220 392 -166 l 392 -166 q 392 -109 372 -69 q 352 -30 316 -9 q 279 12 227 12 l 227 12 q 177 12 134 -13 q 90 -39 64 -92 q 37 -145 37 -230 l 37 -230 q 37 -308 64 -370 q 91 -433 142 -477 q 193 -521 266 -544 q 338 -568 429 -568 l 429 -568 q 445 -568 461 -568 q 476 -568 491 -566 l 491 -566 l 529 -564 q 595 -554 651 -526 q 707 -499 748 -455 q 789 -411 812 -350 q 834 -290 834 -214 l 834 -214 q 834 -145 812 -94 q 790 -43 747 -15 q 704 12 640 12 l 640 12 q 598 12 565 1 q 531 -11 509 -34 l 509 -34 q 490 -53 478 -77 q 465 -102 459 -139 q 453 -177 453 -234 l 453 -234 l 453 -791 z"},"൵":{"ha":1158,"x_min":39,"x_max":1153,"o":"m 340 -568 l 340 -568 q 418 -568 467 -542 q 515 -516 553 -466 l 553 -466 l 565 -399 l 584 -238 l 584 0 l 484 0 l 484 -303 q 484 -365 475 -399 q 465 -433 445 -453 l 445 -453 q 427 -470 403 -479 q 379 -488 339 -488 l 339 -488 q 277 -488 231 -457 q 184 -427 158 -371 q 132 -316 132 -243 l 132 -243 l 132 -228 q 132 -171 145 -135 q 157 -99 179 -82 q 200 -66 228 -66 l 228 -66 q 249 -66 264 -76 q 279 -87 288 -107 q 297 -128 297 -160 l 297 -160 q 297 -209 277 -232 q 256 -256 219 -256 l 219 -256 q 185 -256 156 -237 q 126 -219 98 -187 l 98 -187 l 81 -256 q 108 -287 150 -310 q 192 -333 241 -333 l 241 -333 q 288 -333 323 -313 q 357 -294 376 -257 q 394 -220 394 -166 l 394 -166 q 394 -109 374 -69 q 354 -29 317 -8 q 280 12 229 12 l 229 12 q 178 12 135 -13 q 92 -39 66 -95 q 39 -151 39 -241 l 39 -241 q 39 -350 79 -422 q 119 -495 188 -531 q 256 -568 340 -568 z m 747 -568 l 747 -568 q 821 -568 876 -546 q 931 -525 974 -484 l 974 -484 q 1025 -436 1054 -369 q 1082 -302 1082 -224 l 1082 -224 q 1082 -146 1059 -93 q 1035 -41 989 -14 q 943 12 877 12 l 877 12 q 813 12 770 -13 q 726 -39 704 -83 q 682 -127 682 -182 l 682 -182 q 682 -247 709 -296 q 735 -346 786 -389 q 836 -433 909 -479 l 909 -479 q 962 -511 994 -532 q 1025 -554 1039 -574 q 1052 -595 1052 -621 l 1052 -621 q 1052 -640 1046 -658 q 1039 -676 1028 -691 l 1028 -691 l 1120 -734 q 1137 -711 1145 -684 q 1153 -657 1153 -626 l 1153 -626 q 1153 -579 1131 -545 q 1109 -511 1067 -481 q 1024 -452 962 -415 l 962 -415 q 904 -378 865 -343 q 825 -309 804 -270 q 783 -231 783 -181 l 783 -181 q 783 -122 809 -94 q 835 -67 877 -67 l 877 -67 q 912 -67 935 -83 q 957 -99 968 -132 q 979 -166 979 -219 l 979 -219 q 979 -281 958 -339 q 937 -398 892 -437 l 892 -437 q 866 -461 831 -475 q 795 -489 749 -489 l 749 -489 q 708 -489 681 -479 q 653 -470 633 -451 l 633 -451 q 617 -436 606 -414 q 595 -393 590 -360 q 584 -328 584 -279 l 584 -279 l 584 -66 l 494 -66 l 494 -297 l 522 -455 q 544 -490 575 -515 q 606 -541 649 -554 q 691 -568 747 -568 z"},"൶":{"ha":1288,"x_min":31,"x_max":1233,"o":"m 222 -351 l 222 -351 q 288 -351 330 -325 q 372 -299 393 -259 q 413 -219 413 -175 l 413 -175 q 413 -136 401 -106 q 388 -76 374 -61 l 374 -61 l 357 -79 l 686 -79 l 689 0 l 312 0 l 277 -54 q 292 -74 304 -100 q 315 -126 315 -163 l 315 -163 q 315 -212 292 -242 q 268 -272 223 -272 l 223 -272 q 193 -272 172 -258 q 151 -245 140 -221 q 129 -197 129 -168 l 129 -168 q 129 -128 143 -99 q 157 -70 181 -45 l 181 -45 l 113 8 q 77 -27 54 -70 q 31 -114 31 -170 l 31 -170 q 31 -224 55 -264 q 78 -305 122 -328 q 165 -351 222 -351 z m 936 -568 l 936 -568 q 1013 -568 1068 -549 q 1122 -531 1157 -497 l 1157 -497 q 1184 -472 1201 -440 q 1217 -408 1225 -365 q 1233 -323 1233 -267 l 1233 -267 l 1233 0 l 654 0 l 654 -269 q 654 -324 662 -365 q 670 -407 687 -439 q 703 -472 728 -496 l 728 -496 q 764 -531 814 -549 q 863 -568 936 -568 z m 883 -488 l 883 -488 q 850 -488 824 -469 q 798 -451 782 -418 l 782 -418 q 769 -392 762 -355 q 754 -318 754 -262 l 754 -262 l 754 -66 l 747 -67 q 805 -117 850 -173 q 895 -229 921 -287 q 947 -345 947 -401 l 947 -401 q 947 -427 941 -446 q 934 -466 920 -477 q 906 -488 883 -488 z m 1047 -387 l 1047 -387 q 1047 -330 1025 -275 q 1003 -221 963 -167 q 922 -114 867 -59 l 867 -59 l 856 -74 q 880 -76 908 -77 q 936 -79 956 -79 l 956 -79 l 1133 -79 l 1133 -262 q 1133 -330 1120 -375 q 1107 -421 1079 -448 q 1051 -476 1005 -491 l 1005 -491 l 1007 -496 q 1024 -476 1036 -449 q 1047 -423 1047 -387 z"},"൷":{"ha":1625,"x_min":31,"x_max":1605,"o":"m 222 -351 l 222 -351 q 288 -351 330 -325 q 372 -299 393 -259 q 413 -219 413 -175 l 413 -175 q 413 -136 401 -106 q 388 -76 374 -61 l 374 -61 l 356 -79 l 634 -79 l 673 0 l 312 0 l 277 -54 q 293 -74 304 -99 q 315 -125 315 -163 l 315 -163 q 315 -212 292 -242 q 268 -272 223 -272 l 223 -272 q 193 -272 172 -258 q 151 -245 140 -221 q 129 -197 129 -168 l 129 -168 q 129 -128 143 -99 q 157 -70 181 -45 l 181 -45 l 113 8 q 77 -27 54 -70 q 31 -114 31 -170 l 31 -170 q 31 -224 55 -264 q 78 -305 122 -328 q 165 -351 222 -351 z m 756 -568 l 756 -568 q 797 -568 827 -557 q 856 -547 880 -526 q 904 -505 927 -473 l 927 -473 l 961 -276 l 961 -230 l 861 -230 l 861 -309 q 861 -368 856 -398 q 850 -429 836 -449 l 836 -449 q 824 -468 805 -478 q 785 -488 757 -488 l 757 -488 q 720 -488 690 -465 q 659 -442 641 -399 q 623 -357 623 -297 l 623 -297 q 623 -220 649 -162 q 674 -104 719 -53 l 719 -53 l 678 0 l 625 0 l 597 -63 q 574 -95 557 -130 q 540 -165 531 -207 q 521 -249 521 -299 l 521 -299 q 521 -378 549 -438 q 577 -499 630 -533 q 682 -568 756 -568 z m 1120 -568 l 1120 -568 q 1187 -568 1241 -545 q 1295 -523 1334 -480 q 1373 -437 1394 -376 q 1415 -315 1415 -237 l 1415 -237 q 1415 -147 1390 -92 q 1364 -37 1319 -12 q 1274 12 1214 12 l 1214 12 q 1151 12 1112 -11 q 1073 -35 1055 -72 q 1037 -109 1037 -151 l 1037 -151 q 1037 -201 1056 -236 q 1075 -271 1108 -292 l 1108 -292 q 1130 -307 1156 -316 q 1182 -325 1220 -329 q 1257 -333 1311 -333 l 1311 -333 l 1365 -333 l 1365 -254 l 1318 -254 q 1257 -254 1226 -248 q 1194 -243 1170 -227 l 1170 -227 q 1154 -216 1145 -197 q 1135 -179 1135 -151 l 1135 -151 q 1135 -114 1156 -90 q 1176 -67 1215 -67 l 1215 -67 q 1248 -67 1271 -84 q 1293 -102 1305 -140 q 1317 -179 1317 -240 l 1317 -240 q 1317 -255 1316 -271 q 1314 -287 1312 -301 l 1312 -301 l 1310 -321 q 1302 -366 1278 -404 q 1253 -442 1214 -465 q 1174 -488 1118 -488 l 1118 -488 q 1085 -488 1060 -481 q 1035 -474 1015 -458 l 1015 -458 q 997 -444 985 -423 q 973 -402 967 -370 q 961 -339 961 -291 l 961 -291 l 961 -251 l 899 -252 l 897 -461 q 921 -494 951 -518 q 981 -542 1023 -555 q 1064 -568 1120 -568 z m 1498 -447 l 1595 -465 q 1600 -453 1603 -436 q 1605 -420 1605 -402 l 1605 -402 q 1605 -365 1591 -337 q 1577 -309 1551 -291 l 1551 -291 q 1523 -271 1486 -262 q 1448 -254 1389 -254 l 1389 -254 l 1367 -254 l 1367 -333 l 1384 -333 q 1416 -333 1437 -336 q 1458 -339 1473 -347 l 1473 -347 q 1489 -355 1497 -370 q 1505 -386 1505 -408 l 1505 -408 q 1505 -417 1503 -428 q 1501 -440 1498 -447 l 1498 -447 z"},"൸":{"ha":2043,"x_min":9,"x_max":1988,"o":"m 1313 -568 l 1313 -568 q 1346 -568 1372 -560 q 1398 -553 1419 -537 q 1439 -522 1456 -501 q 1472 -481 1484 -455 l 1484 -455 l 1453 -452 q 1478 -493 1513 -518 q 1547 -544 1592 -556 q 1636 -568 1691 -568 l 1691 -568 q 1768 -568 1823 -549 q 1877 -531 1912 -497 l 1912 -497 q 1939 -472 1956 -440 q 1972 -408 1980 -365 q 1988 -323 1988 -267 l 1988 -267 l 1988 0 l 1512 0 l 1512 -75 q 1566 -124 1609 -178 q 1652 -233 1677 -290 q 1702 -347 1702 -401 l 1702 -401 q 1702 -427 1696 -446 q 1689 -466 1675 -477 q 1660 -488 1636 -488 l 1636 -488 q 1603 -488 1578 -470 q 1553 -452 1539 -422 l 1539 -422 q 1524 -392 1519 -356 q 1513 -320 1513 -264 l 1513 -264 l 1513 -230 l 1413 -230 l 1413 -314 q 1413 -371 1408 -403 q 1402 -436 1387 -456 l 1387 -456 q 1376 -472 1358 -480 q 1340 -488 1317 -488 l 1317 -488 q 1295 -488 1277 -480 q 1259 -473 1248 -457 l 1248 -457 q 1233 -437 1228 -404 q 1222 -371 1222 -311 l 1222 -311 l 1222 -239 q 1222 -185 1216 -147 q 1210 -109 1199 -84 q 1187 -60 1171 -42 l 1171 -42 q 1147 -15 1112 -1 q 1076 12 1026 12 l 1026 12 q 977 12 941 -1 q 905 -15 881 -42 l 881 -42 q 865 -60 854 -84 q 842 -109 836 -146 q 829 -184 829 -239 l 829 -239 l 829 -315 q 829 -372 824 -404 q 818 -436 804 -456 l 804 -456 q 792 -472 775 -480 q 757 -488 734 -488 l 734 -488 q 712 -488 694 -480 q 676 -473 664 -457 l 664 -457 q 649 -437 644 -404 q 639 -371 639 -311 l 639 -311 l 639 -229 q 639 -157 627 -115 q 614 -74 587 -45 l 587 -45 q 561 -17 525 -2 q 489 12 438 12 l 438 12 q 376 12 338 -14 q 299 -40 273 -84 l 273 -84 l 289 -76 q 270 -49 247 -29 q 224 -9 194 2 q 164 12 123 12 l 123 12 q 90 12 63 5 q 36 -2 9 -16 l 9 -16 l 41 -91 q 59 -82 80 -75 q 101 -69 126 -69 l 126 -69 q 153 -69 174 -78 q 195 -88 208 -108 l 208 -108 q 222 -129 227 -159 q 232 -189 232 -247 l 232 -247 l 232 -555 l 332 -556 l 332 -234 q 332 -181 339 -150 q 345 -119 361 -100 l 361 -100 q 372 -85 391 -77 q 410 -69 434 -69 l 434 -69 q 462 -69 482 -79 q 501 -89 513 -106 l 513 -106 q 527 -127 532 -160 q 537 -194 537 -255 l 537 -255 l 537 -316 q 537 -372 544 -409 q 550 -447 562 -472 q 573 -497 589 -514 l 589 -514 q 613 -542 648 -555 q 683 -568 733 -568 l 733 -568 q 782 -568 818 -555 q 854 -542 879 -515 l 879 -515 q 895 -497 907 -472 q 918 -448 924 -411 q 930 -374 930 -318 l 930 -318 l 930 -243 q 930 -186 936 -153 q 941 -120 956 -100 l 956 -100 q 967 -85 985 -77 q 1003 -69 1025 -69 l 1025 -69 q 1048 -69 1066 -76 q 1084 -83 1095 -99 l 1095 -99 q 1110 -119 1116 -152 q 1121 -185 1121 -241 l 1121 -241 l 1121 -316 q 1121 -372 1127 -409 q 1133 -447 1145 -472 q 1156 -497 1172 -514 l 1172 -514 q 1196 -542 1232 -555 q 1267 -568 1313 -568 z m 1802 -387 l 1802 -387 q 1802 -330 1780 -275 q 1758 -221 1718 -167 q 1677 -114 1622 -59 l 1622 -59 l 1611 -74 q 1635 -76 1663 -77 q 1691 -79 1711 -79 l 1711 -79 l 1888 -79 l 1888 -262 q 1888 -330 1875 -375 q 1862 -421 1834 -448 q 1806 -476 1760 -491 l 1760 -491 l 1762 -496 q 1779 -476 1791 -449 q 1802 -423 1802 -387 z"},"൹":{"ha":1073,"x_min":37,"x_max":1051,"o":"m 272 -568 l 272 -568 q 313 -568 343 -557 q 372 -547 396 -526 q 420 -505 443 -473 l 443 -473 l 477 -233 l 477 0 l 377 0 l 377 -309 q 377 -369 372 -399 q 366 -429 352 -449 l 352 -449 q 340 -468 321 -478 q 301 -488 273 -488 l 273 -488 q 236 -488 206 -465 q 175 -442 158 -398 q 140 -355 140 -295 l 140 -295 q 140 -239 153 -195 q 166 -151 189 -116 q 211 -82 241 -53 l 241 -53 l 169 9 q 131 -29 101 -72 q 71 -116 54 -171 q 37 -226 37 -296 l 37 -296 q 37 -376 65 -437 q 93 -499 146 -533 q 199 -568 272 -568 z m 631 -568 l 631 -568 q 697 -568 751 -546 q 804 -524 843 -481 q 882 -438 903 -376 q 923 -315 923 -237 l 923 -237 q 923 -147 898 -92 q 872 -37 827 -12 q 781 12 722 12 l 722 12 q 659 12 620 -11 q 581 -35 563 -72 q 545 -110 545 -151 l 545 -151 q 545 -201 564 -236 q 583 -271 616 -292 l 616 -292 q 638 -307 664 -316 q 690 -325 728 -329 q 765 -333 821 -333 l 821 -333 l 1051 -333 l 1051 -254 l 826 -254 q 765 -254 734 -248 q 702 -243 679 -227 l 679 -227 q 662 -216 653 -197 q 644 -179 644 -151 l 644 -151 q 644 -114 664 -90 q 684 -67 723 -67 l 723 -67 q 756 -67 779 -84 q 801 -102 813 -140 q 825 -178 825 -240 l 825 -240 q 825 -255 824 -271 q 823 -287 821 -301 l 821 -301 l 818 -321 q 810 -366 786 -404 q 762 -442 723 -465 q 684 -488 630 -488 l 630 -488 q 601 -488 576 -481 q 551 -474 531 -458 l 531 -458 q 513 -444 501 -423 q 488 -402 483 -370 q 477 -339 477 -291 l 477 -291 l 477 -207 l 415 -214 l 412 -460 q 435 -492 465 -516 q 495 -541 536 -554 q 576 -568 631 -568 z"},"ൺ":{"ha":1427,"x_min":39,"x_max":1390,"o":"m 340 -568 l 340 -568 q 418 -568 466 -542 q 514 -517 550 -471 l 550 -471 l 527 -478 q 557 -524 599 -546 q 641 -568 695 -568 l 695 -568 q 757 -568 797 -543 q 836 -519 866 -472 l 866 -472 l 859 -445 l 901 -307 l 901 0 l 801 0 l 801 -321 q 801 -376 795 -406 q 789 -437 773 -456 l 773 -456 q 760 -471 741 -479 q 722 -488 693 -488 l 693 -488 q 666 -488 647 -478 q 628 -469 615 -454 l 615 -454 q 598 -433 592 -403 q 585 -373 585 -314 l 585 -314 l 585 0 l 485 0 l 485 -300 q 485 -365 475 -399 q 465 -433 445 -453 l 445 -453 q 427 -470 402 -479 q 377 -488 339 -488 l 339 -488 q 277 -488 231 -457 q 184 -427 158 -372 q 132 -317 132 -243 l 132 -243 l 132 -228 q 132 -171 145 -135 q 157 -99 179 -82 q 200 -66 228 -66 l 228 -66 q 249 -66 264 -76 q 279 -87 288 -107 q 297 -128 297 -160 l 297 -160 q 297 -209 277 -232 q 256 -256 219 -256 l 219 -256 q 185 -256 156 -237 q 126 -219 98 -187 l 98 -187 l 81 -256 q 108 -287 150 -310 q 192 -333 241 -333 l 241 -333 q 288 -333 323 -313 q 357 -294 376 -257 q 394 -220 394 -166 l 394 -166 q 394 -109 374 -69 q 354 -29 317 -8 q 280 12 229 12 l 229 12 q 178 12 135 -13 q 92 -39 66 -95 q 39 -151 39 -241 l 39 -241 q 39 -350 79 -422 q 119 -495 188 -531 q 256 -568 340 -568 z m 1196 12 l 1196 12 q 1135 12 1092 -14 q 1049 -41 1027 -92 q 1005 -143 1005 -216 l 1005 -216 q 1005 -272 1021 -321 q 1037 -371 1068 -415 q 1098 -460 1140 -502 l 1140 -502 l 1161 -531 q 1191 -562 1210 -591 q 1229 -620 1229 -650 l 1229 -650 q 1229 -677 1213 -695 q 1197 -713 1160 -713 l 1160 -713 q 1142 -713 1124 -710 q 1106 -707 1095 -703 l 1095 -703 l 1075 -780 q 1093 -786 1123 -790 q 1152 -794 1184 -794 l 1184 -794 q 1242 -794 1274 -773 q 1305 -753 1318 -724 q 1330 -695 1330 -669 l 1330 -669 q 1330 -619 1305 -576 q 1280 -533 1234 -487 l 1234 -487 l 1216 -464 q 1179 -428 1155 -387 q 1131 -347 1119 -303 q 1106 -260 1106 -213 l 1106 -213 q 1106 -159 1118 -126 q 1129 -94 1150 -80 q 1170 -66 1196 -66 l 1196 -66 q 1241 -66 1264 -101 q 1287 -136 1287 -214 l 1287 -214 q 1287 -262 1275 -310 q 1262 -359 1236 -400 q 1209 -441 1168 -464 l 1168 -464 q 1148 -476 1125 -483 q 1101 -490 1069 -490 l 1069 -490 q 1027 -490 999 -480 q 970 -471 950 -452 l 950 -452 q 934 -437 923 -415 q 912 -394 907 -361 q 901 -329 901 -280 l 901 -280 l 901 -80 l 810 -80 l 810 -274 l 839 -456 q 861 -491 892 -516 q 923 -541 966 -554 q 1009 -568 1066 -568 l 1066 -568 q 1107 -568 1143 -560 q 1178 -553 1209 -537 l 1209 -537 q 1213 -536 1217 -533 q 1221 -531 1225 -528 l 1225 -528 q 1281 -498 1318 -449 q 1354 -400 1372 -341 q 1390 -283 1390 -221 l 1390 -221 q 1390 -108 1341 -48 q 1291 12 1196 12 z"},"ൻ":{"ha":1003,"x_min":37,"x_max":966,"o":"m 272 -568 l 272 -568 q 313 -568 343 -557 q 373 -546 397 -525 q 421 -505 441 -474 l 441 -474 l 477 -238 l 477 0 l 377 0 l 377 -309 q 377 -369 372 -399 q 366 -429 352 -449 l 352 -449 q 340 -468 321 -478 q 301 -488 273 -488 l 273 -488 q 236 -488 206 -465 q 175 -442 158 -398 q 140 -355 140 -295 l 140 -295 q 140 -239 153 -195 q 166 -151 189 -116 q 211 -82 241 -53 l 241 -53 l 169 9 q 131 -29 101 -72 q 71 -116 54 -171 q 37 -226 37 -296 l 37 -296 q 37 -376 65 -437 q 93 -499 146 -533 q 198 -568 272 -568 z m 772 12 l 772 12 q 710 12 668 -14 q 625 -41 603 -92 q 581 -143 581 -216 l 581 -216 q 581 -272 597 -321 q 613 -371 643 -415 q 673 -460 716 -502 l 716 -502 l 736 -531 q 767 -562 786 -591 q 805 -620 805 -650 l 805 -650 q 805 -677 789 -695 q 772 -713 736 -713 l 736 -713 q 718 -713 701 -710 q 683 -707 671 -703 l 671 -703 l 651 -780 q 669 -786 699 -790 q 728 -794 760 -794 l 760 -794 q 818 -794 850 -773 q 881 -753 893 -724 q 905 -695 905 -669 l 905 -669 q 905 -619 881 -576 q 856 -533 810 -487 l 810 -487 l 792 -464 q 755 -428 731 -387 q 706 -347 694 -303 q 682 -260 682 -213 l 682 -213 q 682 -159 694 -126 q 705 -94 726 -80 q 746 -66 772 -66 l 772 -66 q 817 -66 840 -101 q 863 -136 863 -214 l 863 -214 q 863 -262 850 -310 q 837 -359 811 -400 q 785 -441 743 -464 l 743 -464 q 723 -476 700 -483 q 677 -490 644 -490 l 644 -490 q 603 -490 575 -480 q 546 -471 526 -452 l 526 -452 q 510 -437 499 -415 q 488 -394 483 -361 q 477 -329 477 -280 l 477 -280 l 477 -80 l 385 -80 l 385 -274 l 415 -456 q 437 -491 468 -516 q 499 -541 542 -554 q 585 -568 641 -568 l 641 -568 q 683 -568 719 -560 q 754 -553 785 -537 l 785 -537 q 789 -536 793 -533 q 797 -531 800 -528 l 800 -528 q 856 -498 893 -449 q 930 -400 948 -341 q 966 -283 966 -221 l 966 -221 q 966 -108 917 -48 q 867 12 772 12 z"},"ർ":{"ha":698,"x_min":37,"x_max":661,"o":"m 467 12 l 467 12 q 406 12 363 -14 q 320 -41 298 -92 q 276 -143 276 -216 l 276 -216 q 276 -272 292 -321 q 308 -371 338 -415 q 368 -460 410 -502 l 410 -502 l 431 -531 q 462 -562 481 -591 q 500 -620 500 -650 l 500 -650 q 500 -677 484 -695 q 468 -713 431 -713 l 431 -713 q 414 -713 396 -710 q 377 -707 366 -703 l 366 -703 l 346 -780 q 364 -786 394 -790 q 424 -794 455 -794 l 455 -794 q 513 -794 545 -773 q 576 -753 589 -724 q 601 -695 601 -669 l 601 -669 q 601 -619 576 -576 q 551 -533 505 -487 l 505 -487 l 487 -464 q 451 -428 427 -387 q 402 -347 390 -303 q 377 -260 377 -213 l 377 -213 q 377 -159 389 -126 q 401 -94 422 -80 q 442 -66 468 -66 l 468 -66 q 512 -66 535 -101 q 558 -136 558 -214 l 558 -214 q 558 -250 551 -286 q 544 -323 530 -357 q 515 -392 493 -420 q 470 -448 439 -465 l 439 -465 q 418 -477 395 -483 q 371 -490 337 -490 l 337 -490 q 273 -490 229 -462 q 185 -435 163 -387 q 140 -340 140 -279 l 140 -279 q 140 -227 153 -186 q 165 -145 189 -112 q 213 -80 245 -54 l 245 -54 l 180 10 q 140 -20 108 -61 q 76 -102 57 -157 q 37 -212 37 -282 l 37 -282 q 37 -342 56 -394 q 75 -446 112 -485 q 149 -524 205 -546 q 261 -568 336 -568 l 336 -568 q 377 -568 413 -560 q 449 -553 480 -538 l 480 -538 q 484 -536 488 -534 q 492 -532 496 -529 l 496 -529 q 552 -498 589 -449 q 625 -400 643 -341 q 661 -283 661 -221 l 661 -221 q 661 -107 612 -47 q 562 12 467 12 z"},"ൽ":{"ha":1140,"x_min":37,"x_max":1102,"o":"m 693 -568 l 693 -568 q 743 -568 783 -563 q 823 -558 857 -547 q 891 -537 920 -520 l 920 -520 l 943 -510 q 1024 -463 1063 -386 q 1102 -310 1102 -219 l 1102 -219 q 1102 -108 1053 -48 q 1003 12 908 12 l 908 12 q 847 12 804 -14 q 761 -41 740 -92 q 718 -143 718 -216 l 718 -216 q 718 -272 734 -321 q 749 -371 779 -415 q 809 -460 852 -502 l 852 -502 l 870 -527 q 902 -560 922 -590 q 942 -620 942 -650 l 942 -650 q 942 -677 926 -695 q 909 -713 873 -713 l 873 -713 q 855 -713 837 -710 q 818 -707 807 -703 l 807 -703 l 788 -780 q 806 -786 835 -790 q 864 -794 896 -794 l 896 -794 q 954 -794 986 -773 q 1017 -753 1030 -724 q 1042 -695 1042 -669 l 1042 -669 q 1042 -619 1017 -576 q 992 -533 947 -487 l 947 -487 l 928 -464 q 892 -428 868 -387 q 843 -347 831 -303 q 819 -260 819 -213 l 819 -213 q 819 -159 831 -126 q 842 -94 863 -80 q 883 -66 909 -66 l 909 -66 q 953 -66 976 -101 q 999 -136 999 -213 l 999 -213 q 999 -264 985 -310 q 971 -356 944 -393 q 917 -430 874 -452 l 874 -452 l 849 -462 q 816 -476 777 -482 q 738 -488 693 -488 l 693 -488 q 651 -488 611 -482 q 570 -476 535 -460 l 535 -460 l 511 -452 q 455 -422 420 -362 q 385 -302 385 -214 l 385 -214 q 385 -156 399 -124 q 412 -92 434 -79 q 455 -67 480 -67 l 480 -67 q 505 -67 527 -79 q 548 -92 561 -125 q 574 -158 574 -219 l 574 -219 q 574 -276 558 -325 q 541 -374 512 -411 q 483 -448 444 -468 l 444 -468 l 424 -477 q 405 -485 386 -488 q 366 -491 343 -491 l 343 -491 q 277 -491 232 -463 q 186 -436 163 -388 q 140 -341 140 -278 l 140 -278 q 140 -226 153 -185 q 166 -145 190 -112 q 213 -80 245 -54 l 245 -54 l 180 10 q 140 -20 108 -61 q 76 -102 57 -157 q 37 -212 37 -282 l 37 -282 q 37 -340 55 -391 q 73 -443 110 -483 q 146 -523 202 -545 q 257 -568 333 -568 l 333 -568 q 381 -568 421 -558 q 460 -549 496 -527 l 496 -527 l 519 -510 q 589 -467 633 -393 q 676 -320 676 -219 l 676 -219 q 676 -145 653 -93 q 630 -42 586 -15 q 542 12 478 12 l 478 12 q 416 12 373 -15 q 329 -43 307 -94 q 284 -145 284 -216 l 284 -216 q 284 -279 302 -330 q 319 -382 354 -424 q 388 -466 438 -497 l 438 -497 l 459 -514 q 504 -541 562 -554 q 619 -568 693 -568 z"},"ൾ":{"ha":986,"x_min":37,"x_max":949,"o":"m 743 -794 l 743 -794 q 801 -794 833 -773 q 864 -753 877 -724 q 889 -695 889 -669 l 889 -669 q 889 -619 864 -576 q 838 -533 793 -487 l 793 -487 l 775 -464 q 739 -428 715 -387 q 690 -347 678 -303 q 665 -260 665 -213 l 665 -213 q 665 -159 677 -127 q 689 -95 710 -80 q 730 -66 756 -66 l 756 -66 q 801 -66 824 -101 q 846 -136 846 -214 l 846 -214 q 846 -250 840 -286 q 833 -323 819 -356 q 805 -390 783 -418 q 761 -447 730 -465 l 730 -465 q 712 -477 689 -483 q 666 -490 637 -490 l 637 -490 q 605 -490 578 -481 q 550 -473 531 -459 l 531 -459 q 495 -432 483 -384 q 470 -337 470 -271 l 470 -271 l 470 -229 q 470 -187 465 -153 q 460 -120 449 -93 q 438 -67 419 -46 l 419 -46 q 393 -18 356 -3 q 319 12 265 12 l 265 12 q 195 12 144 -20 q 93 -53 65 -113 q 37 -174 37 -259 l 37 -259 q 37 -329 53 -384 q 69 -439 100 -484 q 130 -530 171 -569 l 171 -569 l 242 -507 q 211 -478 188 -442 q 165 -406 153 -361 q 140 -317 140 -262 l 140 -262 q 140 -201 156 -157 q 171 -114 199 -91 q 227 -69 262 -69 l 262 -69 q 294 -69 314 -78 q 333 -88 344 -106 l 344 -106 q 359 -128 364 -165 q 368 -202 368 -250 l 368 -250 l 368 -288 q 368 -372 389 -426 q 409 -480 450 -514 l 450 -514 q 485 -542 530 -555 q 574 -568 635 -568 l 635 -568 q 673 -568 706 -560 q 739 -553 768 -539 l 768 -539 l 785 -530 q 838 -500 875 -451 q 912 -403 931 -344 q 949 -285 949 -221 l 949 -221 q 949 -108 900 -48 q 850 12 756 12 l 756 12 q 694 12 651 -14 q 608 -41 586 -92 q 564 -143 564 -216 l 564 -216 q 564 -272 580 -321 q 596 -371 626 -415 q 656 -460 698 -502 l 698 -502 l 719 -531 q 750 -562 769 -591 q 788 -620 788 -650 l 788 -650 q 788 -677 772 -695 q 756 -713 719 -713 l 719 -713 q 701 -713 683 -710 q 665 -707 654 -703 l 654 -703 l 634 -780 q 652 -786 682 -790 q 712 -794 743 -794 z"},"ൿ":{"ha":1142,"x_min":30,"x_max":1110,"o":"m 493 -568 l 493 -568 q 571 -568 620 -532 q 669 -496 693 -431 q 717 -366 717 -280 l 717 -280 q 717 -183 690 -118 q 663 -53 613 -20 q 563 12 494 12 l 494 12 q 439 12 398 -7 q 356 -27 327 -62 l 327 -62 q 297 -102 283 -157 q 268 -213 268 -281 l 268 -281 q 268 -419 328 -493 q 388 -568 493 -568 z m 493 -490 l 493 -490 q 429 -490 398 -438 q 367 -387 367 -279 l 367 -279 q 367 -207 381 -159 q 395 -112 423 -89 q 451 -67 492 -67 l 492 -67 q 533 -67 561 -89 q 589 -111 604 -158 q 618 -206 618 -279 l 618 -279 q 618 -352 604 -399 q 590 -446 562 -468 q 534 -490 493 -490 z m 206 12 l 206 12 q 121 12 76 -32 q 30 -77 30 -154 l 30 -154 q 30 -204 52 -238 q 74 -273 109 -294 l 109 -294 q 132 -307 161 -316 q 189 -325 229 -329 q 269 -333 328 -333 l 328 -333 l 860 -333 q 923 -333 968 -324 q 1012 -315 1047 -289 l 1047 -289 q 1075 -269 1093 -237 q 1110 -205 1110 -156 l 1110 -156 q 1110 -78 1068 -33 q 1026 12 942 12 l 942 12 q 856 12 813 -36 q 769 -84 769 -155 l 769 -155 q 769 -191 777 -222 q 784 -254 799 -286 l 799 -286 q 800 -289 801 -293 q 801 -298 803 -301 l 803 -301 q 815 -329 832 -362 q 848 -395 870 -437 l 870 -437 q 898 -490 915 -527 q 932 -564 940 -592 q 948 -620 948 -645 l 948 -645 q 948 -675 932 -694 q 915 -713 878 -713 l 878 -713 q 861 -713 843 -710 q 824 -707 813 -703 l 813 -703 l 793 -780 q 812 -786 842 -790 q 871 -794 902 -794 l 902 -794 q 961 -794 992 -773 q 1023 -752 1036 -722 q 1048 -693 1048 -665 l 1048 -665 q 1048 -638 1044 -613 q 1039 -588 1028 -559 q 1017 -531 999 -494 q 980 -457 952 -405 l 952 -405 q 938 -376 926 -350 q 913 -325 903 -304 l 903 -304 q 900 -297 898 -290 q 895 -284 892 -278 l 892 -278 q 880 -247 873 -219 q 865 -191 865 -160 l 865 -160 q 865 -125 876 -105 q 887 -85 905 -76 q 922 -67 941 -67 l 941 -67 q 976 -67 994 -89 q 1012 -111 1012 -152 l 1012 -152 q 1012 -180 1003 -198 q 994 -217 978 -229 l 978 -229 q 956 -245 927 -249 q 897 -254 863 -254 l 863 -254 l 311 -254 q 253 -254 221 -249 q 188 -244 164 -228 l 164 -228 q 148 -217 138 -199 q 128 -181 128 -156 l 128 -156 q 128 -127 139 -107 q 149 -87 169 -77 q 189 -67 217 -67 l 217 -67 q 246 -67 273 -77 q 300 -87 332 -111 l 332 -111 l 381 -46 q 352 -25 325 -12 q 297 1 269 7 q 240 12 206 12 z"},"!":{"ha":270,"x_min":69,"x_max":201,"o":"m 172 -212 l 98 -212 l 74 -714 l 196 -714 l 172 -212 z m 135 12 l 135 12 q 105 12 87 -5 q 69 -23 69 -59 l 69 -59 q 69 -95 87 -112 q 104 -130 135 -130 l 135 -130 q 165 -130 183 -112 q 201 -95 201 -59 l 201 -59 q 201 -23 183 -5 q 164 12 135 12 z"},"\"":{"ha":428,"x_min":66,"x_max":361,"o":"m 159 -542 l 87 -542 l 66 -800 l 180 -800 l 159 -542 z m 341 -542 l 269 -542 l 248 -800 l 361 -800 l 341 -542 z"},"#":{"ha":599,"x_min":27,"x_max":572,"o":"m 172 0 l 94 0 l 133 -207 l 27 -207 l 27 -283 l 148 -283 l 177 -432 l 58 -432 l 58 -507 l 190 -507 l 230 -714 l 308 -714 l 269 -507 l 388 -507 l 427 -714 l 505 -714 l 465 -507 l 572 -507 l 572 -432 l 451 -432 l 423 -283 l 542 -283 l 542 -207 l 408 -207 l 368 0 l 290 0 l 330 -207 l 212 -207 l 172 0 z m 255 -432 l 226 -283 l 344 -283 l 373 -432 l 255 -432 z"},"%":{"ha":796,"x_min":42,"x_max":753,"o":"m 267 0 l 183 0 l 528 -714 l 612 -714 l 267 0 z m 184 -276 l 184 -276 q 114 -276 78 -334 q 42 -393 42 -500 l 42 -500 q 42 -610 77 -667 q 112 -724 185 -724 l 185 -724 q 256 -724 293 -666 q 329 -608 329 -501 l 329 -501 q 329 -392 293 -334 q 257 -276 184 -276 z m 184 -349 l 184 -349 q 215 -349 230 -386 q 244 -424 244 -500 l 244 -500 q 244 -577 230 -614 q 215 -651 185 -651 l 185 -651 q 154 -651 141 -614 q 127 -577 127 -500 l 127 -500 q 127 -424 141 -386 q 155 -349 184 -349 z m 609 10 l 609 10 q 539 10 503 -48 q 467 -107 467 -214 l 467 -214 q 467 -323 502 -380 q 537 -438 610 -438 l 610 -438 q 680 -438 717 -379 q 753 -321 753 -215 l 753 -215 q 753 -105 718 -47 q 682 10 609 10 z m 610 -62 l 610 -62 q 640 -62 655 -99 q 669 -137 669 -214 l 669 -214 q 669 -291 655 -327 q 640 -364 610 -364 l 610 -364 q 580 -364 566 -327 q 552 -290 552 -214 l 552 -214 q 552 -137 566 -99 q 580 -62 610 -62 z"},"'":{"ha":246,"x_min":66,"x_max":180,"o":"m 159 -542 l 87 -542 l 66 -800 l 180 -800 l 159 -542 z"},"(":{"ha":314,"x_min":43,"x_max":284,"o":"m 43 -280 l 43 -280 q 43 -375 60 -468 q 76 -562 110 -647 q 143 -733 191 -800 l 191 -800 l 284 -800 q 238 -728 206 -643 q 174 -558 158 -466 q 141 -374 141 -280 l 141 -280 q 141 -186 157 -94 q 173 -3 205 83 q 237 168 284 244 l 284 244 l 191 244 q 141 173 108 87 q 75 1 59 -93 q 43 -187 43 -280 z"},")":{"ha":314,"x_min":30,"x_max":271,"o":"m 271 -276 l 271 -276 q 271 -182 255 -88 q 238 6 205 91 q 171 176 123 244 l 123 244 l 30 244 q 76 171 108 87 q 140 2 157 -90 q 173 -183 173 -277 l 173 -277 q 173 -371 157 -462 q 141 -553 110 -638 q 78 -724 30 -800 l 30 -800 l 123 -800 q 173 -729 206 -643 q 239 -557 255 -463 q 271 -370 271 -276 z"},"*":{"ha":536,"x_min":37,"x_max":499,"o":"m 216 -800 l 319 -800 l 300 -617 l 484 -668 l 499 -569 l 322 -556 l 437 -405 l 347 -355 l 266 -523 l 191 -355 l 99 -405 l 212 -556 l 37 -569 l 52 -668 l 235 -617 l 216 -800 z"},"+":{"ha":524,"x_min":42,"x_max":481,"o":"m 303 -114 l 221 -114 l 221 -312 l 42 -312 l 42 -393 l 221 -393 l 221 -593 l 303 -593 l 303 -393 l 481 -393 l 481 -312 l 303 -312 l 303 -114 z"},",":{"ha":261,"x_min":35,"x_max":194,"o":"m 82 -115 l 187 -115 l 194 -104 q 185 -66 172 -26 q 159 14 144 54 q 129 93 113 130 l 113 130 l 35 130 q 45 90 54 47 q 63 3 71 -39 q 78 -81 82 -115 l 82 -115 z"},"-":{"ha":317,"x_min":36,"x_max":281,"o":"m 281 -224 l 36 -224 l 36 -314 l 281 -314 l 281 -224 z"},".":{"ha":267,"x_min":68,"x_max":199,"o":"m 133 12 l 133 12 q 105 12 87 -5 q 68 -22 68 -59 l 68 -59 q 68 -97 86 -113 q 104 -130 133 -130 l 133 -130 q 162 -130 181 -114 q 199 -98 199 -59 l 199 -59 q 199 -22 181 -5 q 162 12 133 12 z"},"/":{"ha":399,"x_min":20,"x_max":379,"o":"m 115 244 l 20 244 l 284 -800 l 379 -800 l 115 244 z"},":":{"ha":267,"x_min":68,"x_max":199,"o":"m 133 12 l 133 12 q 105 12 87 -5 q 68 -22 68 -59 l 68 -59 q 68 -97 86 -113 q 104 -130 133 -130 l 133 -130 q 162 -130 181 -114 q 199 -98 199 -59 l 199 -59 q 199 -22 181 -5 q 162 12 133 12 z m 133 -404 l 133 -404 q 105 -404 87 -421 q 68 -439 68 -476 l 68 -476 q 68 -514 86 -530 q 104 -547 133 -547 l 133 -547 q 163 -547 181 -530 q 199 -514 199 -476 l 199 -476 q 199 -439 181 -421 q 162 -404 133 -404 z"},";":{"ha":268,"x_min":35,"x_max":199,"o":"m 83 -115 l 187 -115 l 194 -104 q 185 -66 172 -26 q 159 14 144 54 q 129 93 113 130 l 113 130 l 35 130 q 46 90 55 47 q 63 3 71 -39 q 78 -81 83 -115 l 83 -115 z m 133 -404 l 133 -404 q 104 -404 86 -421 q 67 -439 67 -476 l 67 -476 q 67 -514 86 -530 q 104 -547 133 -547 l 133 -547 q 162 -547 181 -530 q 199 -514 199 -476 l 199 -476 q 199 -439 180 -421 q 161 -404 133 -404 z"},"<":{"ha":524,"x_min":41,"x_max":482,"o":"m 482 -207 l 482 -118 l 41 -323 l 41 -379 l 482 -602 l 482 -513 l 152 -354 l 482 -207 z"},"=":{"ha":524,"x_min":44,"x_max":479,"o":"m 479 -209 l 44 -209 l 44 -290 l 479 -290 l 479 -209 z m 479 -415 l 44 -415 l 44 -495 l 479 -495 l 479 -415 z"},">":{"ha":524,"x_min":41,"x_max":482,"o":"m 482 -323 l 41 -118 l 41 -207 l 372 -353 l 41 -512 l 41 -602 l 482 -379 l 482 -323 z"},"?":{"ha":416,"x_min":36,"x_max":387,"o":"m 204 -724 l 204 -724 q 291 -724 339 -677 q 387 -630 387 -550 l 387 -550 q 387 -508 377 -477 q 367 -446 346 -418 q 324 -390 291 -355 l 291 -355 q 264 -329 250 -309 q 235 -290 230 -271 q 224 -253 224 -230 l 224 -230 l 224 -212 l 139 -212 l 139 -238 q 139 -272 146 -299 q 153 -326 170 -350 q 187 -375 215 -402 l 215 -402 q 243 -429 259 -450 q 275 -471 282 -493 q 289 -515 289 -544 l 289 -544 q 289 -587 264 -611 q 238 -636 193 -636 l 193 -636 q 161 -636 131 -626 q 100 -617 71 -602 l 71 -602 l 36 -680 q 74 -700 115 -712 q 156 -724 204 -724 z m 185 12 l 185 12 q 157 12 138 -5 q 119 -22 119 -59 l 119 -59 q 119 -97 138 -113 q 156 -130 185 -130 l 185 -130 q 213 -130 232 -114 q 251 -98 251 -59 l 251 -59 q 251 -22 232 -5 q 213 12 185 12 z"},"[":{"ha":326,"x_min":75,"x_max":287,"o":"m 287 244 l 75 244 l 75 -800 l 287 -800 l 287 -722 l 171 -722 l 171 166 l 287 166 l 287 244 z"},"\\":{"ha":399,"x_min":20,"x_max":379,"o":"m 379 244 l 284 244 l 20 -800 l 115 -800 l 379 244 z"},"]":{"ha":328,"x_min":38,"x_max":250,"o":"m 250 244 l 38 244 l 38 166 l 155 166 l 155 -722 l 38 -722 l 38 -800 l 250 -800 l 250 244 z"},"^":{"ha":540,"x_min":29,"x_max":510,"o":"m 119 -292 l 29 -292 l 240 -717 l 296 -717 l 510 -292 l 420 -292 l 268 -605 l 119 -292 z"},"_":{"ha":407,"x_min":-2,"x_max":409,"o":"m 409 155 l -2 155 l -2 90 l 409 90 l 409 155 z"},"{":{"ha":371,"x_min":28,"x_max":333,"o":"m 333 163 l 333 244 q 272 243 232 225 q 192 206 172 169 q 152 132 152 77 l 152 77 l 152 -136 q 152 -191 120 -213 q 88 -236 28 -236 l 28 -236 l 28 -320 q 89 -321 121 -343 q 152 -366 152 -420 l 152 -420 l 152 -634 q 152 -689 172 -725 q 192 -762 232 -781 q 272 -800 333 -800 l 333 -800 l 333 -719 q 290 -718 270 -698 q 249 -678 249 -627 l 249 -627 l 249 -411 q 249 -356 222 -324 q 194 -292 139 -282 l 139 -282 l 139 -276 q 194 -265 222 -233 q 249 -201 249 -146 l 249 -146 l 249 71 q 249 105 259 125 q 268 145 287 154 q 305 162 333 163 l 333 163 z"},"|":{"ha":551,"x_min":234,"x_max":317,"o":"m 317 244 l 234 244 l 234 -800 l 317 -800 l 317 244 z"},"}":{"ha":371,"x_min":38,"x_max":343,"o":"m 38 -719 l 38 -800 q 100 -800 140 -781 q 180 -762 200 -725 q 220 -689 220 -633 l 220 -633 l 220 -420 q 220 -366 252 -343 q 283 -321 343 -321 l 343 -321 l 343 -236 q 283 -236 252 -213 q 220 -191 220 -137 l 220 -137 l 220 78 q 220 133 200 170 q 179 207 139 226 q 99 244 38 244 l 38 244 l 38 163 q 81 161 102 141 q 122 121 122 71 l 122 71 l 122 -146 q 122 -201 150 -233 q 178 -265 233 -276 l 233 -276 l 233 -282 q 178 -292 150 -324 q 122 -356 122 -411 l 122 -411 l 122 -627 q 122 -661 113 -681 q 104 -701 86 -709 q 67 -718 38 -719 l 38 -719 z"},"~":{"ha":524,"x_min":41,"x_max":483,"o":"m 247 -314 l 247 -314 q 215 -329 194 -335 q 172 -341 151 -341 l 151 -341 q 123 -341 95 -324 q 66 -308 41 -282 l 41 -282 l 41 -370 q 65 -396 93 -409 q 121 -422 155 -422 l 155 -422 q 183 -422 211 -415 q 238 -409 275 -392 l 275 -392 q 309 -377 331 -370 q 353 -364 377 -364 l 377 -364 q 404 -364 432 -380 q 459 -397 483 -423 l 483 -423 l 483 -335 q 459 -310 432 -296 q 404 -283 369 -283 l 369 -283 q 340 -283 314 -290 q 287 -297 247 -314 z"}," ":{"ha":277,"x_min":0,"x_max":0,"o":""},"­":{"ha":317,"x_min":36,"x_max":281,"o":"m 281 -224 l 36 -224 l 36 -314 l 281 -314 l 281 -224 z"},"–":{"ha":500,"x_min":39,"x_max":461,"o":"m 461 -223 l 39 -223 l 39 -313 l 461 -313 l 461 -223 z"},"—":{"ha":1000,"x_min":39,"x_max":961,"o":"m 961 -223 l 39 -223 l 39 -313 l 961 -313 l 961 -223 z"},"‘":{"ha":238,"x_min":38,"x_max":196,"o":"m 149 -555 l 44 -555 l 38 -566 q 47 -605 60 -645 q 73 -685 89 -724 q 104 -764 119 -800 l 119 -800 l 196 -800 q 186 -760 177 -716 q 168 -673 161 -631 q 154 -590 149 -555 l 149 -555 z"},"’":{"ha":238,"x_min":38,"x_max":196,"o":"m 85 -800 l 190 -800 l 196 -789 q 187 -751 174 -710 q 161 -670 146 -631 q 131 -592 115 -555 l 115 -555 l 38 -555 q 45 -584 52 -616 q 59 -648 65 -681 q 71 -714 76 -744 q 81 -774 85 -800 l 85 -800 z"},"“":{"ha":429,"x_min":38,"x_max":388,"o":"m 342 -555 l 236 -555 l 230 -566 q 239 -605 252 -645 q 265 -685 281 -724 q 296 -764 311 -800 l 311 -800 l 388 -800 q 379 -760 370 -717 q 360 -674 353 -632 q 346 -591 342 -555 l 342 -555 z m 150 -555 l 44 -555 l 38 -566 q 47 -605 60 -645 q 73 -685 89 -724 q 104 -764 120 -800 l 120 -800 l 196 -800 q 187 -760 178 -716 q 168 -673 161 -631 q 154 -590 150 -555 l 150 -555 z"},"”":{"ha":429,"x_min":38,"x_max":388,"o":"m 277 -800 l 382 -800 l 388 -789 q 379 -751 366 -710 q 353 -670 338 -631 q 323 -592 307 -555 l 307 -555 l 230 -555 q 240 -596 249 -638 q 257 -681 265 -722 q 272 -764 277 -800 l 277 -800 z m 85 -800 l 190 -800 l 196 -789 q 187 -751 174 -710 q 161 -670 146 -631 q 131 -592 115 -555 l 115 -555 l 38 -555 q 45 -584 52 -616 q 59 -648 65 -681 q 71 -714 76 -744 q 81 -774 85 -800 l 85 -800 z"},"…":{"ha":786,"x_min":68,"x_max":719,"o":"m 133 12 l 133 12 q 105 12 87 -5 q 68 -22 68 -59 l 68 -59 q 68 -97 86 -113 q 104 -130 133 -130 l 133 -130 q 162 -130 181 -114 q 199 -98 199 -59 l 199 -59 q 199 -22 181 -5 q 162 12 133 12 z m 393 12 l 393 12 q 364 12 346 -5 q 327 -22 327 -59 l 327 -59 q 327 -97 346 -113 q 364 -130 393 -130 l 393 -130 q 422 -130 441 -114 q 459 -98 459 -59 l 459 -59 q 459 -22 440 -5 q 421 12 393 12 z m 653 12 l 653 12 q 624 12 606 -5 q 587 -22 587 -59 l 587 -59 q 587 -97 606 -113 q 624 -130 653 -130 l 653 -130 q 682 -130 701 -114 q 719 -98 719 -59 l 719 -59 q 719 -22 700 -5 q 681 12 653 12 z"},"×":{"ha":524,"x_min":53,"x_max":471,"o":"m 261 -409 l 414 -562 l 471 -506 l 318 -353 l 469 -201 l 414 -144 l 261 -297 l 110 -144 l 53 -201 l 205 -353 l 53 -504 l 109 -562 l 261 -409 z"},"÷":{"ha":524,"x_min":42,"x_max":481,"o":"m 481 -312 l 42 -312 l 42 -393 l 481 -393 l 481 -312 z m 262 -114 l 262 -114 q 235 -114 220 -130 q 204 -147 204 -179 l 204 -179 q 204 -212 220 -228 q 235 -244 262 -244 l 262 -244 q 289 -244 304 -228 q 319 -212 319 -179 l 319 -179 q 319 -147 303 -130 q 287 -114 262 -114 z m 262 -461 l 262 -461 q 236 -461 220 -477 q 204 -493 204 -526 l 204 -526 q 204 -559 220 -575 q 235 -591 262 -591 l 262 -591 q 289 -591 304 -575 q 319 -559 319 -526 l 319 -526 q 319 -493 303 -477 q 287 -461 262 -461 z"},"−":{"ha":524,"x_min":42,"x_max":482,"o":"m 482 -312 l 42 -312 l 42 -393 l 482 -393 l 482 -312 z"},"₹":{"ha":524,"x_min":62,"x_max":471,"o":"m 363 0 l 242 0 l 62 -272 l 74 -352 l 102 -352 q 150 -352 173 -361 q 196 -371 209 -390 l 209 -390 q 222 -407 228 -432 q 234 -458 234 -494 l 234 -494 q 234 -540 226 -566 q 218 -592 202 -609 l 202 -609 q 189 -624 169 -630 q 149 -637 112 -637 l 112 -637 l 62 -637 l 62 -714 l 471 -714 l 471 -637 l 283 -637 q 307 -616 321 -581 q 334 -547 334 -492 l 334 -492 q 334 -430 315 -385 q 296 -341 258 -313 q 219 -286 161 -275 l 161 -275 l 164 -288 l 363 0 z m 471 -461 l 62 -461 l 62 -538 l 471 -538 l 471 -461 z"},"꠰":{"ha":242,"x_min":71,"x_max":171,"o":"m 71 0 l 71 -556 l 171 -556 l 171 0 l 71 0 z"},"꠱":{"ha":435,"x_min":71,"x_max":364,"o":"m 71 0 l 71 -556 l 171 -556 l 171 0 l 71 0 z m 264 0 l 264 -556 l 364 -556 l 364 0 l 264 0 z"},"꠲":{"ha":628,"x_min":71,"x_max":557,"o":"m 71 0 l 71 -556 l 171 -556 l 171 0 l 71 0 z m 264 0 l 264 -556 l 364 -556 l 364 0 l 264 0 z m 457 0 l 457 -556 l 557 -556 l 557 0 l 457 0 z"},"॑":{"ha":0,"x_min":-317,"x_max":-239,"o":"m -317 -653 l -317 -864 l -239 -864 l -239 -653 l -317 -653 z"},"॒":{"ha":0,"x_min":-492,"x_max":-65,"o":"m -65 109 l -65 184 l -492 184 l -492 109 l -65 109 z"},"।":{"ha":336,"x_min":156,"x_max":257,"o":"m 257 49 l 156 49 l 156 -603 l 257 -603 l 257 49 z"},"॥":{"ha":564,"x_min":156,"x_max":485,"o":"m 485 49 l 384 49 l 384 -603 l 485 -603 l 485 49 z m 257 49 l 156 49 l 156 -603 l 257 -603 l 257 49 z"},"᳚":{"ha":0,"x_min":-380,"x_max":-177,"o":"m -380 -653 l -380 -864 l -307 -864 l -307 -653 l -380 -653 z m -249 -653 l -249 -864 l -177 -864 l -177 -653 l -249 -653 z"},"̇":{"ha":0,"x_min":-331,"x_max":-217,"o":"m -331 -701 l -331 -701 q -331 -733 -314 -747 q -298 -761 -274 -761 l -274 -761 q -250 -761 -233 -747 q -217 -733 -217 -701 l -217 -701 q -217 -669 -233 -655 q -250 -641 -274 -641 l -274 -641 q -298 -641 -314 -655 q -331 -669 -331 -701 z"},"̣":{"ha":0,"x_min":-331,"x_max":-217,"o":"m -331 136 l -331 136 q -331 103 -314 89 q -298 75 -274 75 l -274 75 q -250 75 -233 89 q -217 103 -217 136 l -217 136 q -217 167 -233 182 q -250 196 -274 196 l -274 196 q -298 196 -314 182 q -331 167 -331 136 z"},"‐":{"ha":317,"x_min":36,"x_max":281,"o":"m 281 -224 l 36 -224 l 36 -314 l 281 -314 l 281 -224 z"},"​":{"ha":0,"x_min":0,"x_max":0,"o":""},"‌":{"ha":0,"x_min":0,"x_max":0,"o":""},"‍":{"ha":0,"x_min":-161,"x_max":161,"o":"m 29 244 l -29 244 l -29 -565 l -121 -474 l -161 -514 l -40 -631 l -161 -748 l -121 -788 l 0 -669 l 121 -788 l 161 -748 l 40 -631 l 161 -514 l 121 -474 l 29 -565 l 29 244 z"},"◌":{"ha":562,"x_min":57,"x_max":504,"o":"m 89 -231 l 89 -231 q 57 -231 57 -264 l 57 -264 q 57 -295 89 -295 l 89 -295 q 121 -295 121 -264 l 121 -264 q 121 -231 89 -231 z m 138 -95 l 138 -95 q 106 -95 106 -127 l 106 -127 q 106 -158 138 -158 l 138 -158 q 169 -158 169 -127 l 169 -127 q 169 -95 138 -95 z m 281 -40 l 281 -40 q 249 -40 249 -72 l 249 -72 q 249 -104 281 -104 l 281 -104 q 312 -104 312 -72 l 312 -72 q 312 -40 281 -40 z m 138 -369 l 138 -369 q 106 -369 106 -401 l 106 -401 q 106 -432 138 -432 l 138 -432 q 169 -432 169 -401 l 169 -401 q 169 -369 138 -369 z m 423 -95 l 423 -95 q 391 -95 391 -127 l 391 -127 q 391 -158 423 -158 l 423 -158 q 455 -158 455 -127 l 455 -127 q 455 -95 423 -95 z m 281 -424 l 281 -424 q 249 -424 249 -456 l 249 -456 q 249 -487 281 -487 l 281 -487 q 312 -487 312 -456 l 312 -456 q 312 -424 281 -424 z m 472 -231 l 472 -231 q 441 -231 441 -264 l 441 -264 q 441 -295 472 -295 l 472 -295 q 504 -295 504 -264 l 504 -264 q 504 -231 472 -231 z m 423 -369 l 423 -369 q 391 -369 391 -401 l 391 -401 q 391 -432 423 -432 l 423 -432 q 455 -432 455 -401 l 455 -401 q 455 -369 423 -369 z"},"«":{"ha":518,"x_min":38,"x_max":480,"o":"m 38 -260 l 38 -273 l 200 -478 l 273 -438 l 146 -267 l 273 -96 l 200 -55 l 38 -260 z m 245 -260 l 245 -273 l 408 -478 l 480 -438 l 354 -267 l 480 -96 l 408 -55 l 245 -260 z"},"»":{"ha":518,"x_min":38,"x_max":480,"o":"m 480 -273 l 480 -260 l 317 -55 l 245 -96 l 371 -267 l 245 -438 l 317 -478 l 480 -273 z m 273 -273 l 273 -260 l 110 -55 l 38 -96 l 164 -267 l 38 -438 l 110 -478 l 273 -273 z"},"̈":{"ha":0,"x_min":-141,"x_max":142,"o":"m -142 -678 l -142 -678 q -142 -707 -127 -720 q -112 -733 -90 -733 l -90 -733 q -69 -733 -54 -720 q -39 -707 -39 -679 l -39 -679 q -39 -651 -54 -637 q -69 -624 -90 -624 l -90 -624 q -112 -624 -127 -637 q -142 -651 -142 -678 z m 39 -678 l 39 -678 q 39 -707 54 -720 q 69 -733 90 -733 l 90 -733 q 111 -733 126 -720 q 141 -707 141 -679 l 141 -679 q 141 -651 126 -637 q 111 -624 90 -624 l 90 -624 q 68 -624 54 -637 q 39 -651 39 -678 z"},"̀":{"ha":0,"x_min":-464,"x_max":-248,"o":"m -464 -766 l -345 -766 q -333 -744 -316 -716 q -300 -689 -281 -663 q -263 -637 -249 -618 l -249 -618 l -249 -606 l -317 -606 q -333 -619 -354 -638 q -376 -658 -397 -680 q -418 -702 -436 -722 q -454 -742 -464 -756 l -464 -756 l -464 -766 z"},"́":{"ha":0,"x_min":-314,"x_max":-99,"o":"m -99 -766 l -99 -756 q -109 -742 -127 -722 q -145 -702 -166 -680 q -187 -659 -208 -639 q -229 -620 -246 -606 l -246 -606 l -314 -606 l -314 -618 q -298 -640 -280 -665 q -262 -691 -245 -717 q -229 -744 -218 -766 l -218 -766 l -99 -766 z"},"̋":{"ha":0,"x_min":-122,"x_max":237,"o":"m 236 -766 l 236 -756 q 229 -742 213 -722 q 197 -702 177 -680 q 157 -658 137 -639 q 117 -620 101 -606 l 101 -606 l 46 -606 l 46 -618 q 61 -639 78 -666 q 94 -693 109 -720 q 123 -747 131 -766 l 131 -766 l 236 -766 z m 68 -766 l 68 -756 q 60 -742 45 -722 q 29 -702 10 -680 q -10 -659 -30 -640 q -51 -621 -68 -606 l -68 -606 l -122 -606 l -122 -618 q -107 -640 -91 -666 q -76 -693 -61 -719 q -47 -746 -37 -766 l -37 -766 l 68 -766 z"},"̄":{"ha":0,"x_min":-143,"x_max":144,"o":"m -143 -687 l 144 -687 l 144 -609 l -143 -609 l -143 -687 z"},"˙":{"ha":196,"x_min":40,"x_max":156,"o":"m 98 -744 l 98 -744 q 123 -744 140 -729 q 156 -715 156 -683 l 156 -683 q 156 -652 140 -636 q 123 -621 98 -621 l 98 -621 q 73 -621 57 -636 q 40 -652 40 -683 l 40 -683 q 40 -715 56 -729 q 72 -744 98 -744 z"},"°":{"ha":405,"x_min":47,"x_max":358,"o":"m 202 -423 l 202 -423 q 156 -423 121 -442 q 86 -461 67 -494 q 47 -528 47 -573 l 47 -573 q 47 -618 67 -652 q 86 -686 121 -705 q 156 -724 202 -724 l 202 -724 q 248 -724 283 -705 q 318 -686 338 -652 q 358 -618 358 -573 l 358 -573 q 358 -528 338 -494 q 318 -461 283 -442 q 248 -423 202 -423 z m 203 -488 l 203 -488 q 243 -488 265 -511 q 286 -535 286 -573 l 286 -573 q 286 -612 264 -635 q 242 -659 203 -659 l 203 -659 q 162 -659 140 -635 q 118 -612 118 -573 l 118 -573 q 118 -535 141 -511 q 164 -488 203 -488 z"},"A":{"ha":587,"x_min":0,"x_max":587,"o":"m 587 0 l 476 0 l 411 -207 l 175 -207 l 110 0 l 0 0 l 235 -716 l 351 -716 l 587 0 z m 386 -299 l 322 -509 q 319 -523 313 -544 q 307 -565 302 -586 q 296 -607 292 -622 l 292 -622 q 289 -604 284 -583 q 279 -562 274 -542 q 268 -523 264 -509 l 264 -509 l 201 -299 l 386 -299 z"},"Á":{"ha":587,"x_min":0,"x_max":587,"o":"m 587 0 l 476 0 l 411 -207 l 175 -207 l 110 0 l 0 0 l 235 -716 l 351 -716 l 587 0 z m 386 -299 l 322 -509 q 319 -523 313 -544 q 307 -565 302 -586 q 296 -607 292 -622 l 292 -622 q 289 -604 284 -583 q 279 -562 274 -542 q 268 -523 264 -509 l 264 -509 l 201 -299 l 386 -299 z m 448 -941 l 448 -931 q 438 -917 420 -897 q 402 -877 381 -855 q 360 -834 339 -814 q 318 -795 301 -781 l 301 -781 l 233 -781 l 233 -793 q 249 -815 267 -840 q 285 -866 302 -892 q 318 -919 329 -941 l 329 -941 l 448 -941 z"},"Ă":{"ha":587,"x_min":0,"x_max":587,"o":"m 587 0 l 476 0 l 411 -207 l 175 -207 l 110 0 l 0 0 l 235 -716 l 351 -716 l 587 0 z m 386 -299 l 322 -509 q 319 -523 313 -544 q 307 -565 302 -586 q 296 -607 292 -622 l 292 -622 q 289 -604 284 -583 q 279 -562 274 -542 q 268 -523 264 -509 l 264 -509 l 201 -299 l 386 -299 z m 384 -924 l 446 -924 q 444 -882 424 -849 q 404 -817 370 -799 q 336 -781 290 -781 l 290 -781 q 220 -781 181 -819 q 142 -857 139 -924 l 139 -924 l 201 -924 q 203 -898 215 -884 q 226 -870 246 -864 q 266 -859 292 -859 l 292 -859 q 316 -859 336 -865 q 355 -871 369 -885 q 382 -899 384 -924 l 384 -924 z"},"Â":{"ha":587,"x_min":0,"x_max":587,"o":"m 587 0 l 476 0 l 411 -207 l 175 -207 l 110 0 l 0 0 l 235 -716 l 351 -716 l 587 0 z m 386 -299 l 322 -509 q 319 -523 313 -544 q 307 -565 302 -586 q 296 -607 292 -622 l 292 -622 q 289 -604 284 -583 q 279 -562 274 -542 q 268 -523 264 -509 l 264 -509 l 201 -299 l 386 -299 z m 238 -941 l 346 -941 q 358 -919 378 -892 q 398 -865 420 -839 q 442 -813 460 -792 l 460 -792 l 460 -781 l 393 -781 q 370 -798 344 -821 q 317 -844 292 -871 l 292 -871 q 267 -844 241 -821 q 214 -798 191 -781 l 191 -781 l 126 -781 l 126 -792 q 144 -813 166 -839 q 187 -866 207 -893 q 227 -920 238 -941 l 238 -941 z"},"Ä":{"ha":587,"x_min":0,"x_max":587,"o":"m 587 0 l 476 0 l 411 -207 l 175 -207 l 110 0 l 0 0 l 235 -716 l 351 -716 l 587 0 z m 386 -299 l 322 -509 q 319 -523 313 -544 q 307 -565 302 -586 q 296 -607 292 -622 l 292 -622 q 289 -604 284 -583 q 279 -562 274 -542 q 268 -523 264 -509 l 264 -509 l 201 -299 l 386 -299 z m 151 -853 l 151 -853 q 151 -882 166 -895 q 181 -908 203 -908 l 203 -908 q 224 -908 239 -895 q 254 -882 254 -854 l 254 -854 q 254 -826 239 -812 q 224 -799 203 -799 l 203 -799 q 181 -799 166 -812 q 151 -826 151 -853 z m 332 -853 l 332 -853 q 332 -882 347 -895 q 362 -908 383 -908 l 383 -908 q 404 -908 419 -895 q 434 -882 434 -854 l 434 -854 q 434 -826 419 -812 q 404 -799 383 -799 l 383 -799 q 361 -799 347 -812 q 332 -826 332 -853 z"}}}
